<?xml version="1.0" encoding="UTF-8"?>
<svg xmlns="http://www.w3.org/2000/svg" xmlns:xlink="http://www.w3.org/1999/xlink" width="201.61pt" height="101.541pt" viewBox="0 0 201.61 101.541">
<defs>
<g>
<g id="glyph-0-0">
<path d="M 1.90625 -5.078125 L 1.046875 -0.671875 C 0.984375 -0.421875 0.859375 -0.296875 0.484375 -0.265625 L 0.21875 -0.234375 C 0.171875 -0.203125 0.15625 -0.0625 0.203125 0.015625 C 0.59375 0.015625 0.921875 0 1.265625 0 C 1.609375 0 2 0.015625 2.40625 0.015625 C 2.421875 -0.015625 2.453125 -0.203125 2.421875 -0.234375 L 2.125 -0.265625 C 1.78125 -0.296875 1.671875 -0.40625 1.734375 -0.671875 L 2.59375 -5.078125 C 2.65625 -5.328125 2.78125 -5.453125 3.15625 -5.484375 L 3.421875 -5.515625 C 3.46875 -5.546875 3.484375 -5.6875 3.4375 -5.765625 C 3.046875 -5.765625 2.71875 -5.75 2.375 -5.75 C 2.03125 -5.75 1.625 -5.765625 1.234375 -5.765625 C 1.21875 -5.734375 1.1875 -5.5625 1.21875 -5.515625 L 1.515625 -5.484375 C 1.859375 -5.453125 1.96875 -5.34375 1.90625 -5.078125 Z M 1.90625 -5.078125 "/>
</g>
<g id="glyph-0-1">
<path d="M 1.8125 0.09375 C 3.578125 0.09375 4.1875 -1.046875 4.5 -2.625 L 4.984375 -5.078125 C 5.015625 -5.328125 5.171875 -5.46875 5.53125 -5.5 L 5.75 -5.515625 C 5.796875 -5.515625 5.828125 -5.546875 5.828125 -5.578125 L 5.875 -5.75 L 5.859375 -5.765625 C 5.453125 -5.765625 5.109375 -5.75 4.90625 -5.75 C 4.703125 -5.75 4.375 -5.765625 3.96875 -5.765625 L 3.953125 -5.75 L 3.921875 -5.578125 C 3.90625 -5.546875 3.9375 -5.515625 3.96875 -5.515625 L 4.203125 -5.5 C 4.484375 -5.484375 4.609375 -5.390625 4.609375 -5.203125 C 4.609375 -5.171875 4.59375 -5.125 4.578125 -5.078125 L 4.078125 -2.46875 C 3.875 -1.46875 3.53125 -0.28125 2.0625 -0.28125 C 1.65625 -0.28125 1.34375 -0.46875 1.140625 -0.71875 C 0.953125 -0.96875 0.90625 -1.234375 0.90625 -1.53125 C 0.90625 -1.8125 0.953125 -2.109375 1.015625 -2.40625 L 1.53125 -5.109375 C 1.59375 -5.359375 1.734375 -5.46875 2.09375 -5.5 L 2.3125 -5.515625 C 2.359375 -5.515625 2.375 -5.546875 2.390625 -5.578125 L 2.421875 -5.75 L 2.40625 -5.765625 C 2 -5.765625 1.65625 -5.75 1.3125 -5.75 C 0.96875 -5.75 0.640625 -5.765625 0.234375 -5.765625 L 0.203125 -5.75 L 0.171875 -5.578125 C 0.171875 -5.546875 0.203125 -5.515625 0.234375 -5.515625 L 0.453125 -5.5 C 0.734375 -5.484375 0.859375 -5.40625 0.859375 -5.21875 C 0.859375 -5.1875 0.859375 -5.140625 0.84375 -5.109375 L 0.265625 -2.109375 C 0.21875 -1.875 0.203125 -1.671875 0.203125 -1.484375 C 0.203125 -0.203125 1.15625 0.09375 1.8125 0.09375 Z M 1.8125 0.09375 "/>
</g>
<g id="glyph-1-0">
<path d="M 2.0625 -2.3125 C 3.046875 -2.3125 3.46875 -1.96875 3.46875 -1.3125 C 3.46875 -0.671875 3.03125 -0.328125 2.109375 -0.328125 L 1.671875 -0.328125 C 1.65625 -0.9375 1.65625 -1.5625 1.65625 -2.3125 Z M 2.171875 -4.453125 C 2.90625 -4.453125 3.265625 -4.21875 3.265625 -3.578125 C 3.265625 -2.921875 2.90625 -2.640625 2.03125 -2.640625 L 1.65625 -2.640625 C 1.65625 -3.203125 1.65625 -3.828125 1.671875 -4.453125 Z M 0.3125 -4.484375 L 0.96875 -4.40625 C 0.984375 -3.796875 0.984375 -3.171875 0.984375 -2.5625 L 0.984375 -2.21875 C 0.984375 -1.59375 0.984375 -0.96875 0.96875 -0.375 L 0.3125 -0.296875 L 0.3125 0 L 2.28125 0 C 3.65625 0 4.1875 -0.65625 4.1875 -1.3125 C 4.1875 -1.890625 3.78125 -2.34375 2.828125 -2.484375 C 3.625 -2.65625 3.9375 -3.109375 3.9375 -3.625 C 3.9375 -4.296875 3.375 -4.78125 2.390625 -4.78125 L 0.3125 -4.78125 Z M 0.3125 -4.484375 "/>
</g>
<g id="glyph-1-1">
<path d="M 2.75 0.109375 C 3.265625 0.109375 3.75 0 4.203125 -0.234375 L 4.234375 -1.265625 L 3.78125 -1.265625 L 3.640625 -0.4375 C 3.359375 -0.3125 3.0625 -0.25 2.796875 -0.25 C 1.8125 -0.25 1.109375 -1 1.109375 -2.390625 C 1.109375 -3.78125 1.890625 -4.53125 2.84375 -4.53125 C 3.078125 -4.53125 3.3125 -4.484375 3.578125 -4.34375 L 3.71875 -3.515625 L 4.15625 -3.515625 L 4.125 -4.546875 C 3.65625 -4.828125 3.140625 -4.890625 2.75 -4.890625 C 1.359375 -4.890625 0.328125 -3.828125 0.328125 -2.390625 C 0.328125 -0.921875 1.3125 0.109375 2.75 0.109375 Z M 2.75 0.109375 "/>
</g>
<g id="glyph-1-2">
<path d="M 0.3125 -4.484375 L 0.96875 -4.40625 C 0.984375 -3.796875 0.984375 -3.171875 0.984375 -2.5625 L 0.984375 -2.21875 C 0.984375 -1.59375 0.984375 -0.96875 0.96875 -0.375 L 0.3125 -0.296875 L 0.3125 0 L 4.015625 0 L 4.0625 -1.265625 L 3.65625 -1.265625 L 3.5 -0.359375 L 1.671875 -0.359375 C 1.65625 -0.953125 1.65625 -1.5625 1.65625 -2.265625 L 2.71875 -2.265625 L 2.8125 -1.59375 L 3.140625 -1.59375 L 3.140625 -3.28125 L 2.8125 -3.28125 L 2.71875 -2.609375 L 1.65625 -2.609375 C 1.65625 -3.1875 1.65625 -3.8125 1.671875 -4.421875 L 3.359375 -4.421875 L 3.515625 -3.515625 L 3.921875 -3.515625 L 3.875 -4.78125 L 0.3125 -4.78125 Z M 0.3125 -4.484375 "/>
</g>
<g id="glyph-2-0">
<path d="M 0.390625 -5.609375 L 1.21875 -5.515625 C 1.234375 -4.75 1.234375 -3.96875 1.234375 -3.203125 L 1.234375 -2.765625 C 1.234375 -1.984375 1.234375 -1.21875 1.21875 -0.46875 L 0.390625 -0.359375 L 0.390625 0 L 5.015625 0 L 5.078125 -1.59375 L 4.5625 -1.59375 L 4.375 -0.453125 L 2.09375 -0.453125 C 2.078125 -1.1875 2.078125 -1.9375 2.078125 -2.84375 L 3.40625 -2.84375 L 3.515625 -2 L 3.921875 -2 L 3.921875 -4.109375 L 3.515625 -4.109375 L 3.390625 -3.25 L 2.078125 -3.25 C 2.078125 -3.984375 2.078125 -4.765625 2.09375 -5.53125 L 4.1875 -5.53125 L 4.390625 -4.40625 L 4.890625 -4.40625 L 4.828125 -5.984375 L 0.390625 -5.984375 Z M 0.390625 -5.609375 "/>
</g>
<g id="glyph-2-1">
<path d="M 2.5625 -2.875 C 3.796875 -2.875 4.34375 -2.46875 4.34375 -1.625 C 4.34375 -0.84375 3.78125 -0.421875 2.640625 -0.421875 L 2.09375 -0.421875 C 2.078125 -1.171875 2.078125 -1.9375 2.078125 -2.875 Z M 2.71875 -5.5625 C 3.625 -5.5625 4.09375 -5.265625 4.09375 -4.453125 C 4.09375 -3.65625 3.625 -3.296875 2.546875 -3.296875 L 2.078125 -3.296875 C 2.078125 -4 2.078125 -4.796875 2.09375 -5.5625 Z M 0.390625 -5.609375 L 1.21875 -5.515625 C 1.234375 -4.75 1.234375 -3.96875 1.234375 -3.203125 L 1.234375 -2.765625 C 1.234375 -1.984375 1.234375 -1.21875 1.21875 -0.46875 L 0.390625 -0.359375 L 0.390625 0 L 2.84375 0 C 4.5625 0 5.234375 -0.828125 5.234375 -1.625 C 5.234375 -2.359375 4.734375 -2.9375 3.546875 -3.109375 C 4.53125 -3.3125 4.921875 -3.890625 4.921875 -4.515625 C 4.921875 -5.375 4.21875 -5.984375 2.984375 -5.984375 L 0.390625 -5.984375 Z M 0.390625 -5.609375 "/>
</g>
<g id="glyph-2-2">
<path d="M 3.4375 0.140625 C 4.078125 0.140625 4.6875 0.015625 5.25 -0.296875 L 5.28125 -1.59375 L 4.734375 -1.59375 L 4.546875 -0.546875 C 4.203125 -0.390625 3.828125 -0.3125 3.484375 -0.3125 C 2.265625 -0.3125 1.390625 -1.234375 1.390625 -2.984375 C 1.390625 -4.734375 2.359375 -5.671875 3.546875 -5.671875 C 3.84375 -5.671875 4.140625 -5.609375 4.453125 -5.421875 L 4.640625 -4.390625 L 5.1875 -4.390625 L 5.15625 -5.6875 C 4.5625 -6.03125 3.921875 -6.109375 3.4375 -6.109375 C 1.703125 -6.109375 0.421875 -4.796875 0.421875 -2.984375 C 0.421875 -1.15625 1.640625 0.140625 3.4375 0.140625 Z M 3.4375 0.140625 "/>
</g>
</g>
<clipPath id="clip-0">
<path clip-rule="nonzero" d="M 0.257812 50 L 87 50 L 87 51 L 0.257812 51 Z M 0.257812 50 "/>
</clipPath>
<clipPath id="clip-1">
<path clip-rule="nonzero" d="M 109 72 L 111 72 L 111 101.085938 L 109 101.085938 Z M 109 72 "/>
</clipPath>
</defs>
<path fill="none" stroke-width="0.797" stroke-linecap="butt" stroke-linejoin="miter" stroke="rgb(0%, 0%, 0%)" stroke-opacity="1" stroke-miterlimit="10" d="M 8.005184 -0.00144023 C 8.005184 8.128896 1.413019 14.717137 -6.713394 14.717137 C -14.839806 14.717137 -21.431971 8.128896 -21.431971 -0.00144023 C -21.431971 -8.127853 -14.839806 -14.716094 -6.713394 -14.716094 C 1.413019 -14.716094 8.005184 -8.127853 8.005184 -0.00144023 Z M 8.005184 -0.00144023 " transform="matrix(0.9955, 0, 0, -0.9955, 110.007402, 50.541535)"/>
<path fill="none" stroke-width="0.3985" stroke-linecap="butt" stroke-linejoin="miter" stroke="rgb(0%, 0%, 0%)" stroke-opacity="1" stroke-miterlimit="10" d="M 0.000412356 22.027377 L 0.000412356 8.729254 L -11.904723 3.275023 " transform="matrix(0.9955, 0, 0, -0.9955, 110.007402, 50.541535)"/>
<path fill="none" stroke-width="0.797" stroke-linecap="butt" stroke-linejoin="miter" stroke="rgb(0%, 0%, 0%)" stroke-opacity="1" stroke-miterlimit="10" d="M -11.904723 8.729254 L -11.904723 -8.732135 " transform="matrix(0.9955, 0, 0, -0.9955, 110.007402, 50.541535)"/>
<path fill="none" stroke-width="0.3985" stroke-linecap="butt" stroke-linejoin="miter" stroke="rgb(0%, 0%, 0%)" stroke-opacity="1" stroke-miterlimit="10" d="M -11.904723 -3.273979 L 0.000412356 -8.732135 L 0.000412356 -22.026334 " transform="matrix(0.9955, 0, 0, -0.9955, 110.007402, 50.541535)"/>
<path fill-rule="nonzero" fill="rgb(0%, 0%, 0%)" fill-opacity="1" d="M 102.328125 55.714844 L 103.277344 53.644531 L 106.953125 57.832031 L 101.382812 57.785156 Z M 102.328125 55.714844 "/>
<path fill="none" stroke-width="0.3985" stroke-linecap="butt" stroke-linejoin="miter" stroke="rgb(0%, 0%, 0%)" stroke-opacity="1" stroke-miterlimit="10" d="M -11.904723 -0.00144023 L -24.009978 -0.00144023 " transform="matrix(0.9955, 0, 0, -0.9955, 110.007402, 50.541535)"/>
<g clip-path="url(#clip-0)">
<path fill="none" stroke-width="0.3985" stroke-linecap="butt" stroke-linejoin="miter" stroke="rgb(0%, 0%, 0%)" stroke-opacity="1" stroke-miterlimit="10" d="M -23.809859 -0.00144023 L -66.929679 -0.00144023 M -66.929679 -0.00144023 L -110.045576 -0.00144023 " transform="matrix(0.9955, 0, 0, -0.9955, 110.007402, 50.541535)"/>
</g>
<path fill-rule="nonzero" fill="rgb(88.233948%, 31.373596%, 13.723755%)" fill-opacity="1" stroke-width="0.3985" stroke-linecap="butt" stroke-linejoin="miter" stroke="rgb(88.233948%, 31.373596%, 13.723755%)" stroke-opacity="1" stroke-miterlimit="10" d="M -68.664046 -0.00144023 L -68.664046 -1.983014 L -64.44977 -0.00144023 L -68.664046 1.984057 Z M -68.664046 -0.00144023 " transform="matrix(0.9955, 0, 0, -0.9955, 110.007402, 50.541535)"/>
<g fill="rgb(88.233948%, 31.373596%, 13.723755%)" fill-opacity="1">
<use xlink:href="#glyph-0-0" x="39.688269" y="59.490085"/>
</g>
<g fill="rgb(88.233948%, 31.373596%, 13.723755%)" fill-opacity="1">
<use xlink:href="#glyph-1-0" x="42.196929" y="61.364611"/>
</g>
<path fill="none" stroke-width="0.3985" stroke-linecap="butt" stroke-linejoin="miter" stroke="rgb(0%, 0%, 0%)" stroke-opacity="1" stroke-miterlimit="10" d="M 0.000412356 21.827258 L 0.000412356 36.200531 M 0.000412356 36.200531 L 0.000412356 50.573805 " transform="matrix(0.9955, 0, 0, -0.9955, 110.007402, 50.541535)"/>
<path fill-rule="nonzero" fill="rgb(88.233948%, 31.373596%, 13.723755%)" fill-opacity="1" stroke-width="0.3985" stroke-linecap="butt" stroke-linejoin="miter" stroke="rgb(88.233948%, 31.373596%, 13.723755%)" stroke-opacity="1" stroke-miterlimit="10" d="M 0.000412356 37.934898 L -1.985085 37.934898 L 0.000412356 33.720622 L 1.98591 37.934898 Z M 0.000412356 37.934898 " transform="matrix(0.9955, 0, 0, -0.9955, 110.007402, 50.541535)"/>
<g fill="rgb(88.233948%, 31.373596%, 13.723755%)" fill-opacity="1">
<use xlink:href="#glyph-0-0" x="99.436188" y="16.402853"/>
</g>
<g fill="rgb(88.233948%, 31.373596%, 13.723755%)" fill-opacity="1">
<use xlink:href="#glyph-1-1" x="101.943852" y="18.27738"/>
</g>
<g clip-path="url(#clip-1)">
<path fill="none" stroke-width="0.3985" stroke-linecap="butt" stroke-linejoin="miter" stroke="rgb(0%, 0%, 0%)" stroke-opacity="1" stroke-miterlimit="10" d="M 0.000412356 -21.826214 L 0.000412356 -36.199488 M 0.000412356 -36.199488 L 0.000412356 -50.572761 " transform="matrix(0.9955, 0, 0, -0.9955, 110.007402, 50.541535)"/>
</g>
<path fill-rule="nonzero" fill="rgb(88.233948%, 31.373596%, 13.723755%)" fill-opacity="1" stroke-width="0.3985" stroke-linecap="butt" stroke-linejoin="miter" stroke="rgb(88.233948%, 31.373596%, 13.723755%)" stroke-opacity="1" stroke-miterlimit="10" d="M 0.000412356 -34.465121 L -1.985085 -34.465121 L 0.000412356 -38.679397 L 1.98591 -34.465121 Z M 0.000412356 -34.465121 " transform="matrix(0.9955, 0, 0, -0.9955, 110.007402, 50.541535)"/>
<g fill="rgb(88.233948%, 31.373596%, 13.723755%)" fill-opacity="1">
<use xlink:href="#glyph-0-0" x="113.181056" y="88.52882"/>
</g>
<g fill="rgb(88.233948%, 31.373596%, 13.723755%)" fill-opacity="1">
<use xlink:href="#glyph-1-2" x="115.688721" y="90.403346"/>
</g>
<g fill="rgb(74.508667%, 74.508667%, 74.508667%)" fill-opacity="1">
<use xlink:href="#glyph-2-0" x="113.181056" y="81.423936"/>
</g>
<g fill="rgb(74.508667%, 74.508667%, 74.508667%)" fill-opacity="1">
<use xlink:href="#glyph-2-1" x="77.515277" y="47.368877"/>
</g>
<g fill="rgb(74.508667%, 74.508667%, 74.508667%)" fill-opacity="1">
<use xlink:href="#glyph-2-2" x="113.181056" y="25.505706"/>
</g>
<path fill="none" stroke-width="0.3985" stroke-linecap="butt" stroke-linejoin="miter" stroke="rgb(0%, 62.745667%, 86.274719%)" stroke-opacity="1" stroke-miterlimit="10" d="M -30.492273 -4.172554 L -5.336102 -23.847027 " transform="matrix(0.9955, 0, 0, -0.9955, 110.007402, 50.541535)"/>
<path fill-rule="nonzero" fill="rgb(0%, 62.745667%, 86.274719%)" fill-opacity="1" stroke-width="0.3985" stroke-linecap="butt" stroke-linejoin="miter" stroke="rgb(0%, 62.745667%, 86.274719%)" stroke-opacity="1" stroke-miterlimit="10" d="M -8.655728 -21.2494 L -9.879987 -22.811115 L -5.336102 -23.847027 L -7.435393 -19.687685 Z M -8.655728 -21.2494 " transform="matrix(0.9955, 0, 0, -0.9955, 110.007402, 50.541535)"/>
<g fill="rgb(0%, 62.745667%, 86.274719%)" fill-opacity="1">
<use xlink:href="#glyph-0-1" x="75.381921" y="73.534599"/>
</g>
<g fill="rgb(0%, 62.745667%, 86.274719%)" fill-opacity="1">
<use xlink:href="#glyph-1-0" x="80.130456" y="75.409125"/>
</g>
<g fill="rgb(0%, 62.745667%, 86.274719%)" fill-opacity="1">
<use xlink:href="#glyph-1-2" x="84.450653" y="75.409125"/>
</g>
<path fill="none" stroke-width="0.3985" stroke-linecap="butt" stroke-linejoin="miter" stroke="rgb(0%, 62.745667%, 86.274719%)" stroke-opacity="1" stroke-miterlimit="10" d="M 11.995798 19.775054 L 11.819222 -19.640598 " transform="matrix(0.9955, 0, 0, -0.9955, 110.007402, 50.541535)"/>
<path fill-rule="nonzero" fill="rgb(0%, 62.745667%, 86.274719%)" fill-opacity="1" stroke-width="0.3985" stroke-linecap="butt" stroke-linejoin="miter" stroke="rgb(0%, 62.745667%, 86.274719%)" stroke-opacity="1" stroke-miterlimit="10" d="M 11.838842 -15.426321 L 9.853344 -15.418473 L 11.819222 -19.640598 L 13.824339 -15.434169 Z M 11.838842 -15.426321 " transform="matrix(0.9955, 0, 0, -0.9955, 110.007402, 50.541535)"/>
<g fill="rgb(0%, 62.745667%, 86.274719%)" fill-opacity="1">
<use xlink:href="#glyph-0-1" x="125.426702" y="52.378233"/>
</g>
<g fill="rgb(0%, 62.745667%, 86.274719%)" fill-opacity="1">
<use xlink:href="#glyph-1-1" x="130.175237" y="54.252759"/>
<use xlink:href="#glyph-1-2" x="134.681095" y="54.252759"/>
</g>
<path fill="none" stroke-width="0.3985" stroke-linecap="butt" stroke-linejoin="miter" stroke="rgb(0%, 62.745667%, 86.274719%)" stroke-opacity="1" stroke-miterlimit="10" d="M -4.429679 25.810024 L -25.391194 14.724985 " transform="matrix(0.9955, 0, 0, -0.9955, 110.007402, 50.541535)"/>
<path fill-rule="nonzero" fill="rgb(0%, 62.745667%, 86.274719%)" fill-opacity="1" stroke-width="0.3985" stroke-linecap="butt" stroke-linejoin="miter" stroke="rgb(0%, 62.745667%, 86.274719%)" stroke-opacity="1" stroke-miterlimit="10" d="M -21.663481 16.694787 L -22.589524 18.448773 L -25.391194 14.724985 L -20.733515 14.9408 Z M -21.663481 16.694787 " transform="matrix(0.9955, 0, 0, -0.9955, 110.007402, 50.541535)"/>
<g fill="rgb(0%, 62.745667%, 86.274719%)" fill-opacity="1">
<use xlink:href="#glyph-0-1" x="78.206155" y="24.979086"/>
</g>
<g fill="rgb(0%, 62.745667%, 86.274719%)" fill-opacity="1">
<use xlink:href="#glyph-1-1" x="82.955685" y="26.853613"/>
<use xlink:href="#glyph-1-0" x="87.461543" y="26.853613"/>
</g>
</svg>
