<?xml version="1.0" encoding="UTF-8"?>
<svg xmlns="http://www.w3.org/2000/svg" xmlns:xlink="http://www.w3.org/1999/xlink" width="254.165" height="136.079" viewBox="0 0 254.165 136.079">
<defs>
<g>
<g id="glyph-0-0">
<path d="M 1.234375 -2.765625 C 1.234375 -1.984375 1.234375 -1.21875 1.21875 -0.46875 L 0.390625 -0.359375 L 0.390625 0 L 2.90625 0 L 2.90625 -0.359375 L 2.09375 -0.453125 C 2.078125 -1.1875 2.078125 -1.9375 2.078125 -2.84375 L 4.953125 -2.84375 C 4.953125 -2.015625 4.953125 -1.21875 4.9375 -0.46875 L 4.109375 -0.359375 L 4.109375 0 L 6.625 0 L 6.625 -0.359375 L 5.8125 -0.46875 C 5.796875 -1.234375 5.796875 -2 5.796875 -2.765625 L 5.796875 -3.203125 C 5.796875 -3.96875 5.796875 -4.75 5.8125 -5.5 L 6.625 -5.59375 L 6.625 -5.953125 L 4.109375 -5.953125 L 4.109375 -5.59375 L 4.9375 -5.5 C 4.953125 -4.78125 4.953125 -4.046875 4.953125 -3.265625 L 2.078125 -3.265625 C 2.078125 -3.96875 2.078125 -4.75 2.09375 -5.5 L 2.90625 -5.59375 L 2.90625 -5.953125 L 0.390625 -5.953125 L 0.390625 -5.59375 L 1.21875 -5.5 C 1.234375 -4.734375 1.234375 -3.96875 1.234375 -3.203125 Z M 1.234375 -2.765625 "/>
</g>
<g id="glyph-0-1">
<path d="M 1.234375 -2.765625 C 1.234375 -1.984375 1.234375 -1.21875 1.21875 -0.46875 L 0.390625 -0.359375 L 0.390625 0 L 2.921875 0 L 2.921875 -0.359375 L 2.09375 -0.46875 C 2.078125 -1.1875 2.078125 -1.953125 2.078125 -2.828125 L 3.453125 -2.828125 L 3.578125 -1.90625 L 3.984375 -1.90625 L 3.984375 -4.09375 L 3.578125 -4.09375 L 3.453125 -3.25 L 2.078125 -3.25 C 2.078125 -3.984375 2.078125 -4.75 2.09375 -5.515625 L 4.1875 -5.515625 L 4.375 -4.375 L 4.890625 -4.375 L 4.828125 -5.953125 L 0.390625 -5.953125 L 0.390625 -5.59375 L 1.21875 -5.5 C 1.234375 -4.734375 1.234375 -3.96875 1.234375 -3.203125 Z M 1.234375 -2.765625 "/>
</g>
<g id="glyph-0-2">
<path d="M 5.984375 -4.34375 C 5.421875 -4.34375 4.828125 -4.0625 4.359375 -3.515625 C 4.21875 -4.09375 3.875 -4.34375 3.3125 -4.34375 C 2.765625 -4.34375 2.1875 -4.015625 1.75 -3.546875 L 1.6875 -4.25 L 1.546875 -4.34375 L 0.296875 -3.796875 L 0.296875 -3.484375 L 1 -3.40625 C 1.03125 -3.0625 1.03125 -2.78125 1.03125 -2.296875 L 1.03125 -1.875 C 1.03125 -1.46875 1.03125 -0.890625 1.015625 -0.453125 L 0.359375 -0.328125 L 0.359375 0 L 2.421875 0 L 2.421875 -0.328125 L 1.8125 -0.453125 C 1.796875 -0.890625 1.796875 -1.484375 1.796875 -1.875 L 1.796875 -3.171875 C 2.234375 -3.546875 2.5625 -3.703125 2.96875 -3.703125 C 3.5 -3.703125 3.703125 -3.4375 3.703125 -2.625 L 3.703125 -1.875 C 3.703125 -1.453125 3.703125 -0.875 3.6875 -0.453125 L 3.03125 -0.328125 L 3.03125 0 L 5.09375 0 L 5.09375 -0.328125 L 4.46875 -0.453125 C 4.46875 -0.890625 4.453125 -1.453125 4.453125 -1.875 L 4.453125 -2.703125 C 4.453125 -2.859375 4.4375 -3.015625 4.4375 -3.140625 C 4.890625 -3.546875 5.25 -3.703125 5.625 -3.703125 C 6.140625 -3.703125 6.375 -3.46875 6.375 -2.640625 L 6.375 -1.875 C 6.375 -1.453125 6.375 -0.875 6.359375 -0.453125 L 5.703125 -0.328125 L 5.703125 0 L 7.765625 0 L 7.765625 -0.328125 L 7.140625 -0.453125 C 7.140625 -0.890625 7.125 -1.453125 7.125 -1.875 L 7.125 -2.78125 C 7.125 -3.890625 6.703125 -4.34375 5.984375 -4.34375 Z M 5.984375 -4.34375 "/>
</g>
<g id="glyph-0-3">
<path d="M 1.359375 -5.328125 C 1.6875 -5.328125 1.953125 -5.5625 1.953125 -5.890625 C 1.953125 -6.25 1.6875 -6.46875 1.359375 -6.46875 C 1.03125 -6.46875 0.765625 -6.25 0.765625 -5.890625 C 0.765625 -5.5625 1.03125 -5.328125 1.359375 -5.328125 Z M 2.375 -0.328125 L 1.75 -0.453125 C 1.75 -0.890625 1.734375 -1.484375 1.734375 -1.875 L 1.734375 -3.046875 L 1.765625 -4.25 L 1.625 -4.34375 L 0.265625 -3.796875 L 0.265625 -3.484375 L 0.96875 -3.40625 C 0.984375 -3.0625 1 -2.78125 1 -2.28125 L 1 -1.875 C 1 -1.484375 0.984375 -0.890625 0.984375 -0.453125 L 0.3125 -0.328125 L 0.3125 0 L 2.375 0 Z M 2.375 -0.328125 "/>
</g>
<g id="glyph-0-4">
<path d="M 2.8125 -3.890625 L 3.40625 -3.765625 L 2.453125 -2.546875 L 1.59375 -3.78125 L 2.140625 -3.890625 L 2.140625 -4.234375 L 0.15625 -4.234375 L 0.15625 -3.890625 L 0.765625 -3.78125 L 1.953125 -2.046875 L 0.65625 -0.421875 L 0.09375 -0.328125 L 0.09375 0 L 1.875 0 L 1.875 -0.328125 L 1.203125 -0.4375 L 2.1875 -1.703125 L 3.0625 -0.4375 L 2.421875 -0.328125 L 2.421875 0 L 4.59375 0 L 4.59375 -0.328125 L 3.921875 -0.453125 L 2.6875 -2.21875 L 3.953125 -3.78125 L 4.484375 -3.890625 L 4.484375 -4.234375 L 2.8125 -4.234375 Z M 2.8125 -3.890625 "/>
</g>
<g id="glyph-0-5">
<path d="M 2.390625 -3.9375 C 2.953125 -3.9375 3.359375 -3.484375 3.359375 -2.96875 C 3.359375 -2.71875 3.265625 -2.515625 2.84375 -2.515625 L 1.21875 -2.515625 C 1.3125 -3.546875 1.890625 -3.9375 2.390625 -3.9375 Z M 2.453125 -4.34375 C 1.34375 -4.34375 0.40625 -3.4375 0.40625 -2.078125 C 0.40625 -0.71875 1.1875 0.109375 2.390625 0.109375 C 3.203125 0.109375 3.765625 -0.28125 4.09375 -0.921875 L 3.890625 -1.09375 C 3.5625 -0.71875 3.21875 -0.46875 2.640625 -0.46875 C 1.796875 -0.46875 1.21875 -1.046875 1.203125 -2.140625 L 4.046875 -2.140625 C 4.078125 -2.25 4.109375 -2.4375 4.109375 -2.640625 C 4.109375 -3.71875 3.375 -4.34375 2.453125 -4.34375 Z M 2.453125 -4.34375 "/>
</g>
<g id="glyph-0-6">
<path d="M 0.375 0 L 2.53125 0 L 2.53125 -0.328125 L 1.8125 -0.453125 C 1.796875 -0.90625 1.796875 -1.484375 1.796875 -1.875 L 1.796875 -2.53125 C 1.9375 -3.046875 2.171875 -3.421875 2.53125 -3.6875 L 2.640625 -3.59375 C 2.8125 -3.453125 2.96875 -3.359375 3.171875 -3.359375 C 3.53125 -3.359375 3.703125 -3.59375 3.703125 -4.015625 C 3.59375 -4.21875 3.328125 -4.34375 3.0625 -4.34375 C 2.578125 -4.34375 2.078125 -3.921875 1.78125 -3.203125 L 1.6875 -4.25 L 1.546875 -4.34375 L 0.296875 -3.796875 L 0.296875 -3.484375 L 1 -3.40625 C 1.03125 -3.0625 1.03125 -2.78125 1.03125 -2.296875 L 1.03125 -1.875 C 1.03125 -1.46875 1.03125 -0.875 1.015625 -0.4375 L 0.375 -0.328125 Z M 0.375 0 "/>
</g>
<g id="glyph-0-7">
<path d="M 2.875 0.0625 L 3.265625 0.0625 L 5.140625 -5.484375 L 5.921875 -5.59375 L 5.921875 -5.953125 L 3.859375 -5.953125 L 3.859375 -5.5625 L 4.65625 -5.46875 L 3.203125 -1.203125 L 1.703125 -5.484375 L 2.5625 -5.5625 L 2.5625 -5.953125 L 0.140625 -5.953125 L 0.140625 -5.59375 L 0.796875 -5.515625 Z M 2.875 0.0625 "/>
</g>
<g id="glyph-0-8">
<path d="M 3.484375 -0.3125 C 2.265625 -0.3125 1.390625 -1.234375 1.390625 -2.984375 C 1.390625 -4.71875 2.34375 -5.640625 3.546875 -5.640625 C 3.828125 -5.640625 4.125 -5.578125 4.453125 -5.40625 L 4.625 -4.375 L 5.1875 -4.375 L 5.140625 -5.671875 C 4.546875 -6.015625 3.921875 -6.09375 3.421875 -6.09375 C 1.703125 -6.09375 0.421875 -4.78125 0.421875 -2.984375 C 0.421875 -1.15625 1.640625 0.140625 3.4375 0.140625 C 4.0625 0.140625 4.6875 0.015625 5.234375 -0.296875 L 5.265625 -1.578125 L 4.71875 -1.578125 L 4.546875 -0.546875 C 4.1875 -0.390625 3.828125 -0.3125 3.484375 -0.3125 Z M 3.484375 -0.3125 "/>
</g>
<g id="glyph-0-9">
<path d="M 1.390625 -2.984375 C 1.390625 -4.3125 1.921875 -5.640625 3.15625 -5.640625 C 4.390625 -5.640625 4.90625 -4.3125 4.90625 -2.984375 C 4.90625 -1.640625 4.390625 -0.3125 3.15625 -0.3125 C 1.921875 -0.3125 1.390625 -1.640625 1.390625 -2.984375 Z M 3.15625 -6.09375 C 1.765625 -6.09375 0.421875 -4.9375 0.421875 -2.984375 C 0.421875 -0.9375 1.765625 0.140625 3.15625 0.140625 C 4.53125 0.140625 5.875 -1.03125 5.875 -2.984375 C 5.875 -5.015625 4.53125 -6.09375 3.15625 -6.09375 Z M 3.15625 -6.09375 "/>
</g>
<g id="glyph-0-10">
<path d="M 1.234375 -2.765625 C 1.234375 -1.984375 1.234375 -1.21875 1.21875 -0.46875 L 0.390625 -0.359375 L 0.390625 0 L 2.90625 0 L 2.90625 -0.359375 L 2.09375 -0.46875 C 2.078125 -1.234375 2.078125 -2 2.078125 -2.765625 L 2.078125 -3.203125 C 2.078125 -3.96875 2.078125 -4.75 2.09375 -5.5 L 2.90625 -5.59375 L 2.90625 -5.953125 L 0.390625 -5.953125 L 0.390625 -5.59375 L 1.21875 -5.5 C 1.234375 -4.734375 1.234375 -3.96875 1.234375 -3.203125 Z M 1.234375 -2.765625 "/>
</g>
<g id="glyph-1-0">
<path d="M 1.578125 1.5625 C 1.484375 1.703125 1.296875 1.828125 1.171875 1.828125 C 1.046875 1.828125 1 1.765625 0.953125 1.671875 C 0.875 1.5625 0.703125 1.390625 0.5 1.390625 C 0.265625 1.390625 0.171875 1.5625 0.171875 1.703125 C 0.171875 1.90625 0.390625 2.125 1 2.125 C 1.359375 2.125 1.75 1.9375 2.03125 1.5625 C 2.28125 1.21875 2.46875 0.53125 2.828125 -1.15625 C 2.96875 -1.859375 3.109375 -2.578125 3.234375 -3.328125 L 3.265625 -3.46875 L 4.09375 -3.46875 C 4.171875 -3.46875 4.3125 -3.515625 4.328125 -3.578125 C 4.328125 -3.578125 4.375 -3.765625 4.375 -3.78125 C 4.375 -3.796875 4.359375 -3.828125 4.3125 -3.828125 L 3.328125 -3.828125 L 3.421875 -4.328125 C 3.5625 -5 3.6875 -5.390625 3.8125 -5.640625 C 3.953125 -5.890625 4.0625 -5.953125 4.171875 -5.953125 C 4.296875 -5.953125 4.3125 -5.875 4.359375 -5.703125 C 4.390625 -5.515625 4.46875 -5.296875 4.75 -5.296875 C 5 -5.296875 5.0625 -5.5 5.0625 -5.578125 C 5.0625 -5.90625 4.78125 -6.21875 4.234375 -6.21875 C 4.046875 -6.21875 3.8125 -6.125 3.640625 -5.96875 C 3.34375 -5.75 2.96875 -5.40625 2.640625 -3.828125 L 2.046875 -3.796875 C 1.890625 -3.78125 1.8125 -3.71875 1.796875 -3.640625 C 1.796875 -3.609375 1.765625 -3.515625 1.765625 -3.484375 C 1.765625 -3.46875 1.78125 -3.46875 1.8125 -3.46875 L 2.5625 -3.46875 C 2.34375 -2.453125 2.3125 -1.921875 2.1875 -1.25 C 2.046875 -0.40625 1.90625 1.046875 1.578125 1.5625 Z M 1.578125 1.5625 "/>
</g>
<g id="glyph-2-0">
<path d="M 0.296875 -1.453125 C 0.296875 -0.734375 0.78125 0.078125 1.78125 0.078125 C 2.25 0.078125 2.59375 -0.09375 2.828125 -0.328125 C 3.15625 -0.640625 3.296875 -1.09375 3.296875 -1.53125 C 3.296875 -2.265625 2.890625 -3.125 1.796875 -3.125 C 1.328125 -3.125 0.953125 -2.9375 0.6875 -2.625 C 0.421875 -2.328125 0.296875 -1.90625 0.296875 -1.453125 Z M 1.703125 -2.875 C 2.3125 -2.875 2.6875 -2.328125 2.6875 -1.296875 C 2.6875 -0.40625 2.21875 -0.171875 1.890625 -0.171875 C 1.140625 -0.171875 0.90625 -1.078125 0.90625 -1.625 C 0.90625 -2.25 1.046875 -2.875 1.703125 -2.875 Z M 1.703125 -2.875 "/>
</g>
</g>
<clipPath id="clip-0">
<path clip-rule="nonzero" d="M 0.441406 24 L 4 24 L 4 29 L 0.441406 29 Z M 0.441406 24 "/>
</clipPath>
<clipPath id="clip-1">
<path clip-rule="nonzero" d="M 0.441406 19 L 10 19 L 10 34 L 0.441406 34 Z M 0.441406 19 "/>
</clipPath>
<clipPath id="clip-2">
<path clip-rule="nonzero" d="M 90 106 L 120 106 L 120 135.164062 L 90 135.164062 Z M 90 106 "/>
</clipPath>
<clipPath id="clip-3">
<path clip-rule="nonzero" d="M 92 118 L 118 118 L 118 135.164062 L 92 135.164062 Z M 92 118 "/>
</clipPath>
<clipPath id="clip-4">
<path clip-rule="nonzero" d="M 118 26 L 252.894531 26 L 252.894531 27 L 118 27 Z M 118 26 "/>
</clipPath>
<clipPath id="clip-5">
<path clip-rule="nonzero" d="M 248 24 L 252.894531 24 L 252.894531 29 L 248 29 Z M 248 24 "/>
</clipPath>
</defs>
<path fill="none" stroke-width="0.3985" stroke-linecap="butt" stroke-linejoin="miter" stroke="rgb(0%, 0%, 0%)" stroke-opacity="1" stroke-miterlimit="10" d="M 0.00122355 0.000846562 L 44.881059 0.000846562 M 44.881059 0.000846562 L 89.760894 0.000846562 " transform="matrix(0.993277, 0, 0, -0.993277, 2.213628, 26.51256)"/>
<g fill="rgb(0%, 0%, 0%)" fill-opacity="1">
<use xlink:href="#glyph-0-0" x="5.380197" y="23.345991"/>
<use xlink:href="#glyph-0-1" x="12.407111" y="23.345991"/>
</g>
<g clip-path="url(#clip-0)">
<path fill-rule="nonzero" fill="rgb(100%, 100%, 100%)" fill-opacity="1" d="M 3.789062 26.511719 C 3.789062 25.640625 3.085938 24.9375 2.214844 24.9375 C 1.34375 24.9375 0.636719 25.640625 0.636719 26.511719 C 0.636719 27.382812 1.34375 28.089844 2.214844 28.089844 C 3.085938 28.089844 3.789062 27.382812 3.789062 26.511719 Z M 3.789062 26.511719 "/>
</g>
<g clip-path="url(#clip-1)">
<path fill="none" stroke-width="0.3985" stroke-linecap="butt" stroke-linejoin="miter" stroke="rgb(0%, 0%, 0%)" stroke-opacity="1" stroke-miterlimit="10" d="M 1.586097 0.000846562 C 1.586097 0.877836 0.878213 1.58572 0.00122355 1.58572 C -0.875766 1.58572 -1.587582 0.877836 -1.587582 0.000846562 C -1.587582 -0.876143 -0.875766 -1.587959 0.00122355 -1.587959 C 0.878213 -1.587959 1.586097 -0.876143 1.586097 0.000846562 Z M 1.586097 0.000846562 " transform="matrix(0.993277, 0, 0, -0.993277, 2.213628, 26.51256)"/>
</g>
<path fill-rule="nonzero" fill="rgb(0%, 0%, 0%)" fill-opacity="1" d="M 87.183594 26.511719 L 87.183594 28.484375 L 91.371094 26.511719 L 87.183594 24.542969 Z M 87.183594 26.511719 "/>
<path fill="none" stroke-width="0.797" stroke-linecap="butt" stroke-linejoin="miter" stroke="rgb(0%, 0%, 0%)" stroke-opacity="1" stroke-miterlimit="10" d="M 89.760894 13.891101 L 117.541402 13.891101 L 117.541402 -13.889407 L 89.760894 -13.889407 Z M 89.760894 13.891101 " transform="matrix(0.993277, 0, 0, -0.993277, 2.213628, 26.51256)"/>
<path fill="none" stroke-width="0.3985" stroke-linecap="butt" stroke-linejoin="miter" stroke="rgb(0%, 0%, 0%)" stroke-opacity="1" stroke-miterlimit="10" d="M 113.372753 0.000846562 C 113.372753 5.368966 109.019268 9.722451 103.651148 9.722451 C 98.283029 9.722451 93.929544 5.368966 93.929544 0.000846562 C 93.929544 -5.371205 98.283029 -9.724691 103.651148 -9.724691 C 109.019268 -9.724691 113.372753 -5.371205 113.372753 0.000846562 Z M 113.372753 0.000846562 " transform="matrix(0.993277, 0, 0, -0.993277, 2.213628, 26.51256)"/>
<path fill="none" stroke-width="0.3985" stroke-linecap="butt" stroke-linejoin="miter" stroke="rgb(0%, 0%, 0%)" stroke-opacity="1" stroke-miterlimit="10" d="M 96.77681 6.875185 L 110.525487 -6.873492 M 110.525487 6.875185 L 96.77681 -6.873492 " transform="matrix(0.993277, 0, 0, -0.993277, 2.213628, 26.51256)"/>
<g fill="rgb(0%, 0%, 0%)" fill-opacity="1">
<use xlink:href="#glyph-0-2" x="93.419337" y="9.434148"/>
<use xlink:href="#glyph-0-3" x="101.443735" y="9.434148"/>
<use xlink:href="#glyph-0-4" x="104.097753" y="9.434148"/>
</g>
<g fill="rgb(0%, 0%, 0%)" fill-opacity="1">
<use xlink:href="#glyph-0-5" x="108.604241" y="9.434148"/>
<use xlink:href="#glyph-0-6" x="113.146353" y="9.434148"/>
</g>
<path fill="none" stroke-width="0.3985" stroke-linecap="butt" stroke-linejoin="miter" stroke="rgb(0%, 0%, 0%)" stroke-opacity="1" stroke-miterlimit="10" d="M 103.651148 -13.889407 L 103.651148 -47.549284 M 103.651148 -47.549284 L 103.651148 -81.209161 " transform="matrix(0.993277, 0, 0, -0.993277, 2.213628, 26.51256)"/>
<path fill-rule="nonzero" fill="rgb(0%, 0%, 0%)" fill-opacity="1" d="M 105.167969 44.496094 L 107.140625 44.496094 L 105.167969 40.308594 L 103.195312 44.496094 Z M 105.167969 44.496094 "/>
<g fill="rgb(0%, 0%, 0%)" fill-opacity="1">
<use xlink:href="#glyph-1-0" x="110.69541" y="75.857586"/>
</g>
<g fill="rgb(0%, 0%, 0%)" fill-opacity="1">
<use xlink:href="#glyph-2-0" x="114.445032" y="77.727927"/>
</g>
<g clip-path="url(#clip-2)">
<path fill="none" stroke-width="0.797" stroke-linecap="butt" stroke-linejoin="miter" stroke="rgb(0%, 0%, 0%)" stroke-opacity="1" stroke-miterlimit="10" d="M 89.760894 -81.209161 L 117.541402 -81.209161 L 117.541402 -108.989669 L 89.760894 -108.989669 Z M 89.760894 -81.209161 " transform="matrix(0.993277, 0, 0, -0.993277, 2.213628, 26.51256)"/>
</g>
<path fill="none" stroke-width="0.3985" stroke-linecap="butt" stroke-linejoin="miter" stroke="rgb(0%, 0%, 0%)" stroke-opacity="1" stroke-miterlimit="10" d="M 96.706021 -88.154288 C 97.838636 -86.376713 98.920125 -84.681724 100.178585 -84.681724 C 101.437045 -84.681724 102.518534 -86.376713 103.651148 -88.154288 C 104.783763 -89.931863 105.865252 -91.626851 107.123712 -91.626851 C 108.382172 -91.626851 109.463661 -89.931863 110.596275 -88.154288 " transform="matrix(0.993277, 0, 0, -0.993277, 2.213628, 26.51256)"/>
<path fill="none" stroke-width="0.3985" stroke-linecap="butt" stroke-linejoin="miter" stroke="rgb(0%, 0%, 0%)" stroke-opacity="1" stroke-miterlimit="10" d="M 96.706021 -95.099415 C 97.838636 -93.32184 98.920125 -91.626851 100.178585 -91.626851 C 101.437045 -91.626851 102.518534 -93.32184 103.651148 -95.099415 C 104.783763 -96.87699 105.865252 -98.571978 107.123712 -98.571978 C 108.382172 -98.571978 109.463661 -96.87699 110.596275 -95.099415 " transform="matrix(0.993277, 0, 0, -0.993277, 2.213628, 26.51256)"/>
<g clip-path="url(#clip-3)">
<path fill="none" stroke-width="0.3985" stroke-linecap="butt" stroke-linejoin="miter" stroke="rgb(0%, 0%, 0%)" stroke-opacity="1" stroke-miterlimit="10" d="M 96.706021 -102.044542 C 97.838636 -100.266967 98.920125 -98.571978 100.178585 -98.571978 C 101.437045 -98.571978 102.518534 -100.266967 103.651148 -102.044542 C 104.783763 -103.822117 105.865252 -105.517105 107.123712 -105.517105 C 108.382172 -105.517105 109.463661 -103.822117 110.596275 -102.044542 " transform="matrix(0.993277, 0, 0, -0.993277, 2.213628, 26.51256)"/>
</g>
<path fill="none" stroke-width="0.3985" stroke-linecap="butt" stroke-linejoin="miter" stroke="rgb(0%, 0%, 0%)" stroke-opacity="1" stroke-miterlimit="10" d="M 93.929544 -102.044542 L 110.828304 -86.353116 " transform="matrix(0.993277, 0, 0, -0.993277, 2.213628, 26.51256)"/>
<path fill-rule="nonzero" fill="rgb(0%, 0%, 0%)" fill-opacity="1" stroke-width="0.3985" stroke-linecap="butt" stroke-linejoin="miter" stroke="rgb(0%, 0%, 0%)" stroke-opacity="1" stroke-miterlimit="10" d="M 3.172638 -0.000823018 L 0.199268 1.761886 L 0.200515 0.000391882 L 0.199087 -1.763984 Z M 3.172638 -0.000823018 " transform="matrix(0.727844, -0.675846, -0.675846, -0.727844, 112.225415, 112.350647)"/>
<g fill="rgb(0%, 0%, 0%)" fill-opacity="1">
<use xlink:href="#glyph-0-7" x="122.129026" y="123.951083"/>
</g>
<g fill="rgb(0%, 0%, 0%)" fill-opacity="1">
<use xlink:href="#glyph-0-8" x="127.686434" y="123.951083"/>
<use xlink:href="#glyph-0-9" x="133.306184" y="123.951083"/>
</g>
<g clip-path="url(#clip-4)">
<path fill="none" stroke-width="0.3985" stroke-linecap="butt" stroke-linejoin="miter" stroke="rgb(0%, 0%, 0%)" stroke-opacity="1" stroke-miterlimit="10" d="M 117.541402 0.000846562 L 170.970902 0.000846562 M 198.75141 0.000846562 L 252.180909 0.000846562 " transform="matrix(0.993277, 0, 0, -0.993277, 2.213628, 26.51256)"/>
</g>
<path fill="none" stroke-width="0.797" stroke-linecap="butt" stroke-linejoin="miter" stroke="rgb(0%, 0%, 0%)" stroke-opacity="1" stroke-miterlimit="10" d="M 170.970902 13.891101 L 198.75141 13.891101 L 198.75141 -13.889407 L 170.970902 -13.889407 Z M 170.970902 13.891101 " transform="matrix(0.993277, 0, 0, -0.993277, 2.213628, 26.51256)"/>
<path fill-rule="nonzero" fill="rgb(0%, 0%, 0%)" fill-opacity="1" d="M 167.847656 26.511719 L 167.847656 28.484375 L 172.035156 26.511719 L 167.847656 24.542969 Z M 167.847656 26.511719 "/>
<path fill="none" stroke-width="0.3985" stroke-linecap="butt" stroke-linejoin="miter" stroke="rgb(0%, 0%, 0%)" stroke-opacity="1" stroke-miterlimit="10" d="M 177.916029 6.945974 C 179.048643 8.723549 180.134065 10.418537 181.388592 10.418537 C 182.647052 10.418537 183.728541 8.723549 184.861156 6.945974 C 185.99377 5.168399 187.075259 3.47341 188.333719 3.47341 C 189.592179 3.47341 190.673668 5.168399 191.806283 6.945974 M 186.94548 9.026366 L 182.776831 4.861649 " transform="matrix(0.993277, 0, 0, -0.993277, 2.213628, 26.51256)"/>
<path fill="none" stroke-width="0.3985" stroke-linecap="butt" stroke-linejoin="miter" stroke="rgb(0%, 0%, 0%)" stroke-opacity="1" stroke-miterlimit="10" d="M 177.916029 0.000846562 C 179.048643 1.778422 180.134065 3.47341 181.388592 3.47341 C 182.647052 3.47341 183.728541 1.778422 184.861156 0.000846562 C 185.99377 -1.776728 187.075259 -3.471717 188.333719 -3.471717 C 189.592179 -3.471717 190.673668 -1.776728 191.806283 0.000846562 " transform="matrix(0.993277, 0, 0, -0.993277, 2.213628, 26.51256)"/>
<path fill="none" stroke-width="0.3985" stroke-linecap="butt" stroke-linejoin="miter" stroke="rgb(0%, 0%, 0%)" stroke-opacity="1" stroke-miterlimit="10" d="M 177.916029 -6.94428 C 179.048643 -5.166705 180.134065 -3.471717 181.388592 -3.471717 C 182.647052 -3.471717 183.728541 -5.166705 184.861156 -6.94428 C 185.99377 -8.721855 187.075259 -10.416844 188.333719 -10.416844 C 189.592179 -10.416844 190.673668 -8.721855 191.806283 -6.94428 M 186.94548 -4.859956 L 182.776831 -9.028605 " transform="matrix(0.993277, 0, 0, -0.993277, 2.213628, 26.51256)"/>
<g clip-path="url(#clip-5)">
<path fill-rule="nonzero" fill="rgb(0%, 0%, 0%)" fill-opacity="1" d="M 248.511719 26.511719 L 248.511719 28.484375 L 252.699219 26.511719 L 248.511719 24.542969 Z M 248.511719 26.511719 "/>
</g>
<g fill="rgb(0%, 0%, 0%)" fill-opacity="1">
<use xlink:href="#glyph-0-10" x="241.071011" y="23.345991"/>
<use xlink:href="#glyph-0-1" x="244.375175" y="23.345991"/>
</g>
</svg>
