<?xml version="1.0" encoding="UTF-8"?>
<svg xmlns="http://www.w3.org/2000/svg" xmlns:xlink="http://www.w3.org/1999/xlink" width="255.118" height="183.13" viewBox="0 0 255.118 183.13">
<defs>
<g>
<g id="glyph-0-0">
<path d="M 0.5625 -5.375 L 0.5625 -5.015625 L 1.65625 -5.109375 L 1.65625 -1.875 C 1.65625 -1.421875 1.640625 -0.96875 1.625 -0.515625 L 0.5625 -0.328125 L 0.5625 0 L 3.5 0 L 3.5 -0.328125 L 2.421875 -0.515625 C 2.421875 -0.96875 2.40625 -1.421875 2.40625 -1.875 L 2.40625 -4.484375 L 2.4375 -5.75 L 2.3125 -5.84375 Z M 0.5625 -5.375 "/>
</g>
<g id="glyph-0-1">
<path d="M 1.203125 -2.875 C 1.203125 -4.953125 1.703125 -5.484375 2.234375 -5.484375 C 2.78125 -5.484375 3.265625 -4.953125 3.265625 -2.875 C 3.265625 -0.796875 2.78125 -0.28125 2.234375 -0.28125 C 1.703125 -0.28125 1.203125 -0.78125 1.203125 -2.875 Z M 2.25 -5.875 C 1.28125 -5.875 0.34375 -5.078125 0.34375 -2.875 C 0.34375 -0.65625 1.28125 0.109375 2.25 0.109375 C 3.203125 0.109375 4.125 -0.65625 4.125 -2.875 C 4.125 -5.078125 3.203125 -5.875 2.25 -5.875 Z M 2.25 -5.875 "/>
</g>
<g id="glyph-0-2">
<path d="M 0.21875 -6.1875 L 0.21875 -5.875 L 0.953125 -5.796875 L 0.953125 -1.875 C 0.953125 -1.40625 0.953125 -0.921875 0.9375 -0.453125 L 0.21875 -0.328125 L 0.21875 0 L 2.4375 0 L 2.4375 -0.328125 L 1.71875 -0.453125 C 1.71875 -0.828125 1.703125 -1.21875 1.703125 -1.609375 L 2.296875 -2.21875 L 3.671875 0 L 4.875 0 L 4.875 -0.328125 L 4.296875 -0.421875 L 2.828125 -2.75 L 3.8125 -3.765625 L 4.640625 -3.890625 L 4.640625 -4.234375 L 2.578125 -4.234375 L 2.578125 -3.890625 L 3.234375 -3.734375 L 1.703125 -2.140625 L 1.703125 -5.25 L 1.734375 -6.515625 L 1.609375 -6.59375 Z M 0.21875 -6.1875 "/>
</g>
<g id="glyph-0-3">
<path d="M 6 -4.359375 C 5.421875 -4.359375 4.828125 -4.078125 4.375 -3.515625 C 4.234375 -4.109375 3.875 -4.359375 3.3125 -4.359375 C 2.78125 -4.359375 2.1875 -4.03125 1.75 -3.546875 L 1.6875 -4.265625 L 1.546875 -4.359375 L 0.296875 -3.8125 L 0.296875 -3.5 L 1.015625 -3.421875 C 1.03125 -3.0625 1.03125 -2.796875 1.03125 -2.296875 L 1.03125 -1.875 C 1.03125 -1.46875 1.03125 -0.890625 1.015625 -0.453125 L 0.359375 -0.328125 L 0.359375 0 L 2.421875 0 L 2.421875 -0.328125 L 1.8125 -0.453125 C 1.796875 -0.890625 1.796875 -1.484375 1.796875 -1.875 L 1.796875 -3.171875 C 2.234375 -3.546875 2.5625 -3.71875 2.984375 -3.71875 C 3.5 -3.71875 3.71875 -3.4375 3.71875 -2.625 L 3.71875 -1.875 C 3.71875 -1.46875 3.703125 -0.890625 3.6875 -0.453125 L 3.03125 -0.328125 L 3.03125 0 L 5.109375 0 L 5.109375 -0.328125 L 4.484375 -0.453125 C 4.46875 -0.890625 4.453125 -1.46875 4.453125 -1.875 L 4.453125 -2.703125 C 4.453125 -2.859375 4.453125 -3.015625 4.4375 -3.15625 C 4.890625 -3.5625 5.265625 -3.71875 5.640625 -3.71875 C 6.15625 -3.71875 6.390625 -3.484375 6.390625 -2.65625 L 6.390625 -1.875 C 6.390625 -1.46875 6.375 -0.890625 6.375 -0.453125 L 5.703125 -0.328125 L 5.703125 0 L 7.78125 0 L 7.78125 -0.328125 L 7.15625 -0.453125 C 7.140625 -0.890625 7.140625 -1.46875 7.140625 -1.875 L 7.140625 -2.796875 C 7.140625 -3.90625 6.71875 -4.359375 6 -4.359375 Z M 6 -4.359375 "/>
</g>
<g id="glyph-0-4">
<path d="M 4.109375 -1.796875 C 4.109375 -2.984375 3.3125 -3.625 2.15625 -3.625 C 1.859375 -3.625 1.59375 -3.59375 1.328125 -3.515625 L 1.421875 -5.03125 L 3.953125 -5.03125 L 3.953125 -5.765625 L 1.03125 -5.765625 L 0.84375 -3.046875 L 1.09375 -2.984375 C 1.375 -3.046875 1.65625 -3.078125 1.921875 -3.078125 C 2.78125 -3.078125 3.3125 -2.59375 3.3125 -1.703125 C 3.3125 -0.84375 2.84375 -0.28125 1.96875 -0.28125 C 1.8125 -0.28125 1.640625 -0.296875 1.46875 -0.359375 L 1.34375 -0.84375 C 1.21875 -1.3125 1.09375 -1.453125 0.828125 -1.453125 C 0.609375 -1.453125 0.453125 -1.34375 0.359375 -1.140625 C 0.546875 -0.296875 1.125 0.109375 2.03125 0.109375 C 3.28125 0.109375 4.109375 -0.65625 4.109375 -1.796875 Z M 4.109375 -1.796875 "/>
</g>
<g id="glyph-0-5">
<path d="M 1.203125 -4.109375 C 1.203125 -5.015625 1.6875 -5.484375 2.28125 -5.484375 C 2.921875 -5.484375 3.359375 -4.859375 3.359375 -3.40625 C 3.359375 -3.328125 3.359375 -3.25 3.359375 -3.171875 C 3.078125 -2.9375 2.78125 -2.8125 2.375 -2.8125 C 1.71875 -2.8125 1.203125 -3.203125 1.203125 -4.109375 Z M 4.171875 -3.5625 C 4.171875 -4.984375 3.484375 -5.875 2.3125 -5.875 C 1.1875 -5.875 0.40625 -5.140625 0.40625 -4.03125 C 0.40625 -2.9375 1.1875 -2.28125 2.140625 -2.28125 C 2.609375 -2.28125 3 -2.421875 3.3125 -2.734375 C 3.15625 -1.484375 2.4375 -0.703125 0.828125 -0.15625 L 0.921875 0.171875 C 3.234375 -0.359375 4.171875 -1.859375 4.171875 -3.5625 Z M 4.171875 -3.5625 "/>
</g>
<g id="glyph-0-6">
<path d="M 1.453125 -3.25 L 1.453125 -2.8125 L 1.875 -2.8125 C 2.78125 -2.8125 3.234375 -2.34375 3.234375 -1.5625 C 3.234375 -0.765625 2.796875 -0.28125 1.921875 -0.28125 C 1.78125 -0.28125 1.609375 -0.296875 1.421875 -0.34375 L 1.296875 -0.796875 C 1.171875 -1.25 1.078125 -1.453125 0.78125 -1.453125 C 0.578125 -1.453125 0.421875 -1.359375 0.328125 -1.15625 C 0.484375 -0.265625 1.15625 0.109375 2.03125 0.109375 C 3.234375 0.109375 4.03125 -0.625 4.03125 -1.59375 C 4.03125 -2.328125 3.609375 -2.859375 2.6875 -3.046875 C 3.421875 -3.296875 3.859375 -3.84375 3.859375 -4.484375 C 3.859375 -5.3125 3.1875 -5.875 2.140625 -5.875 C 1.328125 -5.875 0.671875 -5.5 0.515625 -4.75 C 0.59375 -4.515625 0.765625 -4.4375 0.953125 -4.4375 C 1.25 -4.4375 1.359375 -4.625 1.46875 -5 L 1.578125 -5.4375 C 1.734375 -5.46875 1.875 -5.484375 1.984375 -5.484375 C 2.6875 -5.484375 3.078125 -5.109375 3.078125 -4.453125 C 3.078125 -3.6875 2.609375 -3.25 1.796875 -3.25 Z M 1.453125 -3.25 "/>
</g>
<g id="glyph-0-7">
<path d="M 0.5 0 L 4.171875 0 L 4.171875 -0.734375 L 1.171875 -0.734375 C 1.546875 -1.078125 1.90625 -1.40625 2.140625 -1.65625 C 3.515625 -2.96875 3.90625 -3.578125 3.90625 -4.359375 C 3.90625 -5.25 3.40625 -5.875 2.25 -5.875 C 1.359375 -5.875 0.546875 -5.4375 0.453125 -4.5 C 0.546875 -4.3125 0.71875 -4.21875 0.90625 -4.21875 C 1.15625 -4.21875 1.3125 -4.375 1.421875 -4.8125 L 1.59375 -5.4375 C 1.765625 -5.46875 1.921875 -5.484375 2.03125 -5.484375 C 2.6875 -5.484375 3.109375 -5.015625 3.109375 -4.28125 C 3.109375 -3.59375 2.703125 -2.859375 1.8125 -1.921875 C 1.421875 -1.515625 0.96875 -1.046875 0.5 -0.578125 Z M 0.5 0 "/>
</g>
<g id="glyph-0-8">
<path d="M 4.359375 -1.71875 L 4.359375 -2.28125 L 3.421875 -2.28125 L 3.421875 -5.828125 L 2.90625 -5.828125 L 0.265625 -2.1875 L 0.265625 -1.71875 L 2.6875 -1.71875 L 2.6875 0 L 3.421875 0 L 3.421875 -1.71875 Z M 0.796875 -2.28125 L 2.6875 -4.90625 L 2.6875 -2.28125 Z M 0.796875 -2.28125 "/>
</g>
<g id="glyph-0-9">
<path d="M 1.234375 -2.875 C 1.234375 -2 1.234375 -1.21875 1.21875 -0.46875 L 0.390625 -0.359375 L 0.390625 0 L 2.859375 0 C 4.59375 0 5.921875 -1.046875 5.921875 -2.984375 C 5.921875 -4.921875 4.734375 -5.96875 3.03125 -5.96875 L 0.390625 -5.96875 L 0.390625 -5.609375 L 1.21875 -5.5 C 1.234375 -4.734375 1.234375 -3.96875 1.234375 -3.203125 Z M 2.078125 -2.875 L 2.078125 -3.203125 C 2.078125 -4 2.078125 -4.796875 2.09375 -5.5625 L 2.875 -5.5625 C 4.171875 -5.5625 4.9375 -4.65625 4.9375 -2.984375 C 4.9375 -1.359375 4.171875 -0.421875 2.796875 -0.421875 L 2.09375 -0.421875 C 2.078125 -1.203125 2.078125 -2 2.078125 -2.875 Z M 2.078125 -2.875 "/>
</g>
<g id="glyph-0-10">
<path d="M 1.234375 -2.765625 C 1.234375 -1.984375 1.234375 -1.21875 1.21875 -0.46875 L 0.390625 -0.359375 L 0.390625 0 L 5.015625 0 L 5.078125 -1.59375 L 4.5625 -1.59375 L 4.375 -0.453125 L 2.09375 -0.453125 C 2.078125 -1.1875 2.078125 -1.9375 2.078125 -2.84375 L 3.40625 -2.84375 L 3.515625 -2 L 3.921875 -2 L 3.921875 -4.109375 L 3.515625 -4.109375 L 3.390625 -3.25 L 2.078125 -3.25 C 2.078125 -3.984375 2.078125 -4.765625 2.09375 -5.515625 L 4.1875 -5.515625 L 4.390625 -4.390625 L 4.890625 -4.390625 L 4.828125 -5.96875 L 0.390625 -5.96875 L 0.390625 -5.609375 L 1.21875 -5.5 C 1.234375 -4.734375 1.234375 -3.96875 1.234375 -3.203125 Z M 1.234375 -2.765625 "/>
</g>
<g id="glyph-0-11">
<path d="M 1.234375 -2.765625 C 1.234375 -1.984375 1.234375 -1.21875 1.21875 -0.46875 L 0.390625 -0.359375 L 0.390625 0 L 2.921875 0 L 2.921875 -0.359375 L 2.09375 -0.46875 C 2.078125 -1.203125 2.078125 -1.953125 2.078125 -2.84375 L 3.46875 -2.84375 L 3.59375 -1.90625 L 4 -1.90625 L 4 -4.109375 L 3.59375 -4.109375 L 3.46875 -3.25 L 2.078125 -3.25 C 2.078125 -3.984375 2.078125 -4.765625 2.09375 -5.515625 L 4.1875 -5.515625 L 4.390625 -4.390625 L 4.890625 -4.390625 L 4.828125 -5.96875 L 0.390625 -5.96875 L 0.390625 -5.609375 L 1.21875 -5.5 C 1.234375 -4.734375 1.234375 -3.96875 1.234375 -3.203125 Z M 1.234375 -2.765625 "/>
</g>
<g id="glyph-0-12">
<path d="M 2.859375 -5.5625 C 3.78125 -5.5625 4.171875 -5.140625 4.171875 -4.40625 C 4.171875 -3.6875 3.734375 -3.171875 2.765625 -3.171875 L 2.078125 -3.171875 C 2.078125 -4.015625 2.078125 -4.765625 2.09375 -5.5625 Z M 1.234375 -2.765625 C 1.234375 -1.984375 1.234375 -1.21875 1.21875 -0.46875 L 0.390625 -0.359375 L 0.390625 0 L 2.921875 0 L 2.921875 -0.359375 L 2.09375 -0.46875 C 2.078125 -1.171875 2.078125 -1.90625 2.078125 -2.765625 L 2.515625 -2.765625 C 3.234375 -2.765625 3.5625 -2.625 3.734375 -1.90625 L 4.09375 -0.484375 C 4.203125 -0.046875 4.453125 0.09375 5.015625 0.09375 C 5.296875 0.09375 5.5 0.046875 5.6875 0 L 5.6875 -0.359375 L 5 -0.453125 L 4.609375 -1.765625 C 4.40625 -2.46875 4.09375 -2.796875 3.5625 -2.90625 C 4.5625 -3.078125 5.0625 -3.71875 5.0625 -4.40625 C 5.0625 -5.390625 4.25 -5.96875 2.890625 -5.96875 L 0.390625 -5.96875 L 0.390625 -5.609375 L 1.21875 -5.5 C 1.234375 -4.734375 1.234375 -3.96875 1.234375 -3.203125 Z M 1.234375 -2.765625 "/>
</g>
<g id="glyph-0-13">
<path d="M 1.359375 -5.328125 C 1.6875 -5.328125 1.96875 -5.578125 1.96875 -5.90625 C 1.96875 -6.25 1.6875 -6.484375 1.359375 -6.484375 C 1.03125 -6.484375 0.765625 -6.25 0.765625 -5.90625 C 0.765625 -5.578125 1.03125 -5.328125 1.359375 -5.328125 Z M 2.375 -0.328125 L 1.75 -0.453125 C 1.75 -0.890625 1.734375 -1.484375 1.734375 -1.875 L 1.734375 -3.046875 L 1.765625 -4.265625 L 1.625 -4.359375 L 0.265625 -3.8125 L 0.265625 -3.5 L 0.96875 -3.421875 C 0.984375 -3.0625 1 -2.78125 1 -2.296875 L 1 -1.875 C 1 -1.484375 0.984375 -0.890625 0.984375 -0.453125 L 0.3125 -0.328125 L 0.3125 0 L 2.375 0 Z M 2.375 -0.328125 "/>
</g>
<g id="glyph-0-14">
<path d="M 0.328125 0 L 2.609375 0 L 2.609375 -0.328125 L 1.8125 -0.453125 C 1.8125 -0.921875 1.796875 -1.40625 1.796875 -1.875 L 1.796875 -3.765625 L 3.015625 -3.765625 L 3.015625 -4.234375 L 1.78125 -4.234375 C 1.75 -5.046875 1.859375 -5.546875 2.21875 -5.9375 C 2.359375 -6.109375 2.53125 -6.203125 2.734375 -6.296875 L 2.8125 -6.234375 C 3.125 -5.96875 3.46875 -5.8125 3.75 -5.796875 L 3.75 -1.875 C 3.75 -1.40625 3.75 -0.921875 3.734375 -0.453125 L 3.03125 -0.328125 L 3.03125 0 L 5.234375 0 L 5.234375 -0.328125 L 4.515625 -0.453125 C 4.515625 -0.921875 4.5 -1.40625 4.5 -1.875 L 4.5 -5.25 L 4.546875 -6.515625 L 4.421875 -6.59375 L 4.09375 -6.4375 C 3.875 -6.609375 3.515625 -6.6875 3.15625 -6.6875 C 2.75 -6.6875 2.265625 -6.578125 1.796875 -6.203125 C 1.296875 -5.765625 1.140625 -5.21875 1.046875 -4.25 L 0.296875 -4.15625 L 0.296875 -3.765625 L 1.046875 -3.765625 L 1.046875 -1.875 C 1.046875 -1.40625 1.03125 -0.921875 1.03125 -0.453125 L 0.328125 -0.328125 Z M 0.328125 0 "/>
</g>
<g id="glyph-0-15">
<path d="M 2.40625 -3.9375 C 2.953125 -3.9375 3.375 -3.484375 3.375 -2.984375 C 3.375 -2.71875 3.28125 -2.515625 2.84375 -2.515625 L 1.21875 -2.515625 C 1.328125 -3.546875 1.90625 -3.9375 2.40625 -3.9375 Z M 2.453125 -4.359375 C 1.34375 -4.359375 0.40625 -3.4375 0.40625 -2.078125 C 0.40625 -0.71875 1.1875 0.109375 2.390625 0.109375 C 3.203125 0.109375 3.78125 -0.28125 4.109375 -0.921875 L 3.890625 -1.09375 C 3.5625 -0.71875 3.21875 -0.46875 2.65625 -0.46875 C 1.796875 -0.46875 1.21875 -1.046875 1.203125 -2.140625 L 4.046875 -2.140625 C 4.09375 -2.25 4.109375 -2.4375 4.109375 -2.640625 C 4.109375 -3.71875 3.375 -4.359375 2.453125 -4.359375 Z M 2.453125 -4.359375 "/>
</g>
<g id="glyph-0-16">
<path d="M 1.78125 0.109375 C 2.9375 0.109375 3.53125 -0.484375 3.53125 -1.15625 C 3.53125 -1.71875 3.1875 -2.140625 2.296875 -2.46875 L 2.015625 -2.5625 C 1.40625 -2.796875 1.203125 -2.9375 1.203125 -3.34375 C 1.203125 -3.703125 1.484375 -3.9375 2.03125 -3.9375 C 2.234375 -3.9375 2.4375 -3.890625 2.640625 -3.796875 L 2.78125 -3.078125 L 3.25 -3.078125 L 3.28125 -3.984375 C 2.90625 -4.21875 2.515625 -4.359375 2.03125 -4.359375 C 1.03125 -4.359375 0.484375 -3.75 0.484375 -3.09375 C 0.484375 -2.484375 0.90625 -2.125 1.5625 -1.890625 L 1.96875 -1.734375 C 2.53125 -1.546875 2.796875 -1.34375 2.796875 -0.96875 C 2.796875 -0.5625 2.484375 -0.28125 1.796875 -0.28125 C 1.53125 -0.28125 1.296875 -0.328125 1.078125 -0.421875 L 0.90625 -1.203125 L 0.421875 -1.203125 L 0.453125 -0.21875 C 0.890625 0 1.28125 0.109375 1.78125 0.109375 Z M 1.78125 0.109375 "/>
</g>
<g id="glyph-0-17">
<path d="M 2.4375 0.109375 C 3.484375 0.109375 4.5 -0.625 4.5 -2.09375 C 4.5 -3.578125 3.46875 -4.359375 2.4375 -4.359375 C 1.40625 -4.359375 0.40625 -3.578125 0.40625 -2.09375 C 0.40625 -0.625 1.40625 0.109375 2.4375 0.109375 Z M 2.4375 -0.28125 C 1.671875 -0.28125 1.25 -0.90625 1.25 -2.09375 C 1.25 -3.296875 1.671875 -3.9375 2.4375 -3.9375 C 3.21875 -3.9375 3.65625 -3.296875 3.65625 -2.09375 C 3.65625 -0.90625 3.21875 -0.28125 2.4375 -0.28125 Z M 2.4375 -0.28125 "/>
</g>
<g id="glyph-0-18">
<path d="M 3.359375 -4.359375 C 2.796875 -4.359375 2.1875 -4.03125 1.75 -3.546875 L 1.6875 -4.265625 L 1.546875 -4.359375 L 0.296875 -3.8125 L 0.296875 -3.5 L 1.015625 -3.421875 C 1.03125 -3.0625 1.03125 -2.796875 1.03125 -2.296875 L 1.03125 -1.875 C 1.03125 -1.46875 1.03125 -0.890625 1.015625 -0.453125 L 0.359375 -0.328125 L 0.359375 0 L 2.421875 0 L 2.421875 -0.328125 L 1.8125 -0.453125 C 1.796875 -0.890625 1.796875 -1.484375 1.796875 -1.875 L 1.796875 -3.171875 C 2.25 -3.546875 2.59375 -3.71875 3 -3.71875 C 3.53125 -3.71875 3.75 -3.453125 3.75 -2.625 L 3.75 -1.875 C 3.75 -1.46875 3.734375 -0.890625 3.734375 -0.453125 L 3.0625 -0.328125 L 3.0625 0 L 5.140625 0 L 5.140625 -0.328125 L 4.515625 -0.453125 C 4.5 -0.890625 4.5 -1.46875 4.5 -1.875 L 4.5 -2.703125 C 4.5 -3.875 4.125 -4.359375 3.359375 -4.359375 Z M 3.359375 -4.359375 "/>
</g>
<g id="glyph-0-19">
<path d="M 3.71875 0.09375 C 4.03125 0.09375 4.28125 -0.03125 4.484375 -0.375 L 4.3125 -0.578125 C 4.21875 -0.453125 4.109375 -0.375 3.96875 -0.375 C 3.765625 -0.375 3.640625 -0.515625 3.640625 -0.90625 L 3.640625 -2.796875 C 3.640625 -3.921875 3.1875 -4.359375 2.25 -4.359375 C 1.34375 -4.359375 0.6875 -3.921875 0.515625 -3.25 C 0.546875 -3.015625 0.6875 -2.875 0.9375 -2.875 C 1.171875 -2.875 1.328125 -3.03125 1.40625 -3.3125 L 1.5625 -3.890625 C 1.75 -3.9375 1.921875 -3.9375 2.046875 -3.9375 C 2.640625 -3.9375 2.890625 -3.734375 2.890625 -2.859375 L 2.890625 -2.640625 C 2.53125 -2.5625 2.15625 -2.4375 1.875 -2.34375 C 0.671875 -1.90625 0.40625 -1.5 0.40625 -1 C 0.40625 -0.265625 0.953125 0.109375 1.59375 0.109375 C 2.125 0.109375 2.421875 -0.109375 2.90625 -0.59375 C 2.984375 -0.171875 3.28125 0.09375 3.71875 0.09375 Z M 1.203125 -1.140625 C 1.203125 -1.40625 1.296875 -1.734375 2.0625 -2.046875 C 2.25 -2.109375 2.578125 -2.21875 2.890625 -2.3125 L 2.890625 -0.9375 C 2.375 -0.578125 2.21875 -0.46875 1.90625 -0.46875 C 1.5 -0.46875 1.203125 -0.65625 1.203125 -1.140625 Z M 1.203125 -1.140625 "/>
</g>
<g id="glyph-0-20">
<path d="M 4 -2.0625 C 4 -0.90625 3.453125 -0.390625 2.78125 -0.390625 C 2.453125 -0.390625 2.125 -0.53125 1.796875 -0.84375 L 1.796875 -3.359375 C 2.25 -3.734375 2.609375 -3.84375 2.875 -3.84375 C 3.53125 -3.84375 4 -3.203125 4 -2.0625 Z M 1.046875 0.25 C 1.046875 0.734375 1.03125 1.203125 1.03125 1.6875 L 0.3125 1.8125 L 0.3125 2.125 L 2.609375 2.125 L 2.609375 1.8125 L 1.796875 1.6875 C 1.78125 1.203125 1.78125 0.71875 1.78125 0.234375 L 1.78125 -0.46875 C 2.15625 -0.03125 2.546875 0.109375 2.96875 0.109375 C 4 0.109375 4.796875 -0.765625 4.796875 -2.125 C 4.796875 -3.515625 4.046875 -4.359375 3.09375 -4.359375 C 2.625 -4.359375 2.171875 -4.15625 1.75 -3.6875 L 1.6875 -4.265625 L 1.5625 -4.359375 L 0.3125 -3.8125 L 0.3125 -3.5 L 1.015625 -3.421875 C 1.03125 -3.0625 1.046875 -2.796875 1.046875 -2.296875 Z M 1.046875 0.25 "/>
</g>
<g id="glyph-0-21">
<path d="M 0.375 0 L 2.546875 0 L 2.546875 -0.328125 L 1.8125 -0.453125 C 1.796875 -0.90625 1.796875 -1.484375 1.796875 -1.875 L 1.796875 -2.546875 C 1.9375 -3.046875 2.171875 -3.421875 2.53125 -3.6875 L 2.640625 -3.59375 C 2.8125 -3.453125 2.984375 -3.375 3.1875 -3.375 C 3.546875 -3.375 3.71875 -3.609375 3.71875 -4.03125 C 3.609375 -4.21875 3.34375 -4.359375 3.0625 -4.359375 C 2.59375 -4.359375 2.078125 -3.921875 1.78125 -3.21875 L 1.6875 -4.265625 L 1.546875 -4.359375 L 0.296875 -3.8125 L 0.296875 -3.5 L 1.015625 -3.421875 C 1.03125 -3.0625 1.03125 -2.796875 1.03125 -2.296875 L 1.03125 -1.875 C 1.03125 -1.46875 1.03125 -0.890625 1.015625 -0.4375 L 0.375 -0.328125 Z M 0.375 0 "/>
</g>
<g id="glyph-0-22">
<path d="M 1.578125 -1 L 1.578125 -3.765625 L 2.796875 -3.765625 L 2.796875 -4.234375 L 1.59375 -4.234375 L 1.640625 -5.453125 L 1.109375 -5.453125 L 0.875 -4.25 L 0.078125 -4.15625 L 0.078125 -3.765625 L 0.828125 -3.765625 L 0.828125 -1.65625 C 0.828125 -1.3125 0.8125 -1.125 0.8125 -0.90625 C 0.8125 -0.203125 1.203125 0.109375 1.828125 0.109375 C 2.28125 0.109375 2.65625 -0.046875 2.875 -0.359375 L 2.671875 -0.59375 C 2.4375 -0.421875 2.265625 -0.34375 2.0625 -0.34375 C 1.765625 -0.34375 1.578125 -0.546875 1.578125 -1 Z M 1.578125 -1 "/>
</g>
<g id="glyph-0-23">
<path d="M 0.8125 -4.375 L 1.046875 -5.515625 L 3.5625 -5.515625 L 0.171875 -0.328125 L 0.171875 0 L 4.671875 0 L 4.734375 -1.59375 L 4.1875 -1.59375 L 3.953125 -0.453125 L 1.171875 -0.453125 L 4.546875 -5.65625 L 4.546875 -5.96875 L 0.34375 -5.96875 L 0.265625 -4.375 Z M 0.8125 -4.375 "/>
</g>
<g id="glyph-1-0">
<path d="M 2.0625 -0.875 L 2.0625 -3.34375 C 2.0625 -3.78125 2.0625 -4.21875 2.078125 -4.3125 C 2.078125 -4.34375 2.0625 -4.34375 2.03125 -4.34375 C 1.640625 -4.09375 1.265625 -3.921875 0.640625 -3.625 C 0.65625 -3.546875 0.671875 -3.484375 0.75 -3.4375 C 1.078125 -3.578125 1.234375 -3.609375 1.359375 -3.609375 C 1.484375 -3.609375 1.5 -3.4375 1.5 -3.203125 L 1.5 -0.875 C 1.5 -0.28125 1.3125 -0.25 0.8125 -0.21875 C 0.765625 -0.171875 0.765625 -0.03125 0.8125 0.015625 C 1.15625 0 1.421875 0 1.8125 0 C 2.15625 0 2.328125 0 2.671875 0.015625 C 2.71875 -0.03125 2.71875 -0.171875 2.671875 -0.21875 C 2.171875 -0.25 2.0625 -0.28125 2.0625 -0.875 Z M 2.0625 -0.875 "/>
</g>
<g id="glyph-1-1">
<path d="M 0.4375 -3.34375 C 0.4375 -3.1875 0.578125 -3.0625 0.71875 -3.0625 C 0.84375 -3.0625 1.0625 -3.1875 1.0625 -3.34375 C 1.0625 -3.40625 1.046875 -3.453125 1.03125 -3.5 C 1.015625 -3.546875 0.96875 -3.609375 0.96875 -3.671875 C 0.96875 -3.84375 1.15625 -4.109375 1.671875 -4.109375 C 1.9375 -4.109375 2.296875 -3.921875 2.296875 -3.234375 C 2.296875 -2.78125 2.140625 -2.40625 1.71875 -1.984375 L 1.1875 -1.46875 C 0.484375 -0.75 0.375 -0.40625 0.375 0.015625 C 0.375 0.015625 0.734375 0 0.96875 0 L 2.21875 0 C 2.4375 0 2.765625 0.015625 2.765625 0.015625 C 2.859375 -0.359375 2.9375 -0.90625 2.9375 -1.109375 C 2.90625 -1.15625 2.8125 -1.15625 2.734375 -1.15625 C 2.609375 -0.640625 2.484375 -0.46875 2.234375 -0.46875 L 0.96875 -0.46875 C 0.96875 -0.8125 1.453125 -1.296875 1.5 -1.328125 L 2.21875 -2.015625 C 2.625 -2.40625 2.921875 -2.734375 2.921875 -3.265625 C 2.921875 -4.046875 2.296875 -4.359375 1.71875 -4.359375 C 0.921875 -4.359375 0.4375 -3.765625 0.4375 -3.34375 Z M 0.4375 -3.34375 "/>
</g>
<g id="glyph-2-0">
<path d="M 0.6875 -3.21875 C 0.390625 -4.53125 0.609375 -5.953125 1.8125 -6.21875 C 3.03125 -6.5 3.8125 -5.328125 4.109375 -4.015625 C 4.40625 -2.703125 4.234375 -1.28125 3.015625 -1 C 1.8125 -0.734375 0.984375 -1.90625 0.6875 -3.21875 Z M 1.703125 -6.65625 C 0.359375 -6.359375 -0.703125 -4.90625 -0.265625 -3 C 0.1875 -1.015625 1.75 -0.25 3.109375 -0.5625 C 4.46875 -0.875 5.5 -2.328125 5.0625 -4.234375 C 4.609375 -6.21875 3.046875 -6.96875 1.703125 -6.65625 Z M 1.703125 -6.65625 "/>
</g>
<g id="glyph-2-1">
<path d="M 2.28125 -5 C 1.734375 -4.875 1.21875 -4.40625 0.90625 -3.84375 L 0.6875 -4.53125 L 0.515625 -4.59375 L -0.5625 -3.78125 L -0.484375 -3.46875 L 0.21875 -3.5625 C 0.3125 -3.21875 0.375 -2.953125 0.484375 -2.46875 L 0.578125 -2.0625 C 0.671875 -1.671875 0.796875 -1.109375 0.875 -0.671875 L 0.265625 -0.390625 L 0.34375 -0.078125 L 2.359375 -0.546875 L 2.28125 -0.859375 L 1.65625 -0.84375 C 1.546875 -1.28125 1.421875 -1.859375 1.328125 -2.234375 L 1.03125 -3.5 C 1.390625 -3.953125 1.6875 -4.203125 2.078125 -4.296875 C 2.59375 -4.421875 2.875 -4.203125 3.0625 -3.40625 L 3.234375 -2.671875 C 3.328125 -2.28125 3.4375 -1.71875 3.53125 -1.28125 L 2.90625 -1 L 2.984375 -0.6875 L 5.015625 -1.15625 L 4.9375 -1.46875 L 4.296875 -1.453125 C 4.1875 -1.890625 4.0625 -2.453125 3.96875 -2.84375 L 3.78125 -3.65625 C 3.515625 -4.796875 3.03125 -5.171875 2.28125 -5 Z M 2.28125 -5 "/>
</g>
<g id="glyph-2-2">
<path d="M 0.703125 -2.3125 C 0.421875 -3.5 0.875 -4.15625 1.515625 -4.296875 C 1.8125 -4.359375 2.109375 -4.328125 2.578125 -4.046875 L 3.140625 -1.65625 C 2.90625 -1.21875 2.671875 -1.015625 2.28125 -0.921875 C 1.59375 -0.765625 0.96875 -1.15625 0.703125 -2.3125 Z M 4.796875 -1.109375 L 4.71875 -1.421875 L 3.984375 -1.34375 L 2.890625 -6.046875 L 2.65625 -7.296875 L 2.515625 -7.34375 L 1.265625 -6.640625 L 1.328125 -6.328125 L 2.078125 -6.421875 L 2.53125 -4.46875 C 2.078125 -4.796875 1.6875 -4.859375 1.25 -4.765625 C 0.203125 -4.53125 -0.375 -3.4375 -0.078125 -2.125 C 0.21875 -0.859375 1.140625 -0.140625 2.1875 -0.390625 C 2.734375 -0.515625 3.046875 -0.8125 3.25 -1.296875 L 3.453125 -0.703125 Z M 4.796875 -1.109375 "/>
</g>
<g id="glyph-2-3">
<path d="M 3.640625 -0.75 C 3.9375 -0.8125 4.171875 -1 4.296875 -1.375 L 4.078125 -1.53125 C 4 -1.390625 3.921875 -1.28125 3.78125 -1.25 C 3.59375 -1.203125 3.4375 -1.3125 3.34375 -1.703125 L 2.921875 -3.53125 C 2.671875 -4.640625 2.125 -4.96875 1.203125 -4.75 C 0.328125 -4.546875 -0.203125 -3.984375 -0.234375 -3.28125 C -0.140625 -3.0625 0.03125 -2.953125 0.265625 -3 C 0.5 -3.0625 0.609375 -3.25 0.625 -3.546875 L 0.640625 -4.140625 C 0.8125 -4.234375 0.984375 -4.28125 1.109375 -4.296875 C 1.6875 -4.4375 1.96875 -4.296875 2.171875 -3.4375 L 2.21875 -3.234375 C 1.890625 -3.0625 1.546875 -2.859375 1.296875 -2.703125 C 0.234375 -2.015625 0.046875 -1.5625 0.171875 -1.0625 C 0.328125 -0.359375 0.953125 -0.109375 1.578125 -0.25 C 2.109375 -0.375 2.328125 -0.65625 2.6875 -1.234375 C 2.875 -0.84375 3.21875 -0.640625 3.640625 -0.75 Z M 0.921875 -1.375 C 0.859375 -1.640625 0.875 -1.984375 1.5625 -2.46875 C 1.71875 -2.5625 2.015625 -2.734375 2.296875 -2.90625 L 2.609375 -1.5625 C 2.1875 -1.09375 2.046875 -0.953125 1.75 -0.875 C 1.359375 -0.796875 1.03125 -0.90625 0.921875 -1.375 Z M 0.921875 -1.375 "/>
</g>
<g id="glyph-2-4">
<path d="M 0.125 -5.5 C 0.4375 -5.5625 0.671875 -5.875 0.59375 -6.1875 C 0.515625 -6.53125 0.1875 -6.6875 -0.125 -6.625 C -0.453125 -6.546875 -0.65625 -6.265625 -0.578125 -5.921875 C -0.5 -5.609375 -0.203125 -5.421875 0.125 -5.5 Z M 2.234375 -0.84375 L 1.59375 -0.828125 C 1.5 -1.265625 1.359375 -1.84375 1.265625 -2.21875 L 1 -3.359375 L 0.765625 -4.546875 L 0.59375 -4.609375 L -0.59375 -3.78125 L -0.515625 -3.46875 L 0.171875 -3.546875 C 0.265625 -3.203125 0.34375 -2.921875 0.453125 -2.453125 L 0.546875 -2.046875 C 0.640625 -1.671875 0.75 -1.09375 0.84375 -0.65625 L 0.21875 -0.375 L 0.296875 -0.0625 L 2.3125 -0.53125 Z M 2.234375 -0.84375 "/>
</g>
<g id="glyph-2-5">
<path d="M 1.3125 -1.328125 L 0.6875 -4.03125 L 1.875 -4.296875 L 1.765625 -4.75 L 0.59375 -4.484375 L 0.359375 -5.6875 L -0.15625 -5.5625 L -0.09375 -4.34375 L -0.859375 -4.0625 L -0.765625 -3.6875 L -0.03125 -3.859375 L 0.4375 -1.796875 C 0.515625 -1.46875 0.546875 -1.28125 0.59375 -1.078125 C 0.75 -0.390625 1.203125 -0.15625 1.8125 -0.296875 C 2.25 -0.40625 2.578125 -0.640625 2.71875 -0.984375 L 2.46875 -1.171875 C 2.28125 -0.953125 2.125 -0.84375 1.9375 -0.796875 C 1.640625 -0.71875 1.40625 -0.890625 1.3125 -1.328125 Z M 1.3125 -1.328125 "/>
</g>
<g id="glyph-2-6">
<path d="M 1.453125 -4.390625 C 1.984375 -4.515625 2.5 -4.15625 2.609375 -3.671875 C 2.671875 -3.421875 2.640625 -3.1875 2.203125 -3.09375 L 0.625 -2.734375 C 0.5 -3.75 0.96875 -4.265625 1.453125 -4.390625 Z M 1.40625 -4.796875 C 0.328125 -4.546875 -0.375 -3.4375 -0.078125 -2.125 C 0.234375 -0.796875 1.1875 -0.15625 2.359375 -0.421875 C 3.15625 -0.609375 3.625 -1.125 3.796875 -1.8125 L 3.546875 -1.9375 C 3.3125 -1.5 3.03125 -1.171875 2.484375 -1.046875 C 1.640625 -0.859375 0.953125 -1.296875 0.6875 -2.34375 L 3.453125 -2.984375 C 3.484375 -3.109375 3.453125 -3.296875 3.40625 -3.5 C 3.15625 -4.546875 2.296875 -5.015625 1.40625 -4.796875 Z M 1.40625 -4.796875 "/>
</g>
<g id="glyph-2-7">
<path d="M 0.359375 -0.078125 L 2.484375 -0.578125 L 2.40625 -0.890625 L 1.65625 -0.84375 C 1.546875 -1.296875 1.421875 -1.859375 1.328125 -2.234375 L 1.171875 -2.890625 C 1.203125 -3.40625 1.34375 -3.8125 1.640625 -4.15625 L 1.765625 -4.09375 C 1.953125 -3.984375 2.140625 -3.953125 2.34375 -4 C 2.6875 -4.078125 2.8125 -4.359375 2.71875 -4.765625 C 2.5625 -4.921875 2.28125 -5 2 -4.9375 C 1.546875 -4.828125 1.15625 -4.296875 1.015625 -3.546875 L 0.6875 -4.53125 L 0.515625 -4.59375 L -0.5625 -3.78125 L -0.484375 -3.46875 L 0.21875 -3.5625 C 0.3125 -3.21875 0.375 -2.953125 0.484375 -2.46875 L 0.578125 -2.0625 C 0.671875 -1.671875 0.796875 -1.109375 0.890625 -0.65625 L 0.28125 -0.390625 Z M 0.359375 -0.078125 "/>
</g>
<g id="glyph-3-0">
<path d="M 2.828125 -5.34375 C 3.5625 -5.34375 3.953125 -5 3.953125 -4.28125 C 3.953125 -3.71875 3.671875 -3.1875 2.796875 -3.1875 L 2.453125 -3.1875 C 2.453125 -3.859375 2.453125 -4.609375 2.46875 -5.34375 Z M 0.984375 -2.765625 C 0.984375 -2.015625 0.984375 -1.28125 0.96875 -0.546875 L 0.296875 -0.484375 L 0.296875 0 L 3.171875 0 L 3.171875 -0.484375 L 2.46875 -0.546875 C 2.453125 -1.234375 2.453125 -1.921875 2.453125 -2.6875 L 2.78125 -2.6875 C 3.3125 -2.6875 3.53125 -2.421875 3.625 -1.8125 L 3.78125 -0.78125 C 3.875 -0.09375 4.3125 0.125 5.078125 0.125 C 5.484375 0.125 5.625 0.09375 6.0625 0 L 6.0625 -0.484375 L 5.375 -0.546875 L 5.203125 -1.546875 C 5.078125 -2.375 4.796875 -2.84375 3.78125 -2.96875 C 4.984375 -3.15625 5.375 -3.78125 5.375 -4.375 C 5.375 -5.3125 4.59375 -5.859375 3.1875 -5.859375 L 0.296875 -5.859375 L 0.296875 -5.375 L 0.96875 -5.3125 C 0.984375 -4.578125 0.984375 -3.828125 0.984375 -3.09375 Z M 0.984375 -2.765625 "/>
</g>
<g id="glyph-3-1">
<path d="M 1.453125 -5.109375 C 1.875 -5.109375 2.21875 -5.40625 2.21875 -5.8125 C 2.21875 -6.234375 1.875 -6.53125 1.453125 -6.53125 C 1.03125 -6.53125 0.703125 -6.234375 0.703125 -5.8125 C 0.703125 -5.40625 1.03125 -5.109375 1.453125 -5.109375 Z M 2.625 -0.421875 L 2.1875 -0.515625 C 2.171875 -0.953125 2.171875 -1.5 2.171875 -1.875 L 2.171875 -3.0625 L 2.203125 -4.359375 L 2.046875 -4.453125 L 0.171875 -3.859375 L 0.171875 -3.5 L 0.734375 -3.421875 C 0.75 -3.0625 0.765625 -2.796875 0.765625 -2.296875 L 0.765625 -1.875 C 0.765625 -1.5 0.765625 -0.953125 0.75 -0.53125 L 0.265625 -0.421875 L 0.265625 0 L 2.625 0 Z M 2.625 -0.421875 "/>
</g>
<g id="glyph-3-2">
<path d="M 0.78125 -1.875 C 0.78125 -1.421875 0.765625 -0.96875 0.765625 -0.515625 L 0.265625 -0.421875 L 0.265625 0 L 2.890625 0 L 2.890625 -0.421875 L 2.203125 -0.5625 C 2.1875 -1 2.1875 -1.4375 2.1875 -1.875 L 2.1875 -3.703125 L 3.125 -3.703125 L 3.125 -4.3125 L 2.171875 -4.3125 C 2.15625 -5.046875 2.21875 -5.53125 2.421875 -5.890625 C 2.46875 -5.953125 2.515625 -6.015625 2.578125 -6.078125 L 2.65625 -5.96875 C 2.90625 -5.515625 3.15625 -5.328125 3.453125 -5.328125 C 3.859375 -5.328125 4.09375 -5.59375 4.09375 -5.9375 C 3.984375 -6.40625 3.53125 -6.5625 3.03125 -6.5625 C 2.515625 -6.5625 2 -6.421875 1.53125 -5.984375 C 1.203125 -5.65625 0.90625 -5.203125 0.796875 -4.296875 L 0.203125 -4.234375 L 0.203125 -3.703125 L 0.78125 -3.703125 Z M 0.78125 -1.875 "/>
</g>
<g id="glyph-3-3">
<path d="M 0.234375 0 L 2.875 0 L 2.875 -0.421875 L 2.171875 -0.578125 C 2.171875 -0.984375 2.171875 -1.5 2.171875 -1.875 L 2.171875 -2.484375 C 2.25 -2.890625 2.5 -3.296875 2.765625 -3.546875 L 2.8125 -3.484375 C 3.03125 -3.1875 3.234375 -3.0625 3.5 -3.0625 C 3.859375 -3.0625 4.125 -3.328125 4.140625 -3.796875 C 4.0625 -4.234375 3.75 -4.453125 3.359375 -4.453125 C 2.921875 -4.453125 2.40625 -4.0625 2.171875 -3.296875 L 2.09375 -4.359375 L 1.921875 -4.453125 L 0.171875 -3.859375 L 0.171875 -3.5 L 0.71875 -3.421875 C 0.734375 -3.0625 0.734375 -2.890625 0.734375 -2.40625 L 0.734375 -1.875 C 0.734375 -1.5 0.734375 -0.953125 0.734375 -0.515625 L 0.234375 -0.421875 Z M 0.234375 0 "/>
</g>
<g id="glyph-3-4">
<path d="M 3.703125 0.125 C 4.234375 0.125 4.5625 -0.0625 4.765625 -0.546875 L 4.53125 -0.703125 C 4.4375 -0.546875 4.359375 -0.515625 4.265625 -0.515625 C 4.140625 -0.515625 4.0625 -0.59375 4.0625 -0.765625 L 4.0625 -2.765625 C 4.0625 -3.96875 3.609375 -4.453125 2.46875 -4.453125 C 1.1875 -4.453125 0.46875 -3.9375 0.421875 -3.203125 C 0.484375 -2.90625 0.703125 -2.75 1.015625 -2.75 C 1.359375 -2.75 1.65625 -3 1.671875 -3.59375 L 1.71875 -3.984375 C 1.796875 -3.984375 1.875 -3.984375 1.953125 -3.984375 C 2.53125 -3.984375 2.671875 -3.75 2.671875 -2.96875 L 2.671875 -2.671875 C 2.421875 -2.609375 2.171875 -2.546875 2 -2.484375 C 0.625 -2.09375 0.28125 -1.640625 0.28125 -1.015625 C 0.28125 -0.265625 0.765625 0.140625 1.453125 0.140625 C 2.0625 0.140625 2.34375 -0.109375 2.71875 -0.515625 C 2.859375 -0.109375 3.1875 0.125 3.703125 0.125 Z M 1.59375 -1.234375 C 1.59375 -1.65625 1.859375 -1.96875 2.25 -2.125 C 2.359375 -2.171875 2.515625 -2.234375 2.671875 -2.28125 L 2.671875 -0.828125 C 2.4375 -0.65625 2.296875 -0.59375 2.125 -0.59375 C 1.828125 -0.59375 1.59375 -0.796875 1.59375 -1.234375 Z M 1.59375 -1.234375 "/>
</g>
<g id="glyph-3-5">
<path d="M 0.28125 -4.3125 L 0.21875 -2.953125 L 0.9375 -2.921875 L 1.171875 -3.90625 L 2.390625 -3.90625 L 0.15625 -0.34375 L 0.15625 0 L 3.921875 0 L 4.015625 -1.484375 L 3.296875 -1.484375 L 3.03125 -0.40625 L 1.765625 -0.40625 L 3.921875 -3.96875 L 3.921875 -4.3125 Z M 0.28125 -4.3125 "/>
</g>
<g id="glyph-3-6">
<path d="M 2.53125 0.140625 C 3.90625 0.140625 4.796875 -0.78125 4.796875 -2.171875 C 4.796875 -3.5625 3.796875 -4.453125 2.53125 -4.453125 C 1.25 -4.453125 0.265625 -3.546875 0.265625 -2.171875 C 0.265625 -0.796875 1.140625 0.140625 2.53125 0.140625 Z M 2.53125 -0.328125 C 2.015625 -0.328125 1.765625 -0.890625 1.765625 -2.15625 C 1.765625 -3.421875 2.015625 -3.984375 2.53125 -3.984375 C 3.03125 -3.984375 3.28125 -3.421875 3.28125 -2.15625 C 3.28125 -0.890625 3.03125 -0.328125 2.53125 -0.328125 Z M 2.53125 -0.328125 "/>
</g>
<g id="glyph-3-7">
<path d="M 3.5625 -4.453125 C 3.046875 -4.453125 2.609375 -4.25 2.140625 -3.71875 L 2.09375 -4.359375 L 1.921875 -4.453125 L 0.171875 -3.859375 L 0.171875 -3.5 L 0.71875 -3.421875 C 0.734375 -3.0625 0.734375 -2.875 0.734375 -2.390625 L 0.734375 -1.875 C 0.734375 -1.5 0.734375 -0.953125 0.734375 -0.53125 L 0.25 -0.421875 L 0.25 0 L 2.59375 0 L 2.59375 -0.421875 L 2.171875 -0.515625 C 2.171875 -0.953125 2.171875 -1.5 2.171875 -1.875 L 2.171875 -3.25 C 2.4375 -3.46875 2.71875 -3.59375 2.9375 -3.59375 C 3.28125 -3.59375 3.421875 -3.375 3.421875 -2.8125 L 3.421875 -1.875 C 3.421875 -1.484375 3.421875 -0.953125 3.421875 -0.515625 L 2.953125 -0.421875 L 2.953125 0 L 5.3125 0 L 5.3125 -0.421875 L 4.859375 -0.515625 C 4.859375 -0.953125 4.859375 -1.484375 4.859375 -1.875 L 4.859375 -2.921875 C 4.859375 -3.9375 4.34375 -4.453125 3.5625 -4.453125 Z M 3.5625 -4.453125 "/>
</g>
<g id="glyph-3-8">
<path d="M 2.46875 -3.984375 C 2.796875 -3.984375 3.0625 -3.703125 3.0625 -3.109375 C 3.0625 -2.71875 2.953125 -2.546875 2.53125 -2.546875 L 1.765625 -2.546875 C 1.796875 -3.640625 2.125 -3.984375 2.46875 -3.984375 Z M 2.546875 -4.453125 C 1.40625 -4.453125 0.265625 -3.640625 0.265625 -2.15625 C 0.265625 -0.71875 1.171875 0.140625 2.484375 0.140625 C 3.34375 0.140625 3.984375 -0.203125 4.359375 -0.90625 L 4.046875 -1.203125 C 3.78125 -0.921875 3.4375 -0.71875 2.96875 -0.71875 C 2.34375 -0.71875 1.828125 -1.140625 1.765625 -2.09375 L 4.34375 -2.09375 C 4.375 -2.234375 4.40625 -2.375 4.40625 -2.5625 C 4.40625 -3.640625 3.734375 -4.453125 2.546875 -4.453125 Z M 2.546875 -4.453125 "/>
</g>
</g>
<clipPath id="clip-0">
<path clip-rule="nonzero" d="M 0.164062 138 L 237 138 L 237 182.265625 L 0.164062 182.265625 Z M 0.164062 138 "/>
</clipPath>
<clipPath id="clip-1">
<path clip-rule="nonzero" d="M 13 136 L 103 136 L 103 182.265625 L 13 182.265625 Z M 13 136 "/>
</clipPath>
<clipPath id="clip-2">
<path clip-rule="nonzero" d="M 57 133 L 108 133 L 108 182.265625 L 57 182.265625 Z M 57 133 "/>
</clipPath>
<clipPath id="clip-3">
<path clip-rule="nonzero" d="M 13 31 L 224 31 L 224 182.265625 L 13 182.265625 Z M 13 31 "/>
</clipPath>
</defs>
<g clip-path="url(#clip-0)">
<path fill="none" stroke-width="1.19553" stroke-linecap="butt" stroke-linejoin="miter" stroke="rgb(0%, 0%, 0%)" stroke-opacity="1" stroke-miterlimit="10" d="M 0.00163529 0.000882761 C -64.906831 30.265073 -139.905978 30.265073 -204.81052 0.000882761 " transform="matrix(0.995272, 0, 0, -0.995272, 220.025716, 178.235254)"/>
</g>
<path fill="none" stroke-width="0.3985" stroke-linecap="butt" stroke-linejoin="miter" stroke="rgb(50%, 50%, 50%)" stroke-opacity="1" stroke-dasharray="2.98883 2.98883" stroke-miterlimit="10" d="M 0.00163529 40.383227 C -64.906831 70.651343 -139.905978 70.651343 -204.81052 40.383227 " transform="matrix(0.995272, 0, 0, -0.995272, 220.025716, 178.235254)"/>
<g fill="rgb(50%, 50%, 50%)" fill-opacity="1">
<use xlink:href="#glyph-0-0" x="223.198643" y="141.280814"/>
<use xlink:href="#glyph-0-1" x="227.00026" y="141.280814"/>
</g>
<g fill="rgb(50%, 50%, 50%)" fill-opacity="1">
<use xlink:href="#glyph-0-2" x="232.961482" y="141.280814"/>
<use xlink:href="#glyph-0-3" x="237.842901" y="141.280814"/>
</g>
<path fill="none" stroke-width="0.3985" stroke-linecap="butt" stroke-linejoin="miter" stroke="rgb(50%, 50%, 50%)" stroke-opacity="1" stroke-dasharray="2.98883 2.98883" stroke-miterlimit="10" d="M 0.00163529 80.769497 C -64.906831 111.037612 -139.905978 111.037612 -204.81052 80.769497 " transform="matrix(0.995272, 0, 0, -0.995272, 220.025716, 178.235254)"/>
<g fill="rgb(50%, 50%, 50%)" fill-opacity="1">
<use xlink:href="#glyph-0-4" x="223.198643" y="101.08776"/>
<use xlink:href="#glyph-0-1" x="227.723103" y="101.08776"/>
</g>
<g fill="rgb(50%, 50%, 50%)" fill-opacity="1">
<use xlink:href="#glyph-0-2" x="233.684324" y="101.08776"/>
<use xlink:href="#glyph-0-3" x="238.565744" y="101.08776"/>
</g>
<path fill="none" stroke-width="0.3985" stroke-linecap="butt" stroke-linejoin="miter" stroke="rgb(50%, 50%, 50%)" stroke-opacity="1" stroke-dasharray="2.98883 2.98883" stroke-miterlimit="10" d="M 0.00163529 88.84675 C -64.906831 119.114866 -139.905978 119.114866 -204.81052 88.84675 " transform="matrix(0.995272, 0, 0, -0.995272, 220.025716, 178.235254)"/>
<g fill="rgb(50%, 50%, 50%)" fill-opacity="1">
<use xlink:href="#glyph-0-5" x="223.198643" y="93.017101"/>
<use xlink:href="#glyph-0-1" x="227.839115" y="93.017101"/>
</g>
<g fill="rgb(50%, 50%, 50%)" fill-opacity="1">
<use xlink:href="#glyph-0-2" x="233.800336" y="93.017101"/>
<use xlink:href="#glyph-0-3" x="238.681756" y="93.017101"/>
</g>
<path fill="none" stroke-width="0.3985" stroke-linecap="butt" stroke-linejoin="miter" stroke="rgb(50%, 50%, 50%)" stroke-opacity="1" stroke-dasharray="2.98883 2.98883" stroke-miterlimit="10" d="M 0.00163529 96.924004 C -64.906831 127.19212 -139.905978 127.19212 -204.81052 96.924004 " transform="matrix(0.995272, 0, 0, -0.995272, 220.025716, 178.235254)"/>
<g fill="rgb(50%, 50%, 50%)" fill-opacity="1">
<use xlink:href="#glyph-0-0" x="223.198643" y="85.01014"/>
<use xlink:href="#glyph-0-6" x="227.00026" y="85.01014"/>
<use xlink:href="#glyph-0-1" x="231.489024" y="85.01014"/>
</g>
<g fill="rgb(50%, 50%, 50%)" fill-opacity="1">
<use xlink:href="#glyph-0-2" x="237.450246" y="85.01014"/>
<use xlink:href="#glyph-0-3" x="242.331666" y="85.01014"/>
</g>
<path fill="none" stroke-width="0.3985" stroke-linecap="butt" stroke-linejoin="miter" stroke="rgb(50%, 50%, 50%)" stroke-opacity="1" stroke-dasharray="2.98883 2.98883" stroke-miterlimit="10" d="M 0.00163529 105.001258 C -64.906831 135.269374 -139.905978 135.269374 -204.81052 105.001258 " transform="matrix(0.995272, 0, 0, -0.995272, 220.025716, 178.235254)"/>
<g fill="rgb(50%, 50%, 50%)" fill-opacity="1">
<use xlink:href="#glyph-0-7" x="223.198643" y="76.97133"/>
<use xlink:href="#glyph-0-1" x="227.732027" y="76.97133"/>
<use xlink:href="#glyph-0-1" x="232.211867" y="76.97133"/>
</g>
<g fill="rgb(50%, 50%, 50%)" fill-opacity="1">
<use xlink:href="#glyph-0-2" x="238.173089" y="76.97133"/>
<use xlink:href="#glyph-0-3" x="243.054508" y="76.97133"/>
</g>
<path fill="none" stroke-width="0.3985" stroke-linecap="butt" stroke-linejoin="miter" stroke="rgb(50%, 50%, 50%)" stroke-opacity="1" stroke-dasharray="2.98883 2.98883" stroke-miterlimit="10" d="M 0.00163529 121.155766 C -64.906831 151.419957 -139.905978 151.419957 -204.81052 121.155766 " transform="matrix(0.995272, 0, 0, -0.995272, 220.025716, 178.235254)"/>
<g fill="rgb(50%, 50%, 50%)" fill-opacity="1">
<use xlink:href="#glyph-0-8" x="223.198643" y="60.893711"/>
</g>
<g fill="rgb(50%, 50%, 50%)" fill-opacity="1">
<use xlink:href="#glyph-0-1" x="227.714179" y="60.893711"/>
<use xlink:href="#glyph-0-1" x="232.194019" y="60.893711"/>
</g>
<g fill="rgb(50%, 50%, 50%)" fill-opacity="1">
<use xlink:href="#glyph-0-2" x="238.155241" y="60.893711"/>
<use xlink:href="#glyph-0-3" x="243.03666" y="60.893711"/>
</g>
<g fill="rgb(50%, 50%, 50%)" fill-opacity="1">
<use xlink:href="#glyph-0-9" x="3.138089" y="96.813068"/>
</g>
<g fill="rgb(50%, 50%, 50%)" fill-opacity="1">
<use xlink:href="#glyph-0-10" x="3.138089" y="88.775253"/>
</g>
<g fill="rgb(50%, 50%, 50%)" fill-opacity="1">
<use xlink:href="#glyph-0-11" x="3.138089" y="79.791931"/>
</g>
<g fill="rgb(50%, 50%, 50%)" fill-opacity="1">
<use xlink:href="#glyph-1-0" x="8.30554" y="81.666027"/>
</g>
<g fill="rgb(50%, 50%, 50%)" fill-opacity="1">
<use xlink:href="#glyph-0-11" x="3.138089" y="67.734213"/>
</g>
<g fill="rgb(50%, 50%, 50%)" fill-opacity="1">
<use xlink:href="#glyph-1-1" x="8.30554" y="69.60831"/>
</g>
<path fill="none" stroke-width="0.3985" stroke-linecap="butt" stroke-linejoin="miter" stroke="rgb(0%, 0%, 0%)" stroke-opacity="1" stroke-miterlimit="10" d="M -185.327776 8.074212 L -190.418251 22.058301 " transform="matrix(0.995272, 0, 0, -0.995272, 220.025716, 178.235254)"/>
<path fill="none" stroke-width="0.797" stroke-linecap="butt" stroke-linejoin="miter" stroke="rgb(0%, 0%, 0%)" stroke-opacity="1" stroke-miterlimit="10" d="M -190.418251 22.058301 L -188.086915 22.906059 L -188.722734 17.39563 L -192.749587 21.210543 L -190.418251 22.058301 " transform="matrix(0.995272, 0, 0, -0.995272, 220.025716, 178.235254)"/>
<path fill="none" stroke-width="0.3985" stroke-linecap="butt" stroke-linejoin="miter" stroke="rgb(0%, 0%, 0%)" stroke-opacity="1" stroke-miterlimit="10" d="M -19.575305 8.10561 L -14.488754 22.089699 " transform="matrix(0.995272, 0, 0, -0.995272, 220.025716, 178.235254)"/>
<path fill="none" stroke-width="0.797" stroke-linecap="butt" stroke-linejoin="miter" stroke="rgb(0%, 0%, 0%)" stroke-opacity="1" stroke-miterlimit="10" d="M -14.488754 22.089699 L -12.157418 21.241941 L -16.184271 17.430953 L -16.816165 22.941383 L -14.488754 22.089699 " transform="matrix(0.995272, 0, 0, -0.995272, 220.025716, 178.235254)"/>
<g clip-path="url(#clip-1)">
<path fill="none" stroke-width="1.59404" stroke-linecap="butt" stroke-linejoin="miter" stroke="rgb(88.233948%, 31.373596%, 13.723755%)" stroke-opacity="1" stroke-miterlimit="10" d="M -185.280678 8.089911 C -170.876634 13.333454 -155.989839 17.19154 -140.855782 19.62492 " transform="matrix(0.995272, 0, 0, -0.995272, 220.025716, 178.235254)"/>
</g>
<path fill-rule="nonzero" fill="rgb(88.233948%, 31.373596%, 13.723755%)" fill-opacity="1" d="M 85.0625 157.941406 L 79.792969 155.679688 L 80.226562 158.652344 L 80.664062 161.625 Z M 85.0625 157.941406 "/>
<g clip-path="url(#clip-2)">
<path fill="none" stroke-width="1.59404" stroke-linecap="butt" stroke-linejoin="miter" stroke="rgb(88.233948%, 31.373596%, 13.723755%)" stroke-opacity="1" stroke-miterlimit="10" d="M 5.707381 0.00139022 L 0.798937 3.019251 L 0.795963 0.000696788 L 0.796873 -3.018428 Z M 5.707381 0.00139022 " transform="matrix(0.984652, -0.144613, -0.144613, -0.984652, 79.442916, 158.768136)"/>
</g>
<g fill="rgb(88.233948%, 31.373596%, 13.723755%)" fill-opacity="1">
<use xlink:href="#glyph-2-0" x="37.520747" y="178.566679"/>
<use xlink:href="#glyph-2-1" x="43.668298" y="177.147412"/>
<use xlink:href="#glyph-2-2" x="48.937627" y="175.930897"/>
</g>
<g fill="rgb(88.233948%, 31.373596%, 13.723755%)" fill-opacity="1">
<use xlink:href="#glyph-2-3" x="53.780888" y="174.812747"/>
</g>
<g fill="rgb(88.233948%, 31.373596%, 13.723755%)" fill-opacity="1">
<use xlink:href="#glyph-2-2" x="60.232774" y="173.323219"/>
<use xlink:href="#glyph-2-4" x="65.162988" y="172.184994"/>
</g>
<g fill="rgb(88.233948%, 31.373596%, 13.723755%)" fill-opacity="1">
<use xlink:href="#glyph-2-5" x="69.780172" y="171.119038"/>
<use xlink:href="#glyph-2-6" x="72.606133" y="170.466617"/>
<use xlink:href="#glyph-2-7" x="77.040717" y="169.442817"/>
<use xlink:href="#glyph-2-7" x="80.718813" y="168.593666"/>
</g>
<g fill="rgb(88.233948%, 31.373596%, 13.723755%)" fill-opacity="1">
<use xlink:href="#glyph-2-3" x="84.301261" y="167.766596"/>
</g>
<g fill="rgb(0%, 0%, 0%)" fill-opacity="1">
<use xlink:href="#glyph-0-12" x="75.079316" y="9.658117"/>
<use xlink:href="#glyph-0-13" x="80.88883" y="9.658117"/>
<use xlink:href="#glyph-0-14" x="83.548178" y="9.658117"/>
<use xlink:href="#glyph-0-15" x="89.009656" y="9.658117"/>
<use xlink:href="#glyph-0-16" x="93.560889" y="9.658117"/>
<use xlink:href="#glyph-0-16" x="97.433898" y="9.658117"/>
<use xlink:href="#glyph-0-13" x="101.306907" y="9.658117"/>
<use xlink:href="#glyph-0-17" x="103.966255" y="9.658117"/>
<use xlink:href="#glyph-0-18" x="108.865522" y="9.658117"/>
<use xlink:href="#glyph-0-15" x="114.273457" y="9.658117"/>
</g>
<g fill="rgb(0%, 0%, 0%)" fill-opacity="1">
<use xlink:href="#glyph-0-19" x="120.903977" y="9.658117"/>
</g>
<g fill="rgb(0%, 0%, 0%)" fill-opacity="1">
<use xlink:href="#glyph-0-20" x="125.267806" y="9.658117"/>
</g>
<g fill="rgb(0%, 0%, 0%)" fill-opacity="1">
<use xlink:href="#glyph-0-20" x="130.381249" y="9.658117"/>
<use xlink:href="#glyph-0-19" x="135.583932" y="9.658117"/>
</g>
<g fill="rgb(0%, 0%, 0%)" fill-opacity="1">
<use xlink:href="#glyph-0-21" x="140.08162" y="9.658117"/>
</g>
<g fill="rgb(0%, 0%, 0%)" fill-opacity="1">
<use xlink:href="#glyph-0-15" x="143.767226" y="9.658117"/>
<use xlink:href="#glyph-0-18" x="148.318458" y="9.658117"/>
</g>
<g fill="rgb(0%, 0%, 0%)" fill-opacity="1">
<use xlink:href="#glyph-0-22" x="153.681773" y="9.658117"/>
<use xlink:href="#glyph-0-15" x="156.582068" y="9.658117"/>
</g>
<path fill="none" stroke-width="0.3985" stroke-linecap="butt" stroke-linejoin="miter" stroke="rgb(0%, 0%, 0%)" stroke-opacity="1" stroke-dasharray="2.98883 2.98883" stroke-miterlimit="10" d="M -185.280678 8.089911 L -102.404442 164.049987 L -19.528207 8.089911 " transform="matrix(0.995272, 0, 0, -0.995272, 220.025716, 178.235254)"/>
<g clip-path="url(#clip-3)">
<path fill="none" stroke-width="1.59404" stroke-linecap="butt" stroke-linejoin="miter" stroke="rgb(88.233948%, 31.373596%, 13.723755%)" stroke-opacity="1" stroke-miterlimit="10" d="M -185.280678 8.089911 C -102.404442 164.049987 -102.404442 164.049987 -19.528207 8.089911 " transform="matrix(0.995272, 0, 0, -0.995272, 220.025716, 178.235254)"/>
</g>
<g fill="rgb(88.233948%, 31.373596%, 13.723755%)" fill-opacity="1">
<use xlink:href="#glyph-3-0" x="96.620978" y="49.867095"/>
<use xlink:href="#glyph-3-1" x="102.716059" y="49.867095"/>
<use xlink:href="#glyph-3-2" x="105.536039" y="49.867095"/>
<use xlink:href="#glyph-3-3" x="108.766521" y="49.867095"/>
</g>
<g fill="rgb(88.233948%, 31.373596%, 13.723755%)" fill-opacity="1">
<use xlink:href="#glyph-3-4" x="112.710922" y="49.867095"/>
<use xlink:href="#glyph-3-5" x="117.449558" y="49.867095"/>
<use xlink:href="#glyph-3-1" x="121.590287" y="49.867095"/>
<use xlink:href="#glyph-3-6" x="124.410266" y="49.867095"/>
<use xlink:href="#glyph-3-7" x="129.452317" y="49.867095"/>
<use xlink:href="#glyph-3-8" x="134.949492" y="49.867095"/>
</g>
<g fill="rgb(0%, 0%, 0%)" fill-opacity="1">
<use xlink:href="#glyph-0-23" x="121.278835" y="152.352217"/>
<use xlink:href="#glyph-0-17" x="126.195951" y="152.352217"/>
<use xlink:href="#glyph-0-18" x="131.095218" y="152.352217"/>
<use xlink:href="#glyph-0-19" x="136.503153" y="152.352217"/>
</g>
<g fill="rgb(0%, 0%, 0%)" fill-opacity="1">
<use xlink:href="#glyph-0-3" x="143.12475" y="152.352217"/>
<use xlink:href="#glyph-0-17" x="151.16526" y="152.352217"/>
<use xlink:href="#glyph-0-21" x="156.064527" y="152.352217"/>
</g>
<g fill="rgb(0%, 0%, 0%)" fill-opacity="1">
<use xlink:href="#glyph-0-22" x="160.008929" y="152.352217"/>
<use xlink:href="#glyph-0-19" x="162.909224" y="152.352217"/>
</g>
</svg>
