<?xml version="1.0" encoding="UTF-8"?>
<svg xmlns="http://www.w3.org/2000/svg" xmlns:xlink="http://www.w3.org/1999/xlink" width="239.337" height="206.983" viewBox="0 0 239.337 206.983">
<defs>
<g>
<g id="glyph-0-0">
<path d="M 0.546875 -4.1875 C 0.546875 -4 0.71875 -3.828125 0.90625 -3.828125 C 1.046875 -3.828125 1.328125 -4 1.328125 -4.1875 C 1.328125 -4.265625 1.3125 -4.3125 1.28125 -4.375 C 1.265625 -4.4375 1.21875 -4.515625 1.21875 -4.59375 C 1.21875 -4.8125 1.453125 -5.140625 2.09375 -5.140625 C 2.421875 -5.140625 2.875 -4.921875 2.875 -4.0625 C 2.875 -3.484375 2.671875 -3.015625 2.140625 -2.484375 L 1.484375 -1.828125 C 0.609375 -0.9375 0.46875 -0.515625 0.46875 0.015625 C 0.46875 0.015625 0.921875 0 1.203125 0 L 2.765625 0 C 3.0625 0 3.46875 0.015625 3.46875 0.015625 C 3.578125 -0.453125 3.671875 -1.125 3.6875 -1.390625 C 3.625 -1.4375 3.515625 -1.453125 3.421875 -1.4375 C 3.265625 -0.796875 3.125 -0.578125 2.796875 -0.578125 L 1.203125 -0.578125 C 1.203125 -1.015625 1.828125 -1.625 1.875 -1.65625 L 2.765625 -2.53125 C 3.28125 -3.015625 3.671875 -3.421875 3.671875 -4.09375 C 3.671875 -5.0625 2.875 -5.453125 2.15625 -5.453125 C 1.15625 -5.453125 0.546875 -4.71875 0.546875 -4.1875 Z M 0.546875 -4.1875 "/>
</g>
<g id="glyph-0-1">
<path d="M 2.03125 0.09375 C 2.71875 0.09375 3.765625 -0.609375 3.765625 -2.703125 C 3.765625 -3.59375 3.5625 -4.359375 3.15625 -4.875 C 2.9375 -5.1875 2.5625 -5.453125 2.078125 -5.453125 C 1.1875 -5.453125 0.34375 -4.390625 0.34375 -2.625 C 0.34375 -1.671875 0.640625 -0.78125 1.140625 -0.28125 C 1.390625 -0.03125 1.6875 0.09375 2.03125 0.09375 Z M 2.078125 -5.140625 C 2.21875 -5.140625 2.375 -5.078125 2.46875 -4.984375 C 2.75 -4.75 3 -4.078125 3 -2.875 C 3 -2.0625 2.96875 -1.5 2.84375 -1.03125 C 2.640625 -0.296875 2.203125 -0.21875 2.046875 -0.21875 C 1.21875 -0.21875 1.125 -1.75 1.125 -2.53125 C 1.125 -4.734375 1.671875 -5.140625 2.078125 -5.140625 Z M 2.078125 -5.140625 "/>
</g>
<g id="glyph-0-2">
<path d="M 2.84375 -1.6875 C 2.84375 -0.84375 2.40625 -0.21875 1.875 -0.21875 C 1.53125 -0.21875 1.40625 -0.4375 1.28125 -0.609375 C 1.15625 -0.765625 1.015625 -0.90625 0.828125 -0.90625 C 0.65625 -0.90625 0.484375 -0.75 0.484375 -0.578125 C 0.484375 -0.203125 1.25 0.09375 1.75 0.09375 C 2.859375 0.09375 3.640625 -0.71875 3.640625 -1.84375 C 3.640625 -2.71875 3.046875 -3.5 2.046875 -3.5 C 1.65625 -3.5 1.328125 -3.421875 1.171875 -3.359375 L 1.34375 -4.84375 C 1.6875 -4.8125 1.96875 -4.765625 2.390625 -4.765625 C 2.65625 -4.765625 2.96875 -4.78125 3.328125 -4.8125 L 3.484375 -5.421875 L 3.421875 -5.453125 C 2.90625 -5.40625 2.421875 -5.359375 1.953125 -5.359375 C 1.625 -5.359375 1.296875 -5.375 0.984375 -5.40625 L 0.671875 -2.828125 C 1.15625 -3.015625 1.5 -3.046875 1.8125 -3.046875 C 2.390625 -3.046875 2.84375 -2.65625 2.84375 -1.6875 Z M 2.84375 -1.6875 "/>
</g>
<g id="glyph-0-3">
<path d="M 2.578125 -1.09375 L 2.578125 -4.1875 C 2.578125 -4.734375 2.578125 -5.265625 2.59375 -5.390625 C 2.59375 -5.4375 2.578125 -5.4375 2.546875 -5.4375 C 2.0625 -5.125 1.578125 -4.90625 0.796875 -4.546875 C 0.8125 -4.4375 0.84375 -4.359375 0.921875 -4.296875 C 1.34375 -4.46875 1.53125 -4.515625 1.703125 -4.515625 C 1.859375 -4.515625 1.890625 -4.3125 1.890625 -4 L 1.890625 -1.09375 C 1.890625 -0.34375 1.640625 -0.296875 1.015625 -0.28125 C 0.96875 -0.21875 0.96875 -0.03125 1.015625 0.015625 C 1.453125 0.015625 1.78125 0 2.265625 0 C 2.6875 0 2.90625 0.015625 3.359375 0.015625 C 3.40625 -0.03125 3.40625 -0.21875 3.359375 -0.28125 C 2.71875 -0.296875 2.578125 -0.34375 2.578125 -1.09375 Z M 2.578125 -1.09375 "/>
</g>
<g id="glyph-1-0">
<path d="M 3.71875 0.09375 C 4.03125 0.09375 4.28125 -0.03125 4.5 -0.375 L 4.3125 -0.578125 C 4.21875 -0.453125 4.125 -0.375 3.96875 -0.375 C 3.765625 -0.375 3.640625 -0.515625 3.640625 -0.90625 L 3.640625 -2.8125 C 3.640625 -3.9375 3.203125 -4.359375 2.265625 -4.359375 C 1.34375 -4.359375 0.6875 -3.9375 0.515625 -3.25 C 0.546875 -3.015625 0.6875 -2.890625 0.9375 -2.890625 C 1.1875 -2.890625 1.328125 -3.03125 1.40625 -3.3125 L 1.578125 -3.890625 C 1.765625 -3.9375 1.921875 -3.953125 2.0625 -3.953125 C 2.640625 -3.953125 2.890625 -3.734375 2.890625 -2.875 L 2.890625 -2.640625 C 2.53125 -2.5625 2.15625 -2.453125 1.890625 -2.34375 C 0.671875 -1.90625 0.40625 -1.515625 0.40625 -1 C 0.40625 -0.265625 0.953125 0.109375 1.59375 0.109375 C 2.125 0.109375 2.421875 -0.109375 2.90625 -0.59375 C 2.984375 -0.171875 3.28125 0.09375 3.71875 0.09375 Z M 1.203125 -1.140625 C 1.203125 -1.40625 1.296875 -1.75 2.078125 -2.046875 C 2.265625 -2.125 2.578125 -2.21875 2.890625 -2.3125 L 2.890625 -0.9375 C 2.390625 -0.578125 2.21875 -0.46875 1.90625 -0.46875 C 1.5 -0.46875 1.203125 -0.65625 1.203125 -1.140625 Z M 1.203125 -1.140625 "/>
</g>
<g id="glyph-1-1">
<path d="M 3.359375 -4.359375 C 2.8125 -4.359375 2.203125 -4.03125 1.765625 -3.546875 L 1.6875 -4.265625 L 1.5625 -4.359375 L 0.296875 -3.8125 L 0.296875 -3.5 L 1.015625 -3.421875 C 1.03125 -3.0625 1.03125 -2.796875 1.03125 -2.3125 L 1.03125 -1.875 C 1.03125 -1.46875 1.03125 -0.890625 1.015625 -0.453125 L 0.359375 -0.328125 L 0.359375 0 L 2.4375 0 L 2.4375 -0.328125 L 1.8125 -0.453125 C 1.8125 -0.890625 1.796875 -1.484375 1.796875 -1.875 L 1.796875 -3.1875 C 2.25 -3.5625 2.59375 -3.71875 3.015625 -3.71875 C 3.546875 -3.71875 3.75 -3.453125 3.75 -2.640625 L 3.75 -1.875 C 3.75 -1.46875 3.75 -0.890625 3.734375 -0.453125 L 3.078125 -0.328125 L 3.078125 0 L 5.140625 0 L 5.140625 -0.328125 L 4.515625 -0.453125 C 4.515625 -0.890625 4.5 -1.46875 4.5 -1.875 L 4.5 -2.703125 C 4.5 -3.875 4.125 -4.359375 3.359375 -4.359375 Z M 3.359375 -4.359375 "/>
</g>
<g id="glyph-1-2">
<path d="M 2.40625 -3.953125 C 2.953125 -3.953125 3.375 -3.5 3.375 -2.984375 C 3.375 -2.71875 3.28125 -2.515625 2.84375 -2.515625 L 1.21875 -2.515625 C 1.328125 -3.5625 1.90625 -3.953125 2.40625 -3.953125 Z M 2.453125 -4.359375 C 1.34375 -4.359375 0.40625 -3.453125 0.40625 -2.078125 C 0.40625 -0.71875 1.1875 0.109375 2.390625 0.109375 C 3.203125 0.109375 3.78125 -0.28125 4.109375 -0.921875 L 3.890625 -1.09375 C 3.578125 -0.71875 3.21875 -0.46875 2.65625 -0.46875 C 1.796875 -0.46875 1.21875 -1.046875 1.203125 -2.140625 L 4.0625 -2.140625 C 4.09375 -2.265625 4.125 -2.4375 4.125 -2.640625 C 4.125 -3.734375 3.390625 -4.359375 2.453125 -4.359375 Z M 2.015625 -5.140625 L 2.25 -4.984375 C 2.609375 -5.296875 2.953125 -5.609375 3.328125 -5.9375 C 3.578125 -6.171875 3.625 -6.3125 3.625 -6.4375 C 3.625 -6.671875 3.453125 -6.78125 3.28125 -6.78125 C 3.125 -6.78125 2.96875 -6.6875 2.8125 -6.40625 C 2.515625 -5.984375 2.265625 -5.5625 2.015625 -5.140625 Z M 2.015625 -5.140625 "/>
</g>
<g id="glyph-1-3">
<path d="M 2.40625 -3.953125 C 2.953125 -3.953125 3.375 -3.5 3.375 -2.984375 C 3.375 -2.71875 3.28125 -2.515625 2.84375 -2.515625 L 1.21875 -2.515625 C 1.328125 -3.5625 1.90625 -3.953125 2.40625 -3.953125 Z M 2.453125 -4.359375 C 1.34375 -4.359375 0.40625 -3.453125 0.40625 -2.078125 C 0.40625 -0.71875 1.1875 0.109375 2.390625 0.109375 C 3.203125 0.109375 3.78125 -0.28125 4.109375 -0.921875 L 3.890625 -1.09375 C 3.578125 -0.71875 3.21875 -0.46875 2.65625 -0.46875 C 1.796875 -0.46875 1.21875 -1.046875 1.203125 -2.140625 L 4.0625 -2.140625 C 4.09375 -2.265625 4.125 -2.4375 4.125 -2.640625 C 4.125 -3.734375 3.390625 -4.359375 2.453125 -4.359375 Z M 2.453125 -4.359375 "/>
</g>
<g id="glyph-1-4">
<path d="M 1.78125 0.109375 C 2.9375 0.109375 3.53125 -0.484375 3.53125 -1.15625 C 3.53125 -1.71875 3.1875 -2.140625 2.296875 -2.46875 L 2.015625 -2.578125 C 1.40625 -2.796875 1.203125 -2.953125 1.203125 -3.34375 C 1.203125 -3.703125 1.484375 -3.953125 2.03125 -3.953125 C 2.25 -3.953125 2.453125 -3.890625 2.640625 -3.796875 L 2.78125 -3.078125 L 3.25 -3.078125 L 3.28125 -4 C 2.90625 -4.234375 2.515625 -4.359375 2.03125 -4.359375 C 1.03125 -4.359375 0.484375 -3.75 0.484375 -3.09375 C 0.484375 -2.5 0.90625 -2.140625 1.5625 -1.890625 L 1.96875 -1.75 C 2.53125 -1.546875 2.8125 -1.34375 2.8125 -0.96875 C 2.8125 -0.5625 2.484375 -0.28125 1.8125 -0.28125 C 1.53125 -0.28125 1.296875 -0.328125 1.078125 -0.421875 L 0.90625 -1.203125 L 0.421875 -1.203125 L 0.453125 -0.21875 C 0.890625 0 1.28125 0.109375 1.78125 0.109375 Z M 1.78125 0.109375 "/>
</g>
<g id="glyph-1-5">
<path d="M 2.078125 -0.3125 C 1.6875 -0.3125 1.421875 -0.390625 1.140625 -0.53125 L 0.96875 -1.59375 L 0.40625 -1.59375 L 0.359375 -0.34375 C 0.765625 -0.078125 1.4375 0.140625 2.09375 0.140625 C 3.34375 0.140625 4.21875 -0.515625 4.21875 -1.5625 C 4.21875 -2.40625 3.765625 -2.9375 2.59375 -3.390625 L 2.234375 -3.515625 C 1.59375 -3.765625 1.21875 -4.109375 1.21875 -4.65625 C 1.21875 -5.3125 1.75 -5.671875 2.4375 -5.671875 C 2.703125 -5.671875 2.9375 -5.609375 3.15625 -5.484375 L 3.359375 -4.484375 L 3.890625 -4.484375 L 3.953125 -5.65625 C 3.5625 -5.9375 3.078125 -6.109375 2.484375 -6.109375 C 1.34375 -6.109375 0.46875 -5.484375 0.46875 -4.453125 C 0.46875 -3.546875 1.09375 -3.015625 2.015625 -2.65625 L 2.359375 -2.515625 C 3.125 -2.21875 3.453125 -1.96875 3.453125 -1.390625 C 3.453125 -0.703125 2.90625 -0.3125 2.078125 -0.3125 Z M 2.078125 -0.3125 "/>
</g>
<g id="glyph-1-6">
<path d="M 2.453125 0.109375 C 3.484375 0.109375 4.5 -0.625 4.5 -2.09375 C 4.5 -3.578125 3.484375 -4.359375 2.453125 -4.359375 C 1.40625 -4.359375 0.40625 -3.578125 0.40625 -2.09375 C 0.40625 -0.625 1.40625 0.109375 2.453125 0.109375 Z M 2.453125 -0.28125 C 1.671875 -0.28125 1.25 -0.90625 1.25 -2.09375 C 1.25 -3.3125 1.671875 -3.953125 2.453125 -3.953125 C 3.21875 -3.953125 3.65625 -3.3125 3.65625 -2.09375 C 3.65625 -0.90625 3.21875 -0.28125 2.453125 -0.28125 Z M 2.453125 -0.28125 "/>
</g>
<g id="glyph-1-7">
<path d="M 0.328125 0 L 2.625 0 L 2.625 -0.328125 L 1.828125 -0.453125 C 1.8125 -0.921875 1.8125 -1.40625 1.8125 -1.875 L 1.8125 -3.765625 L 3.015625 -3.765625 L 3.015625 -4.25 L 1.78125 -4.25 C 1.765625 -5.046875 1.875 -5.5625 2.21875 -5.953125 C 2.359375 -6.109375 2.53125 -6.21875 2.75 -6.296875 L 2.8125 -6.234375 C 3.140625 -5.984375 3.484375 -5.8125 3.765625 -5.796875 L 3.765625 -1.875 C 3.765625 -1.40625 3.75 -0.921875 3.75 -0.453125 L 3.03125 -0.328125 L 3.03125 0 L 5.25 0 L 5.25 -0.328125 L 4.53125 -0.453125 C 4.515625 -0.921875 4.515625 -1.40625 4.515625 -1.875 L 4.515625 -5.265625 L 4.546875 -6.53125 L 4.421875 -6.609375 L 4.109375 -6.4375 C 3.890625 -6.609375 3.515625 -6.6875 3.15625 -6.6875 C 2.765625 -6.6875 2.265625 -6.59375 1.8125 -6.21875 C 1.3125 -5.78125 1.140625 -5.234375 1.046875 -4.265625 L 0.296875 -4.171875 L 0.296875 -3.765625 L 1.046875 -3.765625 L 1.046875 -1.875 C 1.046875 -1.40625 1.03125 -0.921875 1.03125 -0.453125 L 0.328125 -0.328125 Z M 0.328125 0 "/>
</g>
<g id="glyph-1-8">
<path d="M 2.46875 -3.953125 C 2.625 -3.953125 2.78125 -3.9375 2.953125 -3.875 L 3.125 -3.28125 C 3.1875 -3.03125 3.3125 -2.859375 3.609375 -2.859375 C 3.828125 -2.859375 3.984375 -2.96875 4.015625 -3.203125 C 3.90625 -3.859375 3.25 -4.359375 2.4375 -4.359375 C 1.375 -4.359375 0.375 -3.515625 0.375 -2.109375 C 0.375 -0.734375 1.15625 0.109375 2.390625 0.109375 C 3.21875 0.109375 3.796875 -0.28125 4.046875 -1.03125 L 3.828125 -1.140625 C 3.546875 -0.703125 3.09375 -0.46875 2.59375 -0.46875 C 1.75 -0.46875 1.15625 -1.078125 1.15625 -2.203125 C 1.15625 -3.34375 1.71875 -3.953125 2.46875 -3.953125 Z M 2.46875 -3.953125 "/>
</g>
<g id="glyph-1-9">
<path d="M 0.21875 -6.203125 L 0.21875 -5.890625 L 0.953125 -5.796875 L 0.953125 -1.875 C 0.953125 -1.40625 0.953125 -0.921875 0.9375 -0.453125 L 0.21875 -0.328125 L 0.21875 0 L 2.4375 0 L 2.4375 -0.328125 L 1.71875 -0.453125 C 1.71875 -0.828125 1.703125 -1.21875 1.703125 -1.609375 L 2.296875 -2.21875 L 3.671875 0 L 4.890625 0 L 4.890625 -0.328125 L 4.296875 -0.421875 L 2.828125 -2.765625 L 3.8125 -3.765625 L 4.65625 -3.890625 L 4.65625 -4.25 L 2.578125 -4.25 L 2.578125 -3.890625 L 3.234375 -3.734375 L 1.703125 -2.140625 L 1.703125 -5.265625 L 1.75 -6.53125 L 1.625 -6.609375 Z M 0.21875 -6.203125 "/>
</g>
<g id="glyph-1-10">
<path d="M 4.90625 0 L 4.90625 -0.328125 L 4.296875 -0.453125 L 4.296875 -2.953125 L 4.328125 -4.203125 L 4.234375 -4.296875 L 2.9375 -4.171875 L 2.9375 -3.859375 L 3.578125 -3.734375 L 3.546875 -1.09375 C 3.140625 -0.71875 2.703125 -0.515625 2.296875 -0.515625 C 1.8125 -0.515625 1.578125 -0.796875 1.578125 -1.578125 L 1.578125 -2.953125 L 1.625 -4.203125 L 1.53125 -4.296875 L 0.21875 -4.171875 L 0.21875 -3.859375 L 0.859375 -3.71875 L 0.828125 -1.5 C 0.828125 -0.3125 1.265625 0.109375 2 0.109375 C 2.53125 0.109375 3.09375 -0.140625 3.578125 -0.71875 L 3.671875 0.078125 Z M 4.90625 0 "/>
</g>
<g id="glyph-1-11">
<path d="M 2.828125 -3.890625 L 3.421875 -3.78125 L 2.453125 -2.5625 L 1.59375 -3.796875 L 2.140625 -3.890625 L 2.140625 -4.25 L 0.15625 -4.25 L 0.15625 -3.890625 L 0.765625 -3.796875 L 1.96875 -2.046875 L 0.65625 -0.421875 L 0.09375 -0.328125 L 0.09375 0 L 1.875 0 L 1.875 -0.328125 L 1.203125 -0.4375 L 2.1875 -1.71875 L 3.0625 -0.4375 L 2.4375 -0.328125 L 2.4375 0 L 4.609375 0 L 4.609375 -0.328125 L 3.9375 -0.453125 L 2.6875 -2.21875 L 3.96875 -3.796875 L 4.5 -3.890625 L 4.5 -4.25 L 2.828125 -4.25 Z M 2.828125 -3.890625 "/>
</g>
</g>
<clipPath id="clip-0">
<path clip-rule="nonzero" d="M 20 0.277344 L 228 0.277344 L 228 183 L 20 183 Z M 20 0.277344 "/>
</clipPath>
<clipPath id="clip-1">
<path clip-rule="nonzero" d="M 20 0.277344 L 228 0.277344 L 228 183 L 20 183 Z M 20 0.277344 "/>
</clipPath>
<clipPath id="clip-2">
<path clip-rule="nonzero" d="M 20.714844 21 L 227.382812 21 L 227.382812 179 L 20.714844 179 Z M 20.714844 21 "/>
</clipPath>
<clipPath id="clip-3">
<path clip-rule="nonzero" d="M 20.714844 4 L 227.382812 4 L 227.382812 138 L 20.714844 138 Z M 20.714844 4 "/>
</clipPath>
</defs>
<g clip-path="url(#clip-0)">
<path fill="none" stroke-width="0.19925" stroke-linecap="butt" stroke-linejoin="miter" stroke="rgb(50%, 50%, 50%)" stroke-opacity="1" stroke-miterlimit="10" d="M -0.000772973 -15.161805 L -0.000772973 -10.911783 M 51.810324 -15.161805 L 51.810324 -10.911783 M 103.621421 -15.161805 L 103.621421 -10.911783 M 155.428601 -15.161805 L 155.428601 -10.911783 M 207.239698 -15.161805 L 207.239698 -10.911783 M -0.000772973 166.782222 L -0.000772973 162.528283 M 51.810324 166.782222 L 51.810324 162.528283 M 103.621421 166.782222 L 103.621421 162.528283 M 155.428601 166.782222 L 155.428601 162.528283 M 207.239698 166.782222 L 207.239698 162.528283 " transform="matrix(0.997238, 0, 0, -0.997238, 20.715615, 166.794142)"/>
</g>
<path fill="none" stroke-width="0.19925" stroke-linecap="butt" stroke-linejoin="miter" stroke="rgb(50%, 50%, 50%)" stroke-opacity="1" stroke-miterlimit="10" d="M -0.000772973 0.00117653 L 4.249249 0.00117653 M -0.000772973 30.867695 L 4.249249 30.867695 M -0.000772973 61.734214 L 4.249249 61.734214 M -0.000772973 92.600733 L 4.249249 92.600733 M -0.000772973 123.467252 L 4.249249 123.467252 M -0.000772973 154.33377 L 4.249249 154.33377 M 207.239698 0.00117653 L 202.989676 0.00117653 M 207.239698 30.867695 L 202.989676 30.867695 M 207.239698 61.734214 L 202.989676 61.734214 M 207.239698 92.600733 L 202.989676 92.600733 M 207.239698 123.467252 L 202.989676 123.467252 M 207.239698 154.33377 L 202.989676 154.33377 " transform="matrix(0.997238, 0, 0, -0.997238, 20.715615, 166.794142)"/>
<g clip-path="url(#clip-1)">
<path fill="none" stroke-width="0.3985" stroke-linecap="butt" stroke-linejoin="miter" stroke="rgb(0%, 0%, 0%)" stroke-opacity="1" stroke-miterlimit="10" d="M -0.000772973 -15.161805 L -0.000772973 166.782222 L 207.239698 166.782222 L 207.239698 -15.161805 Z M -0.000772973 -15.161805 " transform="matrix(0.997238, 0, 0, -0.997238, 20.715615, 166.794142)"/>
</g>
<g fill="rgb(0%, 0%, 0%)" fill-opacity="1">
<use xlink:href="#glyph-0-0" x="12.400648" y="190.557314"/>
<use xlink:href="#glyph-0-1" x="16.558497" y="190.557314"/>
<use xlink:href="#glyph-0-1" x="20.716346" y="190.557314"/>
<use xlink:href="#glyph-0-2" x="24.874195" y="190.557314"/>
</g>
<g fill="rgb(0%, 0%, 0%)" fill-opacity="1">
<use xlink:href="#glyph-0-0" x="64.066526" y="190.548339"/>
<use xlink:href="#glyph-0-1" x="68.224375" y="190.548339"/>
<use xlink:href="#glyph-0-3" x="72.382224" y="190.548339"/>
<use xlink:href="#glyph-0-1" x="76.540072" y="190.548339"/>
</g>
<g fill="rgb(0%, 0%, 0%)" fill-opacity="1">
<use xlink:href="#glyph-0-0" x="115.732404" y="190.557314"/>
<use xlink:href="#glyph-0-1" x="119.890252" y="190.557314"/>
<use xlink:href="#glyph-0-3" x="124.048101" y="190.557314"/>
<use xlink:href="#glyph-0-2" x="128.20595" y="190.557314"/>
</g>
<g fill="rgb(0%, 0%, 0%)" fill-opacity="1">
<use xlink:href="#glyph-0-0" x="167.398281" y="190.548339"/>
<use xlink:href="#glyph-0-1" x="171.55613" y="190.548339"/>
<use xlink:href="#glyph-0-0" x="175.713979" y="190.548339"/>
<use xlink:href="#glyph-0-1" x="179.871828" y="190.548339"/>
</g>
<g fill="rgb(0%, 0%, 0%)" fill-opacity="1">
<use xlink:href="#glyph-0-0" x="219.065156" y="190.557314"/>
<use xlink:href="#glyph-0-1" x="223.223005" y="190.557314"/>
<use xlink:href="#glyph-0-0" x="227.380854" y="190.557314"/>
<use xlink:href="#glyph-0-2" x="231.538703" y="190.557314"/>
</g>
<g fill="rgb(0%, 0%, 0%)" fill-opacity="1">
<use xlink:href="#glyph-0-1" x="13.378938" y="169.476711"/>
</g>
<g fill="rgb(0%, 0%, 0%)" fill-opacity="1">
<use xlink:href="#glyph-0-2" x="9.221455" y="138.694981"/>
<use xlink:href="#glyph-0-1" x="13.379304" y="138.694981"/>
</g>
<g fill="rgb(0%, 0%, 0%)" fill-opacity="1">
<use xlink:href="#glyph-0-3" x="5.063972" y="107.914248"/>
<use xlink:href="#glyph-0-1" x="9.221821" y="107.914248"/>
<use xlink:href="#glyph-0-1" x="13.37967" y="107.914248"/>
</g>
<g fill="rgb(0%, 0%, 0%)" fill-opacity="1">
<use xlink:href="#glyph-0-3" x="5.063972" y="77.132518"/>
<use xlink:href="#glyph-0-2" x="9.221821" y="77.132518"/>
<use xlink:href="#glyph-0-1" x="13.37967" y="77.132518"/>
</g>
<g fill="rgb(0%, 0%, 0%)" fill-opacity="1">
<use xlink:href="#glyph-0-0" x="5.063972" y="46.351786"/>
<use xlink:href="#glyph-0-1" x="9.221821" y="46.351786"/>
<use xlink:href="#glyph-0-1" x="13.37967" y="46.351786"/>
</g>
<g fill="rgb(0%, 0%, 0%)" fill-opacity="1">
<use xlink:href="#glyph-0-0" x="5.063972" y="15.571053"/>
<use xlink:href="#glyph-0-2" x="9.221821" y="15.571053"/>
<use xlink:href="#glyph-0-1" x="13.37967" y="15.571053"/>
</g>
<g clip-path="url(#clip-2)">
<path fill="none" stroke-width="0.79701" stroke-linecap="butt" stroke-linejoin="miter" stroke="rgb(0%, 62.745667%, 86.274719%)" stroke-opacity="1" stroke-miterlimit="10" d="M 0.434022 29.692574 C 0.434022 29.692574 1.041168 27.581273 1.276192 26.852698 C 1.507299 26.124122 1.875504 24.858909 2.114445 24.447616 C 2.34947 24.036324 2.745094 21.979861 2.984035 23.891392 C 3.222976 25.799006 3.602932 36.661043 3.845791 38.212203 C 4.084732 39.763363 4.476439 35.01979 4.71538 35.062878 C 4.954322 35.105966 5.334278 38.204369 5.573219 38.521652 C 5.816077 38.838935 6.211701 39.508754 6.45456 37.350448 C 6.697418 35.188224 7.085208 27.017215 7.32415 22.963046 C 7.567008 18.912795 7.946964 8.979103 8.185905 8.148684 C 8.424847 7.318265 8.816554 13.029354 9.055495 16.977762 C 9.298353 20.926169 9.686143 37.174179 9.925085 36.606204 C 10.167943 36.042146 10.55965 17.494815 10.798592 12.904008 C 11.033616 8.309284 11.40182 3.828155 11.636845 3.518706 C 11.867952 3.209258 12.240074 6.859968 12.475098 10.679112 C 12.714039 14.498256 13.105746 29.347872 13.344688 31.051798 C 13.587546 32.755723 13.967502 25.176191 14.206443 22.963046 C 14.445385 20.753818 14.837092 16.409787 15.076033 15.124987 C 15.314974 13.840188 15.69493 14.020373 15.937789 13.703091 C 16.17673 13.389725 16.576271 12.712072 16.81913 12.841335 C 17.061988 12.970598 17.445861 15.136739 17.688719 14.631436 C 17.927661 14.126134 18.307616 8.172186 18.546558 9.198459 C 18.789416 10.224732 19.177206 21.404052 19.420065 22.038617 C 19.659006 22.673183 20.046796 14.314154 20.289654 13.765764 C 20.528596 13.217374 20.920303 18.423161 21.159244 18.086293 C 21.398185 17.753342 21.76639 13.252627 21.997497 11.360682 C 22.232522 9.46482 22.600726 5.5595 22.839667 4.443135 C 23.074692 3.330687 23.466399 2.280912 23.709257 3.334604 C 23.948199 4.388296 24.328154 10.675195 24.567096 12.038335 C 24.809954 13.401476 25.197744 13.526822 25.436686 13.150784 C 25.679544 12.770828 26.055583 10.30699 26.298441 9.319888 C 26.5413 8.336703 26.936924 7.000982 27.179782 6.049134 C 27.42264 5.097286 27.81043 3.181838 28.049372 2.468931 C 28.288313 1.759941 28.668269 1.027449 28.911127 0.925605 C 29.150069 0.823761 29.537859 0.373298 29.780717 1.728605 C 30.023576 3.079994 30.407448 10.569434 30.650307 10.679112 C 30.893165 10.792707 31.280955 3.765482 31.519897 2.531604 C 31.758838 1.297727 32.134877 0.81201 32.369901 1.791278 C 32.604925 2.766629 32.980964 9.507908 33.219905 9.570581 C 33.458847 9.629337 33.850554 3.154419 34.089495 2.222156 C 34.332354 1.289893 34.712309 2.703955 34.951251 2.841053 C 35.190192 2.97815 35.570148 3.55396 35.809089 3.209258 C 36.051948 2.868472 36.439738 0.788508 36.682596 0.369381 C 36.921537 -0.0497454 37.309327 0.134357 37.552186 0.185279 C 37.795044 0.236201 38.182834 0.408552 38.421776 0.741503 C 38.660717 1.074454 39.04459 2.132063 39.283531 2.594277 C 39.522472 3.056492 39.902428 4.349125 40.14137 4.07493 C 40.384228 3.800735 40.772018 1.070537 41.010959 0.616157 C 41.253818 0.161776 41.645525 0.784591 41.884466 0.804176 C 42.119491 0.819844 42.487695 0.800259 42.722719 0.741503 C 42.953827 0.682747 43.325948 0.369381 43.560973 0.369381 C 43.799914 0.369381 44.191621 0.545649 44.430562 0.741503 C 44.673421 0.937356 45.053377 1.352566 45.292318 1.791278 C 45.531259 2.226073 45.922966 3.667555 46.161908 3.890828 C 46.400849 4.110184 46.780805 3.933916 47.023663 3.397277 C 47.262605 2.856721 47.662146 -0.135921 47.905004 0.00117653 C 48.147863 0.138274 48.535653 3.722394 48.774594 4.384379 C 49.013535 5.042447 49.393491 4.772169 49.632433 4.752584 C 49.875291 4.736915 50.263081 3.522623 50.505939 4.259033 C 50.744881 4.995442 51.132671 8.98302 51.375529 10.064132 C 51.61447 11.141326 52.006177 10.992477 52.245119 12.038335 C 52.48406 13.084193 52.852265 17.208869 53.083372 17.592742 C 53.318396 17.980532 53.686601 16.366699 53.925542 14.815539 C 54.160566 13.264379 54.552274 7.286928 54.795132 6.421256 C 55.034073 5.555583 55.414029 7.862738 55.65297 8.579562 C 55.895829 9.300303 56.283619 10.636024 56.526477 11.607458 C 56.765419 12.574974 57.141457 14.631436 57.384316 15.555865 C 57.627174 16.480294 58.022798 17.31463 58.265657 18.274312 C 58.508515 19.233995 58.896305 22.12871 59.135247 22.469495 C 59.374188 22.814197 59.754144 20.914418 59.997002 20.742067 C 60.235943 20.569716 60.623733 22.015115 60.866592 21.235618 C 61.10945 20.456121 61.493323 15.732133 61.736182 15.124987 C 61.97904 14.517841 62.370747 14.815539 62.605771 16.852416 C 62.844713 18.89321 63.212917 25.422967 63.447942 29.81792 C 63.679049 34.212874 64.047253 46.140355 64.286195 48.521934 C 64.521219 50.903513 64.916843 48.725622 65.155785 46.978608 C 65.394726 45.231594 65.774682 37.640311 66.01754 35.928551 C 66.256481 34.216791 66.648189 34.091445 66.88713 34.632 C 67.126071 35.172556 67.506027 38.987783 67.744968 39.818202 C 67.987827 40.648621 68.383451 35.858044 68.626309 40.621202 C 68.869168 45.38436 69.256958 69.012132 69.495899 74.143495 C 69.738757 79.27094 70.118713 75.972767 70.357655 77.598351 C 70.596596 79.227853 70.988303 87.277433 71.227244 85.871205 C 71.470103 84.464977 71.857893 71.303618 72.096834 67.472723 C 72.339693 63.645745 72.7314 63.543901 72.970341 58.27544 C 73.209282 53.00698 73.581404 30.178291 73.820345 29.508472 C 74.05537 28.838653 74.431408 50.19844 74.67035 53.46136 C 74.905374 56.72428 75.297081 52.180478 75.539939 53.030482 C 75.778881 53.87657 76.158837 59.05102 76.397778 59.571991 C 76.636719 60.096878 77.020592 56.485339 77.259534 56.794788 C 77.498475 57.104236 77.886265 61.554029 78.129123 61.796887 C 78.371982 62.035829 78.759772 59.070606 78.998713 58.522216 C 79.241572 57.973826 79.629362 59.411391 79.868303 57.844563 C 80.111161 56.277734 80.491117 47.750271 80.730058 47.225383 C 80.969 46.704413 81.348956 55.764598 81.591814 54.080257 C 81.830755 52.392 82.218545 34.33822 82.461404 35.062878 C 82.700345 35.791453 83.092052 58.972679 83.330994 59.325215 C 83.569935 59.677752 83.93814 39.120964 84.169247 37.597223 C 84.404271 36.069565 84.772476 44.362005 85.011417 48.337832 C 85.246441 52.309741 85.638148 62.650809 85.881007 66.238846 C 86.119948 69.826883 86.499904 76.822771 86.738845 74.202251 C 86.981704 71.58173 87.369494 50.261113 87.612352 47.35073 C 87.851293 44.436429 88.227332 51.921951 88.470191 53.214585 C 88.713049 54.507218 89.108673 59.387889 89.351532 56.669441 C 89.59439 53.954911 89.98218 31.709866 90.221121 33.644899 C 90.460063 35.579932 90.840018 65.533773 91.082877 70.622048 C 91.321818 75.710323 91.709608 69.474346 91.952467 70.312599 C 92.195325 71.15477 92.579198 76.407562 92.822056 76.673922 C 93.064915 76.936366 93.456622 70.35177 93.691646 72.228047 C 93.930587 74.104324 94.298792 89.188964 94.533816 90.191734 C 94.764924 91.194504 95.133128 82.330173 95.37207 79.451126 C 95.607094 76.572079 96.002718 70.837487 96.241659 69.450844 C 96.480601 68.064201 96.860556 70.273429 97.103415 69.450844 C 97.342356 68.628259 97.734063 64.578008 97.973005 63.524315 C 98.211946 62.470623 98.591902 61.514858 98.830843 61.855643 C 99.073702 62.200345 99.469326 63.442057 99.712184 65.99207 C 99.955042 68.546 100.342832 81.699524 100.581774 80.254125 C 100.824632 78.804809 101.204588 57.82106 101.443529 55.56091 C 101.682471 53.296843 102.074178 61.992741 102.313119 63.955193 C 102.555978 65.917646 102.943768 70.60638 103.182709 69.697619 C 103.425567 68.788859 103.817274 61.369926 104.056216 57.413685 C 104.29124 53.453526 104.659445 44.4756 104.894469 41.177426 C 105.125576 37.879252 105.497698 32.908489 105.732722 33.644899 C 105.971663 34.381308 106.36337 43.547254 106.602312 46.485057 C 106.84517 49.42286 107.225126 55.572662 107.464067 54.820584 C 107.703009 54.064589 108.094716 43.022366 108.333657 41.05208 C 108.572598 39.081793 108.952554 40.801387 109.195413 40.621202 C 109.434354 40.441017 109.833895 38.658749 110.076754 39.755529 C 110.319612 40.852309 110.707402 48.592441 110.946343 48.521934 C 111.185285 48.455344 111.565241 40.668207 111.804182 39.261978 C 112.04704 37.85575 112.43483 38.878105 112.677689 38.396306 C 112.91663 37.918423 113.30442 36.249751 113.547279 35.807122 C 113.78622 35.360576 114.177927 35.325322 114.416868 35.188224 C 114.65581 35.051127 115.031848 35.066795 115.266873 34.816103 C 115.501897 34.569327 115.881853 34.98062 116.116877 33.398123 C 116.351901 31.811709 116.724023 23.621114 116.966881 23.397841 C 117.205823 23.174568 117.605364 33.284528 117.848222 31.792124 C 118.087164 30.303637 118.455368 14.290651 118.698227 12.657233 C 118.937168 11.019897 119.332792 17.459562 119.575651 20.001741 C 119.818509 22.54392 120.210216 29.943267 120.449157 30.989124 C 120.688099 32.034982 121.056303 28.971833 121.299162 27.534268 C 121.538103 26.092786 121.937644 22.606593 122.176586 20.620638 C 122.419444 18.630766 122.787649 14.486505 123.02659 13.20954 C 123.269449 11.936492 123.665073 11.019897 123.907931 11.419438 C 124.150789 11.822897 124.542497 15.434436 124.777521 16.112089 C 125.016462 16.789742 125.376833 17.016933 125.60794 16.296192 C 125.839047 15.579368 126.22292 10.420585 126.457944 10.925887 C 126.692968 11.431189 127.069007 19.837224 127.307949 19.939067 C 127.54689 20.040911 127.946431 12.790413 128.18929 11.666214 C 128.428231 10.545931 128.796436 11.948243 129.039294 11.854233 C 129.278235 11.760223 129.673859 9.840859 129.916718 10.98856 C 130.163493 12.136262 130.559117 17.906108 130.798059 20.12317 C 131.040917 22.344149 131.409122 28.638882 131.648063 26.978044 C 131.890922 25.317206 132.286546 11.40377 132.529404 8.148684 C 132.772263 4.893598 133.148301 3.945667 133.39116 3.518706 C 133.630101 3.091745 134.025725 4.968022 134.268584 5.062032 C 134.515359 5.156042 134.907066 3.984838 135.14209 4.196359 C 135.377115 4.411798 135.737485 6.973563 135.968592 6.605358 C 136.203617 6.237153 136.583573 1.697268 136.818597 1.544502 C 137.053621 1.38782 137.42966 4.588067 137.668601 5.49291 C 137.907542 6.40167 138.311001 7.514119 138.549942 8.086011 C 138.788883 8.66182 139.161005 10.616439 139.399947 9.629337 C 139.638888 8.646152 140.034512 1.579756 140.281287 0.988278 C 140.524146 0.396801 140.91977 5.226549 141.162628 5.371481 C 141.40157 5.516412 141.769774 2.36317 142.012633 2.038053 C 142.251574 1.712937 142.651115 2.888058 142.890057 3.025155 C 143.132915 3.162253 143.508954 3.177921 143.751812 3.025155 C 143.994671 2.87239 144.390295 1.673766 144.633153 1.912707 C 144.876012 2.151648 145.267719 4.952354 145.502743 4.752584 C 145.737767 4.55673 146.098138 0.349796 146.333162 0.494727 C 146.564269 0.639659 146.944225 5.093369 147.183166 5.802359 C 147.418191 6.515265 147.790312 5.575168 148.029254 5.618256 C 148.272112 5.661344 148.671653 6.78946 148.910595 6.111807 C 149.153453 5.434154 149.521658 1.513166 149.760599 0.741503 C 150.003457 -0.03016 150.399082 0.616157 150.64194 0.557401 C 150.888715 0.494727 151.28434 0.29104 151.523281 0.306708 C 151.762222 0.326293 152.134344 0.686664 152.373285 0.67883 C 152.612227 0.670996 153.011768 0.298874 153.254626 0.247952 C 153.493568 0.19703 153.873524 0.212698 154.112465 0.306708 C 154.355323 0.404635 154.750947 0.435971 154.993806 0.925605 C 155.236664 1.415239 155.624454 3.937833 155.863396 3.828155 C 156.102337 3.71456 156.478376 0.526064 156.7134 0.122606 C 156.948424 -0.280853 157.32838 0.498645 157.563404 0.925605 C 157.798429 1.352566 158.174467 3.322853 158.413409 3.209258 C 158.65235 3.09958 159.055808 0.0716838 159.29475 0.122606 C 159.533691 0.173528 159.905813 3.076077 160.144754 3.581379 C 160.383695 4.086681 160.783237 3.62055 161.026095 3.765482 C 161.268953 3.910413 161.656743 5.101203 161.895685 4.631154 C 162.134626 4.157189 162.506748 -0.237765 162.745689 0.369381 C 162.98463 0.980444 163.384172 6.10789 163.62703 9.014357 C 163.865971 11.916906 164.234176 20.569716 164.477034 21.298291 C 164.715976 22.026866 165.1116 16.323611 165.354458 14.259315 C 165.601234 12.195018 165.992941 7.698221 166.227965 6.421256 C 166.462989 5.144291 166.82336 4.478389 167.054467 5.062032 C 167.289491 5.645676 167.669447 9.221961 167.904472 10.616439 C 168.139496 12.014833 168.515535 14.780285 168.754476 15.124987 C 168.993417 15.465772 169.396876 13.045023 169.635817 13.08811 C 169.874758 13.131198 170.24688 14.310237 170.485821 15.434436 C 170.724763 16.554718 171.120387 21.431471 171.367162 21.172945 C 171.610021 20.918335 172.005645 12.124511 172.248503 13.581661 C 172.487444 15.038812 172.855649 30.350642 173.098508 31.670695 C 173.337449 32.986831 173.73699 24.502455 173.975931 23.088392 C 174.21879 21.67433 174.594829 18.904961 174.837687 21.482393 C 175.080545 24.059826 175.47617 39.912212 175.719028 41.670977 C 175.961886 43.425825 176.353593 34.702508 176.588618 34.138449 C 176.823642 33.574391 177.184012 35.599517 177.419037 37.597223 C 177.650144 39.591012 178.0301 46.543813 178.269041 48.521934 C 178.504065 50.500055 178.876187 50.323786 179.119046 51.855361 C 179.357987 53.390853 179.757528 60.747112 179.996469 59.571991 C 180.239328 58.400787 180.607532 43.837117 180.846474 43.398405 C 181.089332 42.96361 181.484956 56.054461 181.727815 56.422666 C 181.97459 56.790871 182.370214 45.658555 182.609156 46.054179 C 182.848097 46.445886 183.220219 57.472441 183.45916 59.262542 C 183.698101 61.052644 184.097643 60.280981 184.340501 58.957011 C 184.579442 57.629124 184.959398 48.212485 185.19834 49.697055 C 185.441198 51.177708 185.836822 64.162798 186.079681 69.634946 C 186.322539 75.107094 186.714246 89.271223 186.94927 89.141959 C 187.188212 89.012696 187.548582 70.516287 187.779689 68.710517 C 188.010796 66.900831 188.394669 77.288903 188.629694 76.117698 C 188.864718 74.942577 189.240757 59.043186 189.479698 60.253561 C 189.718639 61.460019 190.118181 79.435457 190.361039 84.82143 C 190.59998 90.207402 190.968185 97.144535 191.211043 99.083485 C 191.449985 101.018518 191.845609 102.68719 192.088467 98.774037 C 192.335243 94.856966 192.730867 73.078051 192.969808 70.868823 C 193.212667 68.659595 193.580871 84.124191 193.819813 82.847226 C 194.062671 81.570261 194.458295 63.994364 194.701154 61.671541 C 194.944012 59.348718 195.320051 64.950129 195.562909 66.117416 C 195.801851 67.280786 196.197475 68.448074 196.44425 70.065824 C 196.687109 71.687491 197.074899 76.97162 197.31384 77.782454 C 197.552781 78.597204 197.924903 77.84121 198.163844 75.933596 C 198.398869 74.022065 198.774907 62.819243 199.013849 64.017866 C 199.248873 65.21649 199.620995 78.714716 199.859936 84.574655 C 200.102794 90.434593 200.502336 103.921068 200.741277 106.243891 C 200.984135 108.562797 201.35234 99.189246 201.591281 101.304464 C 201.83414 103.419683 202.229764 117.047172 202.472622 121.493048 C 202.715481 125.935006 203.103271 138.11318 203.342212 133.342187 C 203.581153 128.571195 203.953275 91.406026 204.192216 87.105082 C 204.435075 82.804138 204.834616 101.241791 205.073557 102.354239 C 205.312499 103.466687 205.68462 96.090843 205.923562 95.131161 C 206.162503 94.171478 206.562044 96.905594 206.804903 95.440609 C 207.047761 93.975625 207.439468 84.574655 207.674492 84.574655 C 207.909517 84.574655 208.269887 95.679551 208.504911 95.440609 C 208.736019 95.201668 209.115975 84.04585 209.354916 82.847226 C 209.58994 81.648603 210.20492 86.795634 210.20492 86.795634 " transform="matrix(0.997238, 0, 0, -0.997238, 20.715615, 166.794142)"/>
</g>
<g clip-path="url(#clip-3)">
<path fill="none" stroke-width="0.79701" stroke-linecap="butt" stroke-linejoin="miter" stroke="rgb(88.233948%, 31.373596%, 13.723755%)" stroke-opacity="1" stroke-miterlimit="10" d="M -1.728201 84.919357 C -1.728201 84.919357 -1.10147 75.185436 -0.862529 71.597399 C -0.623587 68.009362 -0.239714 60.179137 -0.000772973 59.054938 C 0.238168 57.930738 0.622041 63.359798 0.8649 63.500813 C 1.103841 63.637911 1.487714 61.166239 1.726655 60.065542 C 1.965597 58.968762 2.34947 56.559763 2.592328 55.584413 C 2.831269 54.609062 3.215142 52.047298 3.454084 53.042234 C 3.693025 54.03717 4.076898 62.051497 4.315839 62.752652 C 4.558698 63.449891 4.942571 58.16968 5.181512 58.083504 C 5.420453 57.997328 5.804326 61.773385 6.043267 62.129838 C 6.282209 62.482375 6.669999 59.885357 6.90894 60.645268 C 7.147881 61.409097 7.531754 69.474346 7.770696 67.629406 C 8.009637 65.784465 8.39351 49.340602 8.636368 47.354647 C 8.87531 45.372609 9.259183 52.113888 9.498124 53.324263 C 9.737065 54.534638 10.120938 56.348242 10.363797 56.085798 C 10.602738 55.823354 10.986611 52.662278 11.225552 51.436235 C 11.464494 50.210191 11.848367 47.906954 12.087308 47.237135 C 12.330166 46.567315 12.714039 45.51754 12.952981 46.610403 C 13.191922 47.699349 13.575795 54.65215 13.814736 55.110447 C 14.053677 55.564827 14.441467 50.977937 14.680409 49.900743 C 14.91935 48.819631 15.303223 47.762022 15.542164 47.338978 C 15.781106 46.912018 16.164979 46.594735 16.407837 46.84151 C 16.646778 47.092203 17.030651 48.948895 17.269593 49.132997 C 17.508534 49.317099 17.892407 48.608109 18.135265 48.16548 C 18.374207 47.722851 18.75808 45.227677 18.997021 45.948418 C 19.235962 46.669159 19.619835 51.988542 19.858777 53.355599 C 20.101635 54.722657 20.485508 56.030959 20.724449 55.799852 C 20.963391 55.572662 21.347263 52.799375 21.586205 51.706513 C 21.825146 50.617567 22.212936 48.921475 22.451877 47.934373 C 22.690819 46.947271 23.074692 45.047492 23.313633 44.597029 C 23.552574 44.142649 23.936447 44.487351 24.179306 44.671453 C 24.418247 44.851638 24.80212 45.756482 25.041061 45.905331 C 25.280003 46.050262 25.663876 45.971921 25.906734 45.725145 C 26.145675 45.47837 26.529548 44.557858 26.76849 44.12698 C 27.007431 43.696103 27.391304 42.998864 27.630245 42.614991 C 27.873104 42.227201 28.256977 41.463372 28.495918 41.349777 C 28.734859 41.232265 29.118732 41.580884 29.357673 41.788489 C 29.596615 41.992177 29.984405 41.937338 30.223346 42.838264 C 30.462287 43.73919 30.84616 47.883451 31.085102 48.282993 C 31.324043 48.678617 31.707916 46.308789 31.950774 45.693809 C 32.189716 45.078829 32.573589 43.938961 32.81253 43.848868 C 33.051471 43.762693 33.435344 45.133668 33.678203 45.059243 C 33.917144 44.984819 34.301017 43.703937 34.539958 43.304395 C 34.7789 42.904854 35.162773 42.544484 35.401714 42.176279 C 35.644572 41.808074 36.028445 40.879729 36.267387 40.652538 C 36.506328 40.425348 36.890201 40.511524 37.129142 40.538943 C 37.368083 40.566363 37.755874 40.734797 37.994815 40.848392 C 38.233756 40.961987 38.617629 41.18526 38.85657 41.361528 C 39.095512 41.537796 39.479385 41.976508 39.722243 42.109689 C 39.961184 42.238952 40.345057 42.235035 40.583999 42.305542 C 40.82294 42.37605 41.206813 42.524898 41.449671 42.626742 C 41.688613 42.728586 42.072486 42.959693 42.311427 43.026283 C 42.550368 43.096791 42.934241 43.171215 43.173183 43.120293 C 43.416041 43.069371 43.799914 42.677664 44.038855 42.658079 C 44.277797 42.638493 44.66167 42.865683 44.900611 42.971444 C 45.139552 43.081122 45.527342 43.519834 45.766284 43.429742 C 46.005225 43.339649 46.389098 42.517064 46.628039 42.329045 C 46.86698 42.144942 47.250853 42.199781 47.493712 42.094021 C 47.732653 41.992177 48.116526 41.400699 48.355467 41.584801 C 48.594409 41.764987 48.978282 43.002781 49.22114 43.410156 C 49.460081 43.821449 49.843954 44.24841 50.082896 44.534356 C 50.321837 44.820302 50.70571 45.070994 50.944651 45.474453 C 51.18751 45.873994 51.571383 46.778837 51.810324 47.436905 C 52.049265 48.091056 52.433138 49.51687 52.67208 50.194523 C 52.914938 50.872176 53.298811 52.172644 53.537752 52.313659 C 53.776694 52.454673 54.160566 51.984625 54.399508 51.212962 C 54.638449 50.441299 55.022322 47.542666 55.26518 46.743584 C 55.504122 45.944501 55.887995 45.740814 56.126936 45.454867 C 56.365877 45.168921 56.74975 44.170068 56.992609 44.683204 C 57.23155 45.192424 57.615423 48.557188 57.854364 49.140831 C 58.093306 49.720558 58.477179 48.753041 58.71612 48.866636 C 58.958978 48.984148 59.342851 49.779314 59.581793 49.97125 C 59.820734 50.167104 60.204607 50.124016 60.443548 50.26503 C 60.686407 50.402128 61.07028 50.731162 61.309221 50.966186 C 61.548162 51.205127 61.932035 51.902366 62.170976 51.972873 C 62.409918 52.043381 62.793791 50.590147 63.036649 51.479322 C 63.27559 52.368497 63.659463 54.867589 63.898405 58.36945 C 64.137346 61.871312 64.521219 75.142348 64.764077 76.709176 C 65.003019 78.276004 65.386892 72.114452 65.625833 69.666283 C 65.864774 67.218113 66.248647 60.519922 66.487589 59.066689 C 66.730447 57.609538 67.11432 59.293879 67.353261 59.176367 C 67.592203 59.062772 67.976076 57.746636 68.215017 58.240187 C 68.457875 58.729821 68.841748 59.219455 69.08069 62.72915 C 69.319631 66.234929 69.703504 80.442145 69.942445 83.505294 C 70.181386 86.572361 70.565259 83.258519 70.808118 84.82143 C 71.047059 86.384341 71.430932 94.414337 71.669873 94.759039 C 71.908815 95.107658 72.292688 88.930437 72.535546 87.328355 C 72.774487 85.726273 73.15836 86.172819 73.397302 83.211514 C 73.636243 80.246291 74.020116 67.601986 74.259057 65.968568 C 74.501916 64.335149 74.885789 70.884492 75.12473 71.432882 C 75.363671 71.981272 75.747544 69.431258 75.986486 69.920892 C 76.229344 70.406609 76.613217 74.331514 76.852158 74.942577 C 77.0911 75.557557 77.474973 72.937037 77.713914 74.327597 C 77.952855 75.71424 78.340645 85.338483 78.579587 84.950693 C 78.818528 84.562903 79.202401 72.741183 79.441342 71.522974 C 79.680283 70.308682 80.064156 75.561474 80.307015 76.180372 C 80.545956 76.795352 80.929829 76.16862 81.16877 75.976684 C 81.407712 75.78083 81.791585 76.058942 82.030526 74.789811 C 82.273384 73.52068 82.657257 66.344607 82.896199 66.83424 C 83.13514 67.319957 83.519013 78.624624 83.757954 78.29559 C 84.000813 77.966556 84.384686 65.780548 84.623627 64.456578 C 84.862568 63.132608 85.246441 66.987006 85.485383 68.745771 C 85.724324 70.504536 86.112114 75.416543 86.351055 77.136137 C 86.589997 78.855731 86.973869 82.353675 87.212811 81.135466 C 87.451752 79.917257 87.835625 69.725039 88.078483 68.361898 C 88.317425 67.002674 88.701298 70.962833 88.940239 71.319287 C 89.17918 71.67574 89.563053 72.020442 89.801995 70.931497 C 90.044853 69.842551 90.428726 61.941819 90.667667 63.481228 C 90.906609 65.020637 91.290482 78.084068 91.529423 82.020724 C 91.772281 85.953463 92.156154 90.540354 92.395096 91.848655 C 92.634037 93.15304 93.01791 90.234822 93.256851 91.425612 C 93.495793 92.620318 93.883583 98.546846 94.122524 100.434875 C 94.361465 102.318986 94.745338 106.07154 94.984279 105.025682 C 95.223221 103.983741 95.607094 95.150746 95.849952 92.910181 C 96.088893 90.6657 96.472766 90.606944 96.711708 88.85993 C 96.950649 87.112916 97.334522 82.169573 97.573463 80.320716 C 97.816322 78.471858 98.200195 74.879904 98.439136 75.541889 C 98.678077 76.207791 99.06195 84.911523 99.300892 85.099542 C 99.54375 85.287561 99.927623 76.149035 100.166564 76.893278 C 100.405506 77.641439 100.789379 87.876745 101.02832 90.481597 C 101.267261 93.090367 101.655051 94.896136 101.893993 95.679551 C 102.132934 96.466882 102.516807 95.797063 102.755748 96.141765 C 102.994689 96.490384 103.378562 99.345929 103.621421 98.166891 C 103.860362 96.991769 104.244235 90.238739 104.483176 87.661306 C 104.722118 85.083874 105.105991 80.880857 105.344932 79.588223 C 105.58779 78.291673 105.971663 78.323009 106.210605 78.334761 C 106.449546 78.342595 106.833419 80.254125 107.07236 79.666565 C 107.315219 79.079004 107.699092 74.155246 107.938033 74.112158 C 108.176974 74.06907 108.560847 80.469564 108.799789 79.353199 C 109.03873 78.232917 109.42652 67.989776 109.665461 66.054743 C 109.904403 64.11971 110.288276 65.823636 110.527217 65.392758 C 110.766158 64.965798 111.150031 63.128691 111.39289 62.960257 C 111.631831 62.79574 112.015704 63.543901 112.254645 64.201969 C 112.493586 64.860037 112.877459 66.979172 113.116401 67.707747 C 113.359259 68.440239 113.743132 69.9914 113.982073 69.474346 C 114.221015 68.957293 114.604888 64.738607 114.843829 63.978696 C 115.086687 63.222701 115.47056 65.067641 115.709502 64.021783 C 115.948443 62.975926 116.332316 57.319675 116.571257 56.442251 C 116.810199 55.564827 117.197989 57.523363 117.43693 57.68788 C 117.675871 57.856314 118.059744 58.620143 118.298686 57.633041 C 118.537627 56.649856 118.9215 51.193376 119.164358 50.590147 C 119.4033 49.986918 119.787172 53.00698 120.026114 53.281175 C 120.265055 53.55537 120.648928 52.466424 120.887869 52.564351 C 121.130728 52.662278 121.514601 53.900072 121.753542 53.986248 C 121.992483 54.072423 122.376356 53.94316 122.615298 53.183248 C 122.858156 52.423336 123.242029 49.438528 123.48097 48.510183 C 123.719912 47.57792 124.103785 46.582984 124.342726 46.477223 C 124.581667 46.375379 124.969457 47.621008 125.208399 47.762022 C 125.44734 47.906954 125.831213 47.734603 126.070154 47.503495 C 126.309096 47.272388 126.692968 45.768233 126.935827 46.109018 C 127.174768 46.445886 127.558641 50.041757 127.797582 49.947748 C 128.036524 49.853738 128.420397 45.956252 128.659338 45.435282 C 128.902196 44.914312 129.286069 45.854409 129.525011 46.195194 C 129.763952 46.535979 130.147825 47.601422 130.386766 47.891285 C 130.629625 48.185066 131.013498 46.771003 131.252439 48.306495 C 131.49138 49.841987 131.875253 59.109777 132.114195 58.949177 C 132.353136 58.788577 132.740926 49.144748 132.979867 47.158793 C 133.218809 45.168921 133.602682 45.02399 133.841623 44.620531 C 134.080564 44.22099 134.464437 44.456014 134.707296 44.264078 C 134.946237 44.068224 135.33011 43.226054 135.569051 43.21822 C 135.807992 43.214303 136.191865 44.369839 136.430807 44.22099 C 136.673665 44.068224 137.057538 42.28204 137.296479 42.141025 C 137.535421 41.996094 137.919294 42.96361 138.158235 43.194717 C 138.401093 43.425825 138.784966 43.570756 139.023908 43.797946 C 139.262849 44.029054 139.646722 44.969151 139.885663 44.855555 C 140.124605 44.74196 140.512395 43.280893 140.751336 42.971444 C 140.990277 42.661996 141.37415 42.752088 141.613092 42.626742 C 141.852033 42.505313 142.235906 42.039182 142.478764 42.082269 C 142.717706 42.125357 143.101579 42.869601 143.34052 42.940108 C 143.579461 43.014532 143.963334 42.567986 144.202275 42.607157 C 144.445134 42.650245 144.829007 43.026283 145.067948 43.245639 C 145.306889 43.464995 145.690762 44.142649 145.929704 44.189653 C 146.172562 44.236658 146.556435 43.582507 146.795376 43.57859 C 147.034318 43.570756 147.418191 43.989883 147.657132 44.150483 C 147.896073 44.311083 148.283863 44.753712 148.522805 44.738043 C 148.761746 44.722375 149.145619 44.401175 149.38456 44.029054 C 149.623502 43.656932 150.007375 42.407386 150.250233 42.058767 C 150.489174 41.710148 150.873047 41.608304 151.111989 41.514294 C 151.35093 41.424201 151.734803 41.326275 151.973744 41.392865 C 152.216603 41.455538 152.600475 41.945172 152.839417 41.980425 C 153.078358 42.015679 153.462231 41.459455 153.701172 41.643557 C 153.944031 41.831577 154.327904 43.026283 154.566845 43.323981 C 154.805786 43.621678 155.189659 43.60601 155.428601 43.786195 C 155.667542 43.970297 156.055332 44.647951 156.294273 44.644034 C 156.533215 44.644034 156.917088 43.950712 157.156029 43.770527 C 157.39497 43.586425 157.778843 43.44541 158.021702 43.331815 C 158.260643 43.214303 158.644516 43.026283 158.883457 42.940108 C 159.122399 42.857849 159.506271 42.712918 159.745213 42.724669 C 159.988071 42.73642 160.371944 43.006698 160.610885 43.026283 C 160.849827 43.049786 161.2337 42.716835 161.472641 42.885269 C 161.715499 43.053703 162.099372 44.146566 162.338314 44.236658 C 162.577255 44.330668 162.961128 43.308312 163.200069 43.559005 C 163.439011 43.809698 163.826801 44.373756 164.065742 46.046345 C 164.304683 47.722851 164.688556 54.542472 164.927498 55.6275 C 165.166439 56.716446 165.550312 55.083028 165.79317 53.880487 C 166.032112 52.677946 166.415985 48.071471 166.654926 46.959023 C 166.893867 45.850492 167.27774 45.846574 167.516681 45.881828 C 167.75954 45.917082 168.143413 47.178379 168.382354 47.213632 C 168.621295 47.248886 169.005168 46.210862 169.24411 46.140355 C 169.486968 46.06593 169.870841 46.261784 170.109782 46.696579 C 170.348724 47.127457 170.732597 48.811797 170.971538 49.270094 C 171.210479 49.724475 171.598269 50.147518 171.837211 49.986918 C 172.076152 49.826318 172.460025 47.558334 172.698966 48.110641 C 172.937908 48.659031 173.321781 52.916887 173.564639 53.954911 C 173.80358 54.992935 174.187453 55.662754 174.426395 55.592247 C 174.665336 55.517823 175.049209 52.337161 175.28815 53.441775 C 175.531009 54.546389 175.914882 62.051497 176.153823 63.547818 C 176.392764 65.044139 176.776637 63.700584 177.015578 64.233305 C 177.258437 64.766027 177.64231 66.203592 177.881251 67.38263 C 178.120192 68.557752 178.504065 70.876658 178.743007 72.713764 C 178.981948 74.554787 179.369738 79.255272 179.608679 80.641915 C 179.847621 82.028558 180.231494 83.955757 180.470435 82.710129 C 180.709376 81.4645 181.093249 72.369062 181.336108 71.652238 C 181.575049 70.939331 181.958922 77.371161 182.197863 77.547429 C 182.436805 77.727615 182.820678 72.149706 183.063536 72.925286 C 183.302477 73.700866 183.68635 81.887544 183.925292 83.148841 C 184.164233 84.410138 184.548106 82.960821 184.787047 82.005056 C 185.029906 81.053208 185.413778 74.93866 185.65272 76.278298 C 185.891661 77.61402 186.275534 86.603697 186.514475 91.648885 C 186.753417 96.694072 187.141207 110.619259 187.380148 112.644385 C 187.619089 114.66951 188.002962 108.374777 188.241904 106.236057 C 188.480845 104.101253 188.864718 99.494778 189.107576 97.250296 C 189.346518 95.001897 189.730391 90.172149 189.969332 90.042885 C 190.208273 89.917539 190.592146 94.911805 190.835005 96.329784 C 191.073946 97.743847 191.457819 98.409749 191.69676 100.246855 C 191.935702 102.087879 192.319574 110.321562 192.558516 109.596903 C 192.801374 108.868328 193.185247 96.886008 193.424188 95.021483 C 193.66313 93.15304 194.047003 97.199374 194.285944 96.141765 C 194.524885 95.088073 194.912675 87.528126 195.151617 87.406697 C 195.390558 87.289185 195.774431 93.775854 196.013372 95.291761 C 196.252314 96.807667 196.636187 97.504906 196.879045 98.32749 C 197.117986 99.153992 197.501859 100.035333 197.740801 101.237874 C 197.979742 102.436498 198.363615 107.724544 198.606473 106.972466 C 198.845415 106.216471 199.229288 96.795916 199.468229 95.804897 C 199.70717 94.813878 200.091043 96.980018 200.329984 99.823812 C 200.572843 102.663688 200.956716 114.285637 201.195657 116.287261 C 201.434598 118.288884 201.818471 113.365126 202.057413 114.24255 C 202.296354 115.123891 202.684144 117.434962 202.923085 122.621164 C 203.162027 127.807366 203.5459 151.77984 203.784841 151.615323 C 204.023782 151.450806 204.407655 123.404578 204.650514 121.434292 C 204.889455 119.467922 205.273328 137.153497 205.512269 137.431609 C 205.751211 137.709721 206.135084 125.637309 206.377942 123.435915 C 206.616883 121.234521 207.000756 122.456647 207.239698 121.551804 C 207.478639 120.646961 207.862512 117.995103 208.101453 116.917909 C 208.344312 115.836797 208.728185 115.973895 208.967126 113.780335 C 209.206067 111.586775 209.58994 103.000556 209.828881 101.108611 C 210.067823 99.212748 210.694554 100.137177 210.694554 100.137177 " transform="matrix(0.997238, 0, 0, -0.997238, 20.715615, 166.794142)"/>
</g>
<g fill="rgb(0%, 0%, 0%)" fill-opacity="1">
<use xlink:href="#glyph-1-0" x="109.875628" y="203.592206"/>
</g>
<g fill="rgb(0%, 0%, 0%)" fill-opacity="1">
<use xlink:href="#glyph-1-1" x="114.382199" y="203.592206"/>
<use xlink:href="#glyph-1-1" x="119.800815" y="203.592206"/>
<use xlink:href="#glyph-1-2" x="125.219431" y="203.592206"/>
<use xlink:href="#glyph-1-3" x="129.779652" y="203.592206"/>
<use xlink:href="#glyph-1-4" x="134.339874" y="203.592206"/>
</g>
<path fill-rule="nonzero" fill="rgb(100%, 100%, 100%)" fill-opacity="1" stroke-width="0.3985" stroke-linecap="butt" stroke-linejoin="miter" stroke="rgb(0%, 0%, 0%)" stroke-opacity="1" stroke-miterlimit="10" d="M 4.343259 134.865928 L 91.568594 134.865928 L 91.568594 162.943492 L 4.343259 162.943492 Z M 4.343259 134.865928 " transform="matrix(0.997238, 0, 0, -0.997238, 20.715615, 166.794142)"/>
<path fill="none" stroke-width="0.79701" stroke-linecap="butt" stroke-linejoin="miter" stroke="rgb(0%, 62.745667%, 86.274719%)" stroke-opacity="1" stroke-miterlimit="10" d="M -0.001475 0.00124802 C -0.001475 0.00124802 6.144409 0.00124802 8.502486 0.00124802 C 10.86448 0.00124802 17.006447 0.00124802 17.006447 0.00124802 " transform="matrix(0.997238, 0, 0, -0.997238, 28.427252, 12.29812)"/>
<g fill="rgb(0%, 0%, 0%)" fill-opacity="1">
<use xlink:href="#glyph-1-5" x="47.772662" y="14.975702"/>
<use xlink:href="#glyph-1-6" x="52.350767" y="14.975702"/>
<use xlink:href="#glyph-1-1" x="57.259711" y="14.975702"/>
<use xlink:href="#glyph-1-1" x="62.678327" y="14.975702"/>
<use xlink:href="#glyph-1-3" x="68.096943" y="14.975702"/>
<use xlink:href="#glyph-1-1" x="72.657164" y="14.975702"/>
<use xlink:href="#glyph-1-7" x="78.07578" y="14.975702"/>
<use xlink:href="#glyph-1-3" x="83.548046" y="14.975702"/>
<use xlink:href="#glyph-1-8" x="88.108267" y="14.975702"/>
</g>
<g fill="rgb(0%, 0%, 0%)" fill-opacity="1">
<use xlink:href="#glyph-1-9" x="92.373415" y="14.975702"/>
</g>
<g fill="rgb(0%, 0%, 0%)" fill-opacity="1">
<use xlink:href="#glyph-1-3" x="97.085644" y="14.975702"/>
<use xlink:href="#glyph-1-1" x="101.645865" y="14.975702"/>
</g>
<path fill="none" stroke-width="0.79701" stroke-linecap="butt" stroke-linejoin="miter" stroke="rgb(88.233948%, 31.373596%, 13.723755%)" stroke-opacity="1" stroke-miterlimit="10" d="M -0.001475 0.00125498 C -0.001475 0.00125498 6.144409 0.00125498 8.502486 0.00125498 C 10.86448 0.00125498 17.006447 0.00125498 17.006447 0.00125498 " transform="matrix(0.997238, 0, 0, -0.997238, 28.427252, 24.309845)"/>
<g fill="rgb(0%, 0%, 0%)" fill-opacity="1">
<use xlink:href="#glyph-1-7" x="47.772662" y="26.988425"/>
</g>
<g fill="rgb(0%, 0%, 0%)" fill-opacity="1">
<use xlink:href="#glyph-1-10" x="53.155512" y="26.988425"/>
<use xlink:href="#glyph-1-11" x="58.368471" y="26.988425"/>
</g>
</svg>
