<svg version="1.1" xmlns="http://www.w3.org/2000/svg" xmlns:xlink="http://www.w3.org/1999/xlink" width="417.850531pt" height="260.385116pt" viewBox="76.712329 52.80199 417.850531 260.385116">
<defs>
<path id="g0-65" d="M4.722291-6.694894C4.612702-6.953923 4.493151-6.953923 4.323786-6.953923C4.044832-6.953923 4.004981-6.874222 3.935243-6.694894L1.464508-.697385C1.404732-.547945 1.374844-.468244 .617684-.468244H.408468V0C.787049-.009963 1.265255-.029888 1.574097-.029888C1.96264-.029888 2.520548-.029888 2.889166 0V-.468244C2.86924-.468244 2.002491-.468244 2.002491-.597758C2.002491-.607721 2.032379-.707347 2.042341-.71731L2.540473-1.92279H5.210461L5.808219-.468244H4.861768V0C5.240349-.029888 6.1868-.029888 6.615193-.029888C7.013699-.029888 7.890411-.029888 8.239103 0V-.468244H7.272727L4.722291-6.694894ZM3.875467-5.160648L5.011208-2.391034H2.739726L3.875467-5.160648Z"/>
<path id="g0-66" d="M2.769614-3.73599V-6.366127H4.582814C5.589041-6.366127 5.768369-5.579078 5.768369-5.120797C5.768369-4.353674 5.290162-3.73599 4.323786-3.73599H2.769614ZM5.459527-3.566625C6.535492-3.755915 7.183064-4.353674 7.183064-5.120797C7.183064-6.03736 6.316314-6.834371 4.712329-6.834371H.388543V-6.366127H1.464508V-.468244H.388543V0H5.011208C6.665006 0 7.501868-.876712 7.501868-1.853051C7.501868-2.809465 6.645081-3.476961 5.459527-3.566625ZM4.60274-.468244H2.769614V-3.377335H4.702366C4.901619-3.377335 5.369863-3.377335 5.708593-2.948941C6.03736-2.530511 6.03736-1.972603 6.03736-1.863014C6.03736-1.743462 6.03736-.468244 4.60274-.468244Z"/>
<path id="g0-83" d="M4.004981-4.124533L2.560399-4.433375C2.161893-4.523039 1.603985-4.861768 1.603985-5.469489C1.603985-5.897883 1.882939-6.515567 2.879203-6.515567C3.676214-6.515567 4.682441-6.176837 4.911582-4.821918C4.951432-4.582814 4.951432-4.562889 5.160648-4.562889C5.399751-4.562889 5.399751-4.612702 5.399751-4.841843V-6.665006C5.399751-6.854296 5.399751-6.94396 5.220423-6.94396C5.140722-6.94396 5.13076-6.933998 5.021171-6.834371L4.572852-6.396015C3.995019-6.854296 3.347447-6.94396 2.86924-6.94396C1.354919-6.94396 .637609-5.987547 .637609-4.941469C.637609-4.293898 .966376-3.835616 1.175592-3.616438C1.663761-3.128269 2.002491-3.058531 3.088418-2.819427C3.965131-2.630137 4.134496-2.600249 4.353674-2.391034C4.503113-2.241594 4.752179-1.982565 4.752179-1.524284C4.752179-1.046077 4.493151-.358655 3.457036-.358655C2.699875-.358655 1.185554-.557908 1.105853-2.042341C1.09589-2.221669 1.09589-2.271482 .876712-2.271482C.637609-2.271482 .637609-2.211706 .637609-1.982565V-.169365C.637609 .019925 .637609 .109589 .816936 .109589C.9066 .109589 .926526 .089664 1.006227 .019925L1.464508-.438356C2.122042 .049813 3.048568 .109589 3.457036 .109589C5.100872 .109589 5.718555-1.016189 5.718555-2.022416C5.718555-3.128269 4.911582-3.935243 4.004981-4.124533Z"/>
<path id="g0-85" d="M7.342466-6.07721C7.342466-6.296389 7.352428-6.306351 7.631382-6.336239C7.870486-6.366127 7.890411-6.366127 8.169365-6.366127H8.418431V-6.834371C8.039851-6.804483 7.47198-6.804483 7.083437-6.804483C6.665006-6.804483 6.146949-6.804483 5.738481-6.834371V-6.366127H5.987547C6.166874-6.366127 6.336239-6.356164 6.515567-6.336239C6.804483-6.306351 6.814446-6.296389 6.814446-6.07721V-2.321295C6.814446-.846824 5.728518-.358655 4.64259-.358655C2.899128-.358655 2.879203-1.663761 2.879203-2.221669V-6.366127H3.955168V-6.834371C3.576588-6.804483 2.600249-6.804483 2.171856-6.804483S.767123-6.804483 .388543-6.834371V-6.366127H1.464508V-2.30137C1.464508-.976339 2.540473 .109589 4.60274 .109589C6.495641 .109589 7.342466-1.05604 7.342466-2.281445V-6.07721Z"/>
<path id="g0-97" d="M3.726027-.767123C3.726027-.458281 3.726027 0 4.762142 0H5.240349C5.439601 0 5.559153 0 5.559153-.239103C5.559153-.468244 5.429639-.468244 5.300125-.468244C4.692403-.478207 4.692403-.607721 4.692403-.836862V-2.978829C4.692403-3.865504 3.985056-4.513076 2.500623-4.513076C1.932752-4.513076 .71731-4.473225 .71731-3.596513C.71731-3.158157 1.066002-2.968867 1.334994-2.968867C1.643836-2.968867 1.96264-3.178082 1.96264-3.596513C1.96264-3.895392 1.77335-4.064757 1.743462-4.084682C2.022416-4.144458 2.34122-4.154421 2.460772-4.154421C3.20797-4.154421 3.556663-3.73599 3.556663-2.978829V-2.6401C2.849315-2.610212 .318804-2.520548 .318804-1.075965C.318804-.119552 1.554172 .059776 2.241594 .059776C3.038605 .059776 3.506849-.348692 3.726027-.767123ZM3.556663-2.331258V-1.384807C3.556663-.428394 2.6401-.298879 2.391034-.298879C1.882939-.298879 1.484433-.647572 1.484433-1.085928C1.484433-2.161893 3.058531-2.30137 3.556663-2.331258Z"/>
<path id="g0-98" d="M2.132005-3.995019V-6.914072L.368618-6.834371V-6.366127C.986301-6.366127 1.05604-6.366127 1.05604-5.977584V0H1.524284L2.012453-.557908C2.092154-.478207 2.580324 .059776 3.466999 .059776C4.951432 .059776 5.977584-.836862 5.977584-2.221669C5.977584-3.5467 5.041096-4.483188 3.596513-4.483188C2.86924-4.483188 2.371108-4.194271 2.132005-3.995019ZM2.191781-.986301V-3.486924C2.460772-3.835616 2.938979-4.124533 3.486924-4.124533C4.702366-4.124533 4.702366-2.919054 4.702366-2.221669C4.702366-1.753425 4.702366-1.205479 4.443337-.816936C4.154421-.408468 3.696139-.298879 3.377335-.298879C2.67995-.298879 2.291407-.836862 2.191781-.986301Z"/>
<path id="g0-100" d="M4.164384-.428394V.059776L5.987547 0V-.468244C5.369863-.468244 5.300125-.468244 5.300125-.856787V-6.914072L3.536737-6.834371V-6.366127C4.154421-6.366127 4.224159-6.366127 4.224159-5.977584V-4.034869C3.726027-4.423412 3.20797-4.483188 2.879203-4.483188C1.424658-4.483188 .37858-3.606476 .37858-2.201743C.37858-.886675 1.295143 .059776 2.769614 .059776C3.377335 .059776 3.855542-.179328 4.164384-.428394ZM4.164384-3.516812V-1.026152C4.034869-.846824 3.626401-.298879 2.86924-.298879C1.653798-.298879 1.653798-1.504359 1.653798-2.201743C1.653798-2.67995 1.653798-3.217933 1.912827-3.606476C2.201743-4.024907 2.669988-4.124533 2.978829-4.124533C3.5467-4.124533 3.945205-3.805729 4.164384-3.516812Z"/>
<path id="g0-101" d="M4.60274-2.171856C4.821918-2.171856 4.921544-2.171856 4.921544-2.440847C4.921544-2.749689 4.861768-3.476961 4.363636-3.975093C3.995019-4.333748 3.466999-4.513076 2.779577-4.513076C1.185554-4.513076 .318804-3.486924 .318804-2.241594C.318804-.9066 1.315068 .059776 2.919054 .059776C4.493151 .059776 4.921544-.996264 4.921544-1.165629C4.921544-1.344956 4.732254-1.344956 4.682441-1.344956C4.513076-1.344956 4.493151-1.295143 4.433375-1.135741C4.224159-.657534 3.656289-.33873 3.008717-.33873C1.603985-.33873 1.594022-1.663761 1.594022-2.171856H4.60274ZM1.594022-2.500623C1.613948-2.889166 1.62391-3.307597 1.833126-3.636364C2.092154-4.034869 2.49066-4.154421 2.779577-4.154421C3.945205-4.154421 3.965131-2.849315 3.975093-2.500623H1.594022Z"/>
<path id="g0-102" d="M1.165629-4.423412H.418431V-3.955168H1.165629V-.468244H.478207V0C.826899-.009963 1.275218-.029888 1.733499-.029888C2.11208-.029888 2.749689-.029888 3.108344 0V-.468244H2.241594V-3.955168H3.387298V-4.423412H2.181818V-5.429639C2.181818-6.525529 2.938979-6.615193 3.188045-6.615193C3.237858-6.615193 3.287671-6.615193 3.35741-6.595268C3.20797-6.485679 3.128269-6.296389 3.128269-6.107098C3.128269-5.678705 3.476961-5.489415 3.73599-5.489415C4.034869-5.489415 4.353674-5.69863 4.353674-6.107098C4.353674-6.525529 3.995019-6.973848 3.217933-6.973848C2.241594-6.973848 1.165629-6.555417 1.165629-5.429639V-4.423412Z"/>
<path id="g0-103" d="M2.540473-1.892902C1.663761-1.892902 1.663761-2.560399 1.663761-3.008717S1.663761-4.124533 2.540473-4.124533S3.417186-3.457036 3.417186-3.008717S3.417186-1.892902 2.540473-1.892902ZM1.325031-1.793275C1.783313-1.554172 2.291407-1.534247 2.540473-1.534247C3.975093-1.534247 4.523039-2.311333 4.523039-3.008717C4.523039-3.476961 4.273973-3.805729 4.124533-3.965131C4.423412-4.124533 4.632628-4.144458 4.742217-4.154421C4.722291-4.104608 4.702366-4.014944 4.702366-3.955168C4.702366-3.706102 4.871731-3.526775 5.13076-3.526775S5.559153-3.716065 5.559153-3.955168C5.559153-4.184309 5.389788-4.533001 4.931507-4.533001C4.782067-4.533001 4.313823-4.503113 3.875467-4.154421C3.696139-4.273973 3.277709-4.483188 2.540473-4.483188C1.105853-4.483188 .557908-3.706102 .557908-3.008717C.557908-2.600249 .757161-2.191781 1.075965-1.96264C.797011-1.613948 .737235-1.285181 .737235-1.075965C.737235-.926526 .777086-.438356 1.175592-.119552C1.046077-.089664 .318804 .119552 .318804 .747198C.318804 1.255293 .86675 2.002491 2.859278 2.002491C4.622665 2.002491 5.399751 1.414695 5.399751 .71731C5.399751 .418431 5.32005-.209215 4.652553-.547945C4.094645-.826899 3.496887-.826899 2.540473-.826899C2.281445-.826899 1.823163-.826899 1.77335-.836862C1.334994-.9066 1.225405-1.285181 1.225405-1.464508C1.225405-1.564134 1.265255-1.713574 1.325031-1.793275ZM1.942715 .129514H3.108344C3.417186 .129514 4.542964 .129514 4.542964 .747198C4.542964 1.105853 4.154421 1.643836 2.859278 1.643836C1.663761 1.643836 1.175592 1.185554 1.175592 .727273C1.175592 .129514 1.803238 .129514 1.942715 .129514Z"/>
<path id="g0-104" d="M1.135741-.468244H.448319V0C.727273-.009963 1.325031-.029888 1.703611-.029888C2.092154-.029888 2.67995-.009963 2.958904 0V-.468244H2.271482V-2.550436C2.271482-3.636364 3.128269-4.124533 3.755915-4.124533C4.094645-4.124533 4.303861-3.915318 4.303861-3.158157V-.468244H3.616438V0C3.895392-.009963 4.493151-.029888 4.871731-.029888C5.260274-.029888 5.84807-.009963 6.127024 0V-.468244H5.439601V-3.048568C5.439601-4.094645 4.901619-4.483188 3.905355-4.483188C2.948941-4.483188 2.440847-3.905355 2.211706-3.506849V-6.914072L.448319-6.834371V-6.366127C1.066002-6.366127 1.135741-6.366127 1.135741-5.977584V-.468244Z"/>
<path id="g0-105" d="M2.231631-4.483188L.498132-4.403487V-3.935243C1.085928-3.935243 1.155666-3.935243 1.155666-3.5467V-.468244H.468244V0C.777086-.009963 1.265255-.029888 1.683686-.029888C1.982565-.029888 2.49066-.009963 2.849315 0V-.468244H2.231631V-4.483188ZM2.331258-6.146949C2.331258-6.585305 1.972603-6.924035 1.554172-6.924035C1.125778-6.924035 .777086-6.575342 .777086-6.146949S1.125778-5.369863 1.554172-5.369863C1.972603-5.369863 2.331258-5.708593 2.331258-6.146949Z"/>
<path id="g0-107" d="M2.132005-2.361146V-6.914072L.368618-6.834371V-6.366127C.986301-6.366127 1.05604-6.366127 1.05604-5.977584V-.468244H.368618V0C.737235-.009963 1.205479-.029888 1.564134-.029888C1.932752-.029888 2.410959-.009963 2.769614 0V-.468244H2.082192V-1.733499C2.371108-1.96264 2.450809-2.022416 2.650062-2.161893L3.656289-.9066C3.745953-.787049 3.905355-.587796 3.905355-.557908C3.905355-.468244 3.726027-.468244 3.596513-.468244V0C3.895392-.019925 4.762142-.029888 4.811955-.029888C5.17061-.029888 5.50934-.019925 5.84807 0V-.468244H5.678705C5.250311-.468244 5.220423-.508095 5.090909-.667497L3.407223-2.769614L4.702366-3.775841C4.841843-3.88543 4.931507-3.955168 5.599004-3.955168V-4.423412C5.330012-4.393524 5.080946-4.393524 4.821918-4.393524C4.552927-4.393524 3.905355-4.41345 3.676214-4.423412V-3.955168C3.905355-3.955168 3.935243-3.92528 4.014944-3.845579L2.132005-2.361146Z"/>
<path id="g0-108" d="M2.231631-6.914072L.468244-6.834371V-6.366127C1.085928-6.366127 1.155666-6.366127 1.155666-5.977584V-.468244H.468244V0C.787049-.009963 1.265255-.029888 1.693649-.029888S2.580324-.009963 2.919054 0V-.468244H2.231631V-6.914072Z"/>
<path id="g0-109" d="M1.135741-3.5467V-.468244H.448319V0C.727273-.009963 1.325031-.029888 1.703611-.029888C2.092154-.029888 2.67995-.009963 2.958904 0V-.468244H2.271482V-2.550436C2.271482-3.636364 3.138232-4.124533 3.755915-4.124533C4.094645-4.124533 4.313823-3.92528 4.313823-3.158157V-.468244H3.626401V0C3.905355-.009963 4.503113-.029888 4.881694-.029888C5.270237-.029888 5.858032-.009963 6.136986 0V-.468244H5.449564V-2.550436C5.449564-3.636364 6.316314-4.124533 6.933998-4.124533C7.272727-4.124533 7.491905-3.92528 7.491905-3.158157V-.468244H6.804483V0C7.083437-.009963 7.681196-.029888 8.059776-.029888C8.448319-.029888 9.036115-.009963 9.315068 0V-.468244H8.627646V-3.048568C8.627646-4.07472 8.119552-4.483188 7.0934-4.483188C6.1868-4.483188 5.668742-3.985056 5.409714-3.526775C5.210461-4.4533 4.293898-4.483188 3.915318-4.483188C3.048568-4.483188 2.480697-4.034869 2.161893-3.407223V-4.483188L.448319-4.403487V-3.935243C1.066002-3.935243 1.135741-3.935243 1.135741-3.5467Z"/>
<path id="g0-110" d="M1.135741-3.5467V-.468244H.448319V0C.727273-.009963 1.325031-.029888 1.703611-.029888C2.092154-.029888 2.67995-.009963 2.958904 0V-.468244H2.271482V-2.550436C2.271482-3.636364 3.128269-4.124533 3.755915-4.124533C4.094645-4.124533 4.303861-3.915318 4.303861-3.158157V-.468244H3.616438V0C3.895392-.009963 4.493151-.029888 4.871731-.029888C5.260274-.029888 5.84807-.009963 6.127024 0V-.468244H5.439601V-3.048568C5.439601-4.094645 4.901619-4.483188 3.905355-4.483188C2.948941-4.483188 2.420922-3.915318 2.161893-3.407223V-4.483188L.448319-4.403487V-3.935243C1.066002-3.935243 1.135741-3.935243 1.135741-3.5467Z"/>
<path id="g0-111" d="M5.399751-2.171856C5.399751-3.506849 4.483188-4.513076 2.859278-4.513076C1.225405-4.513076 .318804-3.496887 .318804-2.171856C.318804-.936488 1.195517 .059776 2.859278 .059776C4.533001 .059776 5.399751-.946451 5.399751-2.171856ZM2.859278-.33873C1.594022-.33873 1.594022-1.414695 1.594022-2.281445C1.594022-2.729763 1.594022-3.237858 1.763387-3.576588C1.952677-3.945205 2.371108-4.154421 2.859278-4.154421C3.277709-4.154421 3.696139-3.995019 3.915318-3.646326C4.124533-3.307597 4.124533-2.759651 4.124533-2.281445C4.124533-1.414695 4.124533-.33873 2.859278-.33873Z"/>
<path id="g0-114" d="M2.022416-3.35741V-4.483188L.368618-4.403487V-3.935243C.986301-3.935243 1.05604-3.935243 1.05604-3.5467V-.468244H.368618V0C.71731-.009963 1.165629-.029888 1.62391-.029888C2.002491-.029888 2.6401-.029888 2.998755 0V-.468244H2.132005V-2.211706C2.132005-2.909091 2.381071-4.124533 3.377335-4.124533C3.367372-4.11457 3.188045-3.955168 3.188045-3.666252C3.188045-3.257783 3.506849-3.058531 3.795766-3.058531S4.403487-3.267746 4.403487-3.666252C4.403487-4.194271 3.865504-4.483188 3.347447-4.483188C2.650062-4.483188 2.251557-3.985056 2.022416-3.35741Z"/>
<path id="g0-115" d="M2.102117-2.929016C1.733499-2.998755 1.085928-3.108344 1.085928-3.576588C1.085928-4.194271 2.012453-4.194271 2.201743-4.194271C2.948941-4.194271 3.327522-3.905355 3.377335-3.35741C3.387298-3.20797 3.39726-3.158157 3.606476-3.158157C3.845579-3.158157 3.845579-3.20797 3.845579-3.437111V-4.234122C3.845579-4.423412 3.845579-4.513076 3.666252-4.513076C3.626401-4.513076 3.606476-4.513076 3.217933-4.323786C2.958904-4.4533 2.610212-4.513076 2.211706-4.513076C1.912827-4.513076 .37858-4.513076 .37858-3.20797C.37858-2.809465 .577833-2.540473 .777086-2.371108C1.175592-2.022416 1.554172-1.96264 2.321295-1.823163C2.67995-1.763387 3.427148-1.633873 3.427148-1.046077C3.427148-.298879 2.510585-.298879 2.291407-.298879C1.235367-.298879 .976339-1.026152 .856787-1.454545C.806974-1.594022 .757161-1.594022 .617684-1.594022C.37858-1.594022 .37858-1.534247 .37858-1.305106V-.219178C.37858-.029888 .37858 .059776 .557908 .059776C.627646 .059776 .647572 .059776 .856787-.089664C.86675-.089664 1.085928-.239103 1.115816-.259029C1.574097 .059776 2.092154 .059776 2.291407 .059776C2.600249 .059776 4.134496 .059776 4.134496-1.39477C4.134496-1.823163 3.935243-2.171856 3.58655-2.450809C3.198007-2.739726 2.879203-2.799502 2.102117-2.929016Z"/>
<path id="g0-116" d="M1.026152-3.955168V-1.225405C1.026152-.159402 1.892902 .059776 2.600249 .059776C3.35741 .059776 3.805729-.508095 3.805729-1.235367V-1.763387H3.337484V-1.255293C3.337484-.577833 3.01868-.33873 2.739726-.33873C2.161893-.33873 2.161893-.976339 2.161893-1.205479V-3.955168H3.616438V-4.423412H2.161893V-6.326276H1.693649C1.683686-5.330012 1.195517-4.343711 .209215-4.313823V-3.955168H1.026152Z"/>
<path id="g0-117" d="M4.363636-.71731V.059776L6.127024 0V-.468244C5.50934-.468244 5.439601-.468244 5.439601-.856787V-4.483188L3.616438-4.403487V-3.935243C4.234122-3.935243 4.303861-3.935243 4.303861-3.5467V-1.643836C4.303861-.826899 3.795766-.298879 3.068493-.298879C2.30137-.298879 2.271482-.547945 2.271482-1.085928V-4.483188L.448319-4.403487V-3.935243C1.066002-3.935243 1.135741-3.935243 1.135741-3.5467V-1.225405C1.135741-.159402 1.942715 .059776 2.929016 .059776C3.188045 .059776 3.905355 .059776 4.363636-.71731Z"/>
<path id="g0-122" d="M4.473225-3.995019C4.552927-4.104608 4.572852-4.124533 4.572852-4.214197C4.572852-4.423412 4.433375-4.423412 4.254047-4.423412H.597758L.478207-2.67995H.946451C1.006227-3.706102 1.315068-4.064757 2.34122-4.064757H3.188045L.408468-.438356C.318804-.328767 .318804-.308842 .318804-.219178C.318804 0 .448319 0 .637609 0H4.423412L4.60274-2.012453H4.134496C4.044832-1.006227 3.88543-.398506 2.570361-.398506H1.713574L4.473225-3.995019Z"/>
<path id="g0-127" d="M2.470735-6.196762C2.470735-6.645081 2.11208-6.924035 1.753425-6.924035C1.305106-6.924035 1.026152-6.555417 1.026152-6.206725C1.026152-5.828144 1.334994-5.479452 1.753425-5.479452C2.132005-5.479452 2.470735-5.788294 2.470735-6.196762ZM4.692403-6.196762C4.692403-6.575342 4.383562-6.924035 3.965131-6.924035C3.58655-6.924035 3.247821-6.615193 3.247821-6.206725C3.247821-5.758406 3.606476-5.479452 3.965131-5.479452C4.41345-5.479452 4.692403-5.84807 4.692403-6.196762Z"/>
<path id="g2-59" d="M1.63188-.143462C1.63188 .152428 1.63188 .887671 .968369 1.524284C.91457 1.578082 .91457 1.587049 .91457 1.622914C.91457 1.685679 .977335 1.730511 1.031133 1.730511C1.129763 1.730511 1.85604 1.031133 1.85604-.017933C1.85604-.573848 1.65878-.968369 1.273225-.968369C.968369-.968369 .789041-.735243 .789041-.484184S.968369 0 1.273225 0C1.407721 0 1.542217-.044832 1.63188-.143462Z"/>
<path id="g2-84" d="M3.936239-5.460523C3.990037-5.657783 4.00797-5.747447 4.160399-5.774346C4.23213-5.792279 4.519054-5.792279 4.707347-5.792279C5.738481-5.792279 6.043337-5.729514 6.043337-5.030137C6.043337-4.913574 6.043337-4.779078 5.96264-4.250062L5.953674-4.178331C5.953674-4.115567 5.989539-4.052802 6.079203-4.052802C6.1868-4.052802 6.204732-4.133499 6.222665-4.267995L6.455791-5.819178C6.464757-5.86401 6.473724-5.917808 6.473724-5.944707C6.473724-6.070237 6.38406-6.070237 6.213699-6.070237H1.111831C.896638-6.070237 .887671-6.06127 .824907-5.890909L.268991-4.312827C.233126-4.196264 .233126-4.178331 .233126-4.169365C.233126-4.124533 .260025-4.052802 .349689-4.052802C.448319-4.052802 .466252-4.1066 .52005-4.267995C1.0132-5.66675 1.291158-5.792279 2.591283-5.792279H2.940971C3.19203-5.792279 3.19203-5.76538 3.19203-5.693649C3.19203-5.639851 3.174097-5.577086 3.156164-5.505355L1.95467-.708344C1.873973-.385554 1.847073-.277958 .896638-.277958C.609714-.277958 .529016-.277958 .529016-.116563C.529016 0 .645579 0 .681445 0C.91457 0 1.174595-.017933 1.416687-.017933C1.667746-.017933 1.927771-.026899 2.178829-.026899C2.57335-.026899 2.591283-.026899 2.923039-.017933C3.039601-.017933 3.631382 0 3.703113 0C3.783811 0 3.891407 0 3.891407-.161395C3.891407-.277958 3.81071-.277958 3.58655-.277958S3.254795-.277958 3.012702-.29589C2.806476-.32279 2.698879-.331756 2.698879-.484184C2.698879-.529016 2.716812-.600747 2.734745-.663512L3.936239-5.460523Z"/>
<path id="g2-104" d="M2.57335-5.917808C2.609215-6.043337 2.609215-6.06127 2.609215-6.097136C2.609215-6.177833 2.555417-6.222665 2.47472-6.222665C2.349191-6.222665 1.560149-6.150934 1.380822-6.133001C1.291158-6.124035 1.192528-6.115068 1.192528-5.96264C1.192528-5.846077 1.291158-5.846077 1.43462-5.846077C1.85604-5.846077 1.85604-5.783313 1.85604-5.702615C1.85604-5.66675 1.85604-5.648817 1.811208-5.487422L.529016-.331756C.493151-.206227 .493151-.188294 .493151-.161395C.493151-.017933 .609714 .09863 .771108 .09863C.923537 .09863 1.049066 .008966 1.111831-.116563C1.129763-.161395 1.210461-.484184 1.255293-.672478L1.461519-1.470486C1.488418-1.604981 1.578082-1.945704 1.604981-2.080199L1.712578-2.47472C1.75741-2.680946 2.268493-3.738979 3.236862-3.738979C3.721046-3.738979 3.721046-3.263761 3.721046-3.111333C3.721046-2.564384 3.299626-1.470486 3.200996-1.192528C3.0934-.91457 3.057534-.824907 3.057534-.654545C3.057534-.170361 3.425156 .09863 3.828643 .09863C4.689415 .09863 5.039103-1.183562 5.039103-1.282192C5.039103-1.327024 5.012204-1.389788 4.92254-1.389788C4.82391-1.389788 4.814944-1.344956 4.779078-1.228394C4.554919-.466252 4.178331-.125529 3.855542-.125529C3.792777-.125529 3.631382-.125529 3.631382-.412453C3.631382-.636613 3.721046-.869738 3.792777-1.066999C3.972105-1.524284 4.33076-2.47472 4.33076-2.976837C4.33076-3.774844 3.738979-3.963138 3.263761-3.963138C2.725778-3.963138 2.268493-3.71208 1.909838-3.272727L2.57335-5.917808Z"/>
<path id="g3-52" d="M3.371357-.980324V-1.21345H2.67198V-3.855542C2.67198-3.993026 2.67198-4.034869 2.52254-4.034869C2.414944-4.034869 2.402989-4.016936 2.349191-3.945205L.274969-1.21345V-.980324H2.133998V-.502117C2.133998-.304857 2.133998-.233126 1.63188-.233126H1.458531V0C1.578082-.005978 2.139975-.02391 2.402989-.02391S3.227895-.005978 3.347447 0V-.233126H3.174097C2.67198-.233126 2.67198-.304857 2.67198-.502117V-.980324H3.371357ZM2.175841-3.383313V-1.21345H.532005L2.175841-3.383313Z"/>
<path id="g1-1" d="M1.75741-2.25056C1.75741-2.510585 1.551183-2.734745 1.273225-2.734745S.789041-2.510585 .789041-2.25056S.995268-1.766376 1.273225-1.766376S1.75741-1.990535 1.75741-2.25056Z"/>
<path id="g1-25" d="M6.644085-4.124533C6.644085-4.357659 6.563387-4.420423 6.509589-4.420423C6.410959-4.420423 6.38406-4.241096 6.375093-4.20523C6.357161-3.999004 6.339228-3.71208 5.935741-3.416189C5.729514-3.254795 5.424658-3.147198 5.110834-3.147198C4.608717-3.147198 4.169365-3.398257 3.631382-3.765878C3.075467-4.142466 2.609215-4.42939 2.044334-4.42939C1.147696-4.42939 .511083-3.721046 .511083-2.914072C.511083-2.680946 .591781-2.618182 .645579-2.618182C.735243-2.618182 .771108-2.779577 .780075-2.833375C.789041-3.021669 .806974-3.326526 1.219427-3.622416C1.425654-3.783811 1.730511-3.891407 2.044334-3.891407C2.546451-3.891407 2.99477-3.631382 3.514819-3.281694C4.097634-2.878207 4.554919-2.609215 5.110834-2.609215C6.007472-2.609215 6.644085-3.317559 6.644085-4.124533ZM6.644085-1.945704C6.644085-2.160897 6.572354-2.241594 6.509589-2.241594C6.410959-2.241594 6.38406-2.062267 6.375093-2.026401C6.357161-1.820174 6.339228-1.53325 5.935741-1.23736C5.702615-1.058032 5.397758-.968369 5.110834-.968369C4.608717-.968369 4.169365-1.219427 3.631382-1.587049C3.075467-1.963636 2.609215-2.25056 2.044334-2.25056C1.147696-2.25056 .511083-1.542217 .511083-.735243C.511083-.502117 .591781-.439352 .645579-.439352C.735243-.439352 .771108-.600747 .780075-.654545C.789041-.842839 .806974-1.147696 1.219427-1.443587C1.425654-1.604981 1.730511-1.712578 2.044334-1.712578C2.546451-1.712578 2.99477-1.452553 3.514819-1.102864C4.097634-.699377 4.554919-.430386 5.110834-.430386C6.016438-.430386 6.644085-1.147696 6.644085-1.945704Z"/>
<path id="g4-44" d="M1.63188-.143462C1.63188 .152428 1.63188 .887671 .950436 1.53325C.91457 1.578082 .91457 1.613948 .91457 1.622914C.91457 1.667746 .968369 1.730511 1.031133 1.730511C1.129763 1.730511 1.85604 1.0401 1.85604-.017933C1.85604-.636613 1.622914-.968369 1.273225-.968369C.959402-.968369 .789041-.726276 .789041-.484184S.959402 0 1.273225 0C1.497385 0 1.63188-.134496 1.63188-.143462Z"/>
<path id="g4-48" d="M4.241096-2.86924C4.241096-3.469988 4.214197-4.241096 3.900374-4.913574C3.505853-5.756413 2.824408-5.971606 2.304359-5.971606C1.766376-5.971606 1.084932-5.756413 .690411-4.895641C.403487-4.276961 .358655-3.550685 .358655-2.86924C.358655-2.286426 .376588-1.416687 .762142-.708344C1.183562 .053798 1.882939 .19726 2.295392 .19726C2.878207 .19726 3.541719-.053798 3.918306-.878705C4.187298-1.479452 4.241096-2.15193 4.241096-2.86924ZM2.304359-.026899C2.035367-.026899 1.389788-.152428 1.219427-1.165629C1.129763-1.694645 1.129763-2.465753 1.129763-2.976837C1.129763-3.58655 1.129763-4.294894 1.23736-4.788045C1.416687-5.586052 1.990535-5.747447 2.295392-5.747447C2.636115-5.747447 3.200996-5.56812 3.371357-4.734247C3.469988-4.241096 3.469988-3.541719 3.469988-2.976837C3.469988-2.420922 3.469988-1.667746 3.380324-1.13873C3.19203-.116563 2.528518-.026899 2.304359-.026899Z"/>
<path id="g4-49" d="M2.725778-5.729514C2.725778-5.953674 2.716812-5.971606 2.492653-5.971606C1.936737-5.397758 1.111831-5.397758 .833873-5.397758V-5.119801C1.004234-5.119801 1.551183-5.119801 2.035367-5.352927V-.71731C2.035367-.385554 2.008468-.277958 1.174595-.277958H.887671V0C1.210461-.026899 2.008468-.026899 2.37609-.026899S3.550685-.026899 3.873474 0V-.277958H3.58655C2.752677-.277958 2.725778-.385554 2.725778-.71731V-5.729514Z"/>
<path id="g4-50" d="M4.142466-1.587049H3.891407C3.873474-1.470486 3.801743-.941469 3.685181-.798007C3.631382-.71731 3.012702-.71731 2.833375-.71731H1.23736L2.125031-1.560149C3.595517-2.833375 4.142466-3.308593 4.142466-4.223163C4.142466-5.254296 3.29066-5.971606 2.187796-5.971606C1.156663-5.971606 .457285-5.155666 .457285-4.339726C.457285-3.891407 .842839-3.846575 .923537-3.846575C1.120797-3.846575 1.389788-3.990037 1.389788-4.312827C1.389788-4.581818 1.201494-4.779078 .923537-4.779078C.878705-4.779078 .851806-4.779078 .81594-4.770112C1.031133-5.406725 1.604981-5.693649 2.089166-5.693649C3.003736-5.693649 3.317559-4.841843 3.317559-4.223163C3.317559-3.308593 2.627148-2.564384 2.196762-2.098132L.555915-.32279C.457285-.224159 .457285-.206227 .457285 0H3.891407L4.142466-1.587049Z"/>
<path id="g4-51" d="M2.734745-3.156164C3.568618-3.469988 3.963138-4.124533 3.963138-4.743213C3.963138-5.433624 3.200996-5.971606 2.268493-5.971606S.636613-5.44259 .636613-4.761146C.636613-4.465255 .833873-4.294894 1.093898-4.294894S1.542217-4.483188 1.542217-4.743213C1.542217-5.057036 1.327024-5.191532 1.022167-5.191532C1.255293-5.56812 1.802242-5.747447 2.241594-5.747447C2.985803-5.747447 3.129265-5.155666 3.129265-4.734247C3.129265-4.465255 3.075467-4.034869 2.851308-3.694147C2.57335-3.29066 2.259527-3.272727 1.999502-3.254795C1.775342-3.236862 1.75741-3.236862 1.685679-3.236862C1.604981-3.227895 1.53325-3.218929 1.53325-3.120299C1.53325-3.003736 1.604981-3.003736 1.75741-3.003736H2.178829C2.958904-3.003736 3.299626-2.37609 3.299626-1.524284C3.299626-.376588 2.689913-.053798 2.232628-.053798C2.062267-.053798 1.192528-.09863 .789041-.762142C1.111831-.71731 1.362889-.941469 1.362889-1.246326C1.362889-1.542217 1.13873-1.730511 .878705-1.730511C.654545-1.730511 .385554-1.596015 .385554-1.219427C.385554-.42142 1.219427 .19726 2.259527 .19726C3.380324 .19726 4.214197-.609714 4.214197-1.524284C4.214197-2.304359 3.595517-2.96787 2.734745-3.156164Z"/>
<path id="g4-52" d="M.260025-1.75741V-1.479452H2.707846V-.708344C2.707846-.376588 2.680946-.277958 2.008468-.277958H1.811208V0C2.37609-.026899 3.003736-.026899 3.066501-.026899C3.111333-.026899 3.756912-.026899 4.321793 0V-.277958H4.124533C3.452055-.277958 3.425156-.376588 3.425156-.708344V-1.479452H4.339726V-1.75741H3.425156V-5.828144C3.425156-6.007472 3.425156-6.070237 3.254795-6.070237C3.147198-6.070237 3.138232-6.06127 3.057534-5.935741L.260025-1.75741ZM.546949-1.75741L2.761644-5.074969V-1.75741H.546949Z"/>
<path id="g4-53" d="M.932503-3.0934C.932503-2.932005 .932503-2.833375 1.058032-2.833375C1.129763-2.833375 1.156663-2.86924 1.210461-2.949938C1.479452-3.326526 1.909838-3.541719 2.37609-3.541719C3.335492-3.541719 3.335492-2.160897 3.335492-1.838107C3.335492-1.560149 3.335492-1.004234 3.084433-.600747C2.842341-.224159 2.465753-.053798 2.116065-.053798C1.587049-.053798 .986301-.385554 .771108-1.049066C.780075-1.049066 .833873-1.031133 .896638-1.031133C1.075965-1.031133 1.33599-1.147696 1.33599-1.470486C1.33599-1.748443 1.13873-1.909838 .896638-1.909838C.708344-1.909838 .457285-1.802242 .457285-1.443587C.457285-.627646 1.13873 .19726 2.133998 .19726C3.218929 .19726 4.142466-.681445 4.142466-1.793275C4.142466-2.878207 3.371357-3.765878 2.394022-3.765878C1.963636-3.765878 1.524284-3.622416 1.210461-3.299626V-5.066002C1.479452-4.985305 1.75741-4.940473 2.035367-4.940473C3.138232-4.940473 3.783811-5.738481 3.783811-5.855044C3.783811-5.935741 3.730012-5.971606 3.685181-5.971606C3.667248-5.971606 3.649315-5.971606 3.568618-5.926775C3.147198-5.756413 2.734745-5.684682 2.358157-5.684682C1.972603-5.684682 1.569116-5.756413 1.156663-5.926775C1.066999-5.971606 1.049066-5.971606 1.0401-5.971606C.932503-5.971606 .932503-5.881943 .932503-5.729514V-3.0934Z"/>
<path id="g4-54" d="M1.201494-2.96787C1.201494-3.882441 1.300125-4.393524 1.542217-4.859776C1.721544-5.227397 2.160897-5.747447 2.824408-5.747447C3.003736-5.747447 3.416189-5.711582 3.622416-5.388792C3.29066-5.388792 3.147198-5.218431 3.147198-4.976339C3.147198-4.743213 3.308593-4.563885 3.559651-4.563885S3.981071-4.72528 3.981071-4.994271C3.981071-5.496389 3.622416-5.971606 2.806476-5.971606C1.649813-5.971606 .385554-4.832877 .385554-2.833375C.385554-.403487 1.479452 .19726 2.322291 .19726C3.317559 .19726 4.214197-.636613 4.214197-1.820174C4.214197-2.958904 3.38929-3.819676 2.37609-3.819676C1.838107-3.819676 1.452553-3.505853 1.201494-2.96787ZM2.313325-.053798C1.802242-.053798 1.506351-.475218 1.398755-.735243C1.228394-1.13873 1.219427-1.882939 1.219427-2.026401C1.219427-2.627148 1.497385-3.595517 2.358157-3.595517C2.501619-3.595517 2.940971-3.595517 3.227895-3.039601C3.398257-2.698879 3.398257-2.259527 3.398257-1.829141S3.398257-.959402 3.227895-.627646C2.949938-.116563 2.555417-.053798 2.313325-.053798Z"/>
<path id="g4-55" d="M4.393524-5.469489C4.474222-5.56812 4.474222-5.586052 4.474222-5.774346H2.241594C1.111831-5.774346 1.084932-5.890909 1.058032-6.06127H.806974L.511083-4.187298H.762142C.798007-4.393524 .869738-4.895641 .986301-5.003238C1.049066-5.057036 1.75741-5.057036 1.882939-5.057036H3.765878L2.905106-3.882441C1.739477-2.27746 1.63188-.81594 1.63188-.304857C1.63188-.206227 1.63188 .19726 2.044334 .19726C2.465753 .19726 2.465753-.19726 2.465753-.313823V-.753176C2.465753-2.071233 2.663014-3.111333 3.138232-3.756912L4.393524-5.469489Z"/>
<path id="g4-56" d="M1.542217-4.070735C1.273225-4.241096 1.066999-4.483188 1.066999-4.814944C1.066999-5.397758 1.694645-5.747447 2.286426-5.747447C2.976837-5.747447 3.532752-5.263263 3.532752-4.635616S2.99477-3.595517 2.636115-3.38929L1.542217-4.070735ZM2.860274-3.245828C3.308593-3.461021 3.963138-3.90934 3.963138-4.635616C3.963138-5.478456 3.120299-5.971606 2.313325-5.971606C1.371856-5.971606 .636613-5.299128 .636613-4.474222C.636613-4.133499 .762142-3.81071 .977335-3.550685C1.129763-3.380324 1.183562-3.344458 1.703611-3.012702C.91457-2.636115 .385554-2.089166 .385554-1.353923C.385554-.403487 1.327024 .19726 2.295392 .19726C3.335492 .19726 4.214197-.537983 4.214197-1.506351C4.214197-2.37609 3.550685-2.806476 3.326526-2.949938C3.227895-3.021669 2.96787-3.183064 2.860274-3.245828ZM1.945704-2.860274L3.075467-2.160897C3.281694-2.026401 3.730012-1.739477 3.730012-1.192528C3.730012-.484184 3.012702-.053798 2.304359-.053798C1.524284-.053798 .869738-.609714 .869738-1.353923C.869738-1.999502 1.318057-2.537484 1.945704-2.860274Z"/>
<path id="g4-57" d="M3.398257-2.824408V-2.627148C3.398257-.439352 2.402989-.053798 1.891905-.053798C1.685679-.053798 1.228394-.089664 .995268-.385554H1.031133C1.102864-.367621 1.452553-.439352 1.452553-.798007C1.452553-1.031133 1.291158-1.210461 1.0401-1.210461S.61868-1.049066 .61868-.780075C.61868-.188294 1.093898 .19726 1.900872 .19726C3.057534 .19726 4.214197-.986301 4.214197-2.949938C4.214197-5.379826 3.138232-5.971606 2.331258-5.971606C1.300125-5.971606 .385554-5.137733 .385554-3.963138C.385554-2.824408 1.210461-1.963636 2.223661-1.963636C2.878207-1.963636 3.236862-2.438854 3.398257-2.824408ZM2.241594-2.187796C2.098132-2.187796 1.65878-2.187796 1.371856-2.743711C1.201494-3.084433 1.201494-3.523786 1.201494-3.954172S1.201494-4.832877 1.389788-5.173599C1.65878-5.630884 2.008468-5.747447 2.331258-5.747447C2.940971-5.747447 3.183064-5.128767 3.218929-5.039103C3.344458-4.707347 3.380324-4.160399 3.380324-3.774844C3.380324-3.120299 3.084433-2.187796 2.241594-2.187796Z"/>
<path id="g4-58" d="M1.75741-3.380324C1.75741-3.649315 1.542217-3.864508 1.273225-3.864508S.789041-3.649315 .789041-3.380324C.789041-3.120299 1.004234-2.896139 1.273225-2.896139S1.75741-3.120299 1.75741-3.380324ZM1.75741-.484184C1.75741-.744209 1.542217-.968369 1.273225-.968369S.789041-.744209 .789041-.484184C.789041-.215193 1.004234 0 1.273225 0S1.75741-.215193 1.75741-.484184Z"/>
<path id="g4-61" d="M6.348194-2.96787C6.473724-2.96787 6.644085-2.96787 6.644085-3.156164C6.644085-3.353425 6.446824-3.353425 6.312329-3.353425H.842839C.708344-3.353425 .511083-3.353425 .511083-3.156164C.511083-2.96787 .690411-2.96787 .806974-2.96787H6.348194ZM6.312329-1.13873C6.446824-1.13873 6.644085-1.13873 6.644085-1.33599C6.644085-1.524284 6.473724-1.524284 6.348194-1.524284H.806974C.690411-1.524284 .511083-1.524284 .511083-1.33599C.511083-1.13873 .708344-1.13873 .842839-1.13873H6.312329Z"/>
<path id="g4-69" d="M5.496389-6.097136H.340722V-5.819178H.546949C1.23736-5.819178 1.255293-5.720548 1.255293-5.388792V-.708344C1.255293-.376588 1.23736-.277958 .546949-.277958H.340722V0H5.612951L5.998506-2.313325H5.747447C5.523288-.923537 5.290162-.277958 3.756912-.277958H2.501619C2.080199-.277958 2.062267-.340722 2.062267-.645579V-3.030635H2.896139C3.774844-3.030635 3.882441-2.752677 3.882441-1.981569H4.133499V-4.357659H3.882441C3.882441-3.58655 3.774844-3.308593 2.896139-3.308593H2.062267V-5.451557C2.062267-5.756413 2.080199-5.819178 2.501619-5.819178H3.703113C5.101868-5.819178 5.352927-5.334994 5.496389-4.079701H5.747447L5.496389-6.097136Z"/>
<path id="g4-72" d="M4.841843-3.326526H2.062267V-5.415691C2.062267-5.747447 2.080199-5.846077 2.77061-5.846077H2.976837V-6.124035C2.57335-6.097136 2.071233-6.097136 1.65878-6.097136S.744209-6.097136 .340722-6.124035V-5.846077H.546949C1.23736-5.846077 1.255293-5.747447 1.255293-5.415691V-.708344C1.255293-.376588 1.23736-.277958 .546949-.277958H.340722V0C.744209-.026899 1.246326-.026899 1.65878-.026899S2.57335-.026899 2.976837 0V-.277958H2.77061C2.080199-.277958 2.062267-.376588 2.062267-.708344V-3.048568H4.841843V-.708344C4.841843-.376588 4.82391-.277958 4.133499-.277958H3.927273V0C4.33076-.026899 4.832877-.026899 5.24533-.026899S6.1599-.026899 6.563387 0V-.277958H6.357161C5.66675-.277958 5.648817-.376588 5.648817-.708344V-5.415691C5.648817-5.747447 5.66675-5.846077 6.357161-5.846077H6.563387V-6.124035C6.1599-6.097136 5.657783-6.097136 5.24533-6.097136S4.33076-6.097136 3.927273-6.124035V-5.846077H4.133499C4.82391-5.846077 4.841843-5.747447 4.841843-5.415691V-3.326526Z"/>
<path id="g4-76" d="M5.361893-2.313325H5.110834C5.012204-1.407721 4.886675-.277958 3.281694-.277958H2.501619C2.080199-.277958 2.062267-.340722 2.062267-.645579V-5.406725C2.062267-5.738481 2.098132-5.846077 2.914072-5.846077H3.200996V-6.124035C2.887173-6.097136 2.071233-6.097136 1.712578-6.097136C1.300125-6.097136 .744209-6.097136 .340722-6.124035V-5.846077H.546949C1.23736-5.846077 1.255293-5.747447 1.255293-5.415691V-.708344C1.255293-.376588 1.23736-.277958 .546949-.277958H.340722V0H5.110834L5.361893-2.313325Z"/>
<path id="g4-77" d="M6.401993-5.828144L6.410959-5.819178V-.708344C6.410959-.376588 6.393026-.277958 5.702615-.277958H5.496389V0C6.034371-.026899 6.635118-.026899 6.769614-.026899C6.823412-.026899 7.486924-.026899 8.051806 0V-.277958H7.845579C7.155168-.277958 7.137235-.376588 7.137235-.708344V-5.415691C7.137235-5.747447 7.155168-5.846077 7.845579-5.846077H8.051806V-6.124035H6.545455C6.357161-6.124035 6.294396-6.124035 6.231631-5.96264L4.223163-.878705L2.214695-5.926775C2.142964-6.106102 2.133998-6.124035 1.891905-6.124035H.385554V-5.846077H.591781C1.282192-5.846077 1.300125-5.747447 1.300125-5.415691V-.950436C1.300125-.708344 1.300125-.277958 .385554-.277958V0C.878705-.017933 1.004234-.026899 1.443587-.026899C1.873973-.026899 2.008468-.017933 2.492653 0V-.277958C1.578082-.277958 1.578082-.708344 1.578082-.950436V-5.747447L1.587049-5.756413L3.792777-.19726C3.837609-.080697 3.873474 0 3.981071 0C4.079701 0 4.124533-.080697 4.160399-.161395L6.401993-5.828144Z"/>
<path id="g4-79" d="M6.644085-3.039601C6.644085-4.868742 5.254296-6.321295 3.577584-6.321295S.511083-4.859776 .511083-3.039601S1.909838 .19726 3.577584 .19726S6.644085-1.219427 6.644085-3.039601ZM3.577584-.071731C2.67198-.071731 1.425654-.860772 1.425654-3.174097C1.425654-5.361893 2.707846-6.070237 3.577584-6.070237S5.729514-5.361893 5.729514-3.174097C5.729514-.860772 4.483188-.071731 3.577584-.071731Z"/>
<path id="g4-85" d="M2.062267-5.415691C2.062267-5.747447 2.080199-5.846077 2.77061-5.846077H2.976837V-6.124035C2.57335-6.097136 2.071233-6.097136 1.65878-6.097136S.744209-6.097136 .340722-6.124035V-5.846077H.546949C1.23736-5.846077 1.255293-5.747447 1.255293-5.415691V-2.062267C1.255293-.753176 2.340224 .19726 3.577584 .19726C4.895641 .19726 5.648817-1.031133 5.648817-1.927771V-5.155666C5.648817-5.424658 5.648817-5.846077 6.563387-5.846077V-6.124035C6.079203-6.106102 5.944707-6.097136 5.514321-6.097136C5.074969-6.097136 4.958406-6.106102 4.456289-6.124035V-5.846077C5.370859-5.846077 5.370859-5.415691 5.370859-5.173599V-2.062267C5.370859-.842839 4.492154-.080697 3.595517-.080697C3.075467-.080697 2.062267-.394521 2.062267-2.008468V-5.415691Z"/>
<path id="g4-91" d="M2.349191 2.241594V1.85604H1.461519V-6.339228H2.349191V-6.724782H1.075965V2.241594H2.349191Z"/>
<path id="g4-93" d="M1.470486 2.241594V-6.724782H.19726V-6.339228H1.084932V1.85604H.19726V2.241594H1.470486Z"/>
<path id="g4-97" d="M3.066501-.645579C3.111333-.268991 3.371357 .053798 3.756912 .053798C3.981071 .053798 4.545953-.080697 4.545953-.798007V-1.300125H4.294894V-.806974C4.294894-.708344 4.294894-.260025 3.972105-.260025S3.649315-.690411 3.649315-.833873V-2.402989C3.649315-2.914072 3.649315-3.218929 3.245828-3.58655C2.914072-3.882441 2.483686-4.016936 2.035367-4.016936C1.282192-4.016936 .654545-3.640349 .654545-3.066501C.654545-2.788543 .842839-2.636115 1.075965-2.636115C1.318057-2.636115 1.488418-2.815442 1.488418-3.048568C1.488418-3.434122 1.093898-3.478954 1.084932-3.478954C1.327024-3.71208 1.75741-3.792777 2.017435-3.792777C2.47472-3.792777 2.985803-3.452055 2.985803-2.663014V-2.367123C2.501619-2.349191 1.829141-2.304359 1.228394-2.017435C.582814-1.703611 .385554-1.23736 .385554-.878705C.385554-.143462 1.255293 .09863 1.85604 .09863C2.600249 .09863 2.940971-.394521 3.066501-.645579ZM2.985803-1.264259C2.985803-.394521 2.313325-.125529 1.918804-.125529C1.497385-.125529 1.102864-.430386 1.102864-.878705C1.102864-1.470486 1.613948-2.098132 2.985803-2.15193V-1.264259Z"/>
<path id="g4-98" d="M1.622914-2.860274C1.622914-3.030635 1.622914-3.039601 1.721544-3.183064C2.026401-3.595517 2.465753-3.738979 2.806476-3.738979C3.19203-3.738979 3.550685-3.523786 3.783811-3.147198C4.016936-2.761644 4.034869-2.232628 4.034869-1.945704C4.034869-1.524284 3.981071-1.049066 3.747945-.690411C3.550685-.403487 3.183064-.125529 2.707846-.125529C2.304359-.125529 1.963636-.340722 1.748443-.672478C1.622914-.860772 1.622914-.869738 1.622914-1.0401V-2.860274ZM1.542217-.546949C1.820174-.152428 2.268493 .09863 2.752677 .09863C3.819676 .09863 4.805978-.762142 4.805978-1.936737C4.805978-3.057534 3.918306-3.963138 2.842341-3.963138C2.232628-3.963138 1.811208-3.649315 1.596015-3.407223V-6.222665L.268991-6.124035V-5.846077C.878705-5.846077 .959402-5.783313 .959402-5.34396V0H1.210461L1.542217-.546949Z"/>
<path id="g4-100" d="M3.48792-1.075965C3.48792-.91457 3.48792-.887671 3.353425-.699377C3.075467-.29589 2.663014-.125529 2.304359-.125529C1.918804-.125529 1.560149-.340722 1.327024-.71731C1.093898-1.102864 1.075965-1.63188 1.075965-1.918804C1.075965-2.340224 1.129763-2.815442 1.362889-3.174097C1.560149-3.461021 1.927771-3.738979 2.402989-3.738979C2.779577-3.738979 3.138232-3.550685 3.380324-3.209963C3.48792-3.066501 3.48792-3.057534 3.48792-2.887173V-1.075965ZM3.514819-3.434122C3.469988-3.48792 3.066501-3.963138 2.367123-3.963138C1.264259-3.963138 .304857-3.084433 .304857-1.927771C.304857-.806974 1.201494 .09863 2.268493 .09863C2.923039 .09863 3.326526-.286924 3.48792-.475218V.09863L4.841843 0V-.277958C4.23213-.277958 4.151432-.340722 4.151432-.780075V-6.222665L2.824408-6.124035V-5.846077C3.434122-5.846077 3.514819-5.783313 3.514819-5.34396V-3.434122Z"/>
<path id="g4-101" d="M3.58655-2.0533C3.783811-2.0533 3.828643-2.0533 3.828643-2.241594C3.828643-3.165131 3.326526-4.016936 2.178829-4.016936C1.102864-4.016936 .260025-3.084433 .260025-1.972603C.260025-.798007 1.201494 .09863 2.295392 .09863S3.828643-.860772 3.828643-1.066999C3.828643-1.129763 3.783811-1.183562 3.703113-1.183562C3.61345-1.183562 3.58655-1.120797 3.577584-1.084932C3.272727-.170361 2.47472-.152428 2.340224-.152428C1.909838-.152428 1.542217-.394521 1.33599-.699377C1.0401-1.13873 1.031133-1.676712 1.031133-2.0533H3.58655ZM1.0401-2.268493C1.120797-3.649315 1.927771-3.792777 2.178829-3.792777C2.67198-3.792777 3.209963-3.416189 3.218929-2.268493H1.0401Z"/>
<path id="g4-102" d="M2.689913-3.58655V-3.864508H1.622914V-4.877709C1.622914-5.693649 2.062267-6.097136 2.447821-6.097136C2.537484-6.097136 2.627148-6.079203 2.716812-6.043337C2.627148-6.007472 2.483686-5.899875 2.483686-5.675716C2.483686-5.44259 2.654047-5.281196 2.878207-5.281196C3.120299-5.281196 3.281694-5.451557 3.281694-5.684682C3.281694-6.025405 2.940971-6.321295 2.447821-6.321295C1.748443-6.321295 1.0132-5.792279 1.0132-4.895641V-3.864508H.304857V-3.58655H1.0132V-.690411C1.0132-.277958 .91457-.277958 .32279-.277958V0C.798007-.017933 .91457-.026899 1.371856-.026899C1.730511-.026899 1.945704-.017933 2.510585 0V-.277958H2.331258C1.676712-.277958 1.649813-.376588 1.649813-.708344V-3.58655H2.689913Z"/>
<path id="g4-103" d="M1.120797-1.604981C1.344956-1.461519 1.622914-1.327024 2.035367-1.327024C2.887173-1.327024 3.532752-1.936737 3.532752-2.645081C3.532752-3.084433 3.281694-3.38929 3.165131-3.514819C3.523786-3.837609 3.945205-3.837609 4.052802-3.837609C4.00797-3.81071 3.936239-3.765878 3.936239-3.604483C3.936239-3.505853 3.999004-3.335492 4.20523-3.335492C4.33076-3.335492 4.474222-3.425156 4.474222-3.61345C4.474222-3.783811 4.348692-4.061768 3.990037-4.061768C3.730012-4.061768 3.326526-3.963138 3.012702-3.640349C2.77061-3.837609 2.420922-3.963138 2.044334-3.963138C1.192528-3.963138 .546949-3.353425 .546949-2.645081C.546949-2.187796 .81594-1.865006 .959402-1.730511C.941469-1.712578 .690411-1.398755 .690411-.986301C.690411-.681445 .833873-.358655 1.075965-.19726C.61868-.053798 .260025 .277958 .260025 .699377C.260025 1.33599 1.147696 1.847073 2.295392 1.847073C3.398257 1.847073 4.339726 1.371856 4.339726 .681445C4.339726 .313823 4.169365-.080697 3.837609-.29589C3.335492-.609714 2.815442-.609714 1.963636-.609714C1.784309-.609714 1.497385-.609714 1.425654-.627646C1.165629-.681445 .995268-.923537 .995268-1.210461C.995268-1.353923 1.0401-1.488418 1.120797-1.604981ZM2.035367-1.569116C1.23736-1.569116 1.23736-2.447821 1.23736-2.645081C1.23736-2.887173 1.255293-3.19203 1.407721-3.407223C1.542217-3.58655 1.784309-3.721046 2.035367-3.721046C2.842341-3.721046 2.842341-2.851308 2.842341-2.645081S2.842341-1.569116 2.035367-1.569116ZM2.447821-.044832C2.734745-.044832 3.837609-.035866 3.837609 .690411C3.837609 1.201494 3.147198 1.604981 2.304359 1.604981C1.425654 1.604981 .762142 1.183562 .762142 .690411C.762142 .546949 .851806-.044832 1.622914-.044832H2.447821Z"/>
<path id="g4-104" d="M1.640847-6.222665L.313823-6.124035V-5.846077C.923537-5.846077 1.004234-5.783313 1.004234-5.34396V-.690411C1.004234-.277958 .905604-.277958 .313823-.277958V0C.735243-.017933 .905604-.026899 1.33599-.026899S1.882939-.017933 2.358157 0V-.277958C1.766376-.277958 1.667746-.277958 1.667746-.690411V-2.322291C1.667746-3.272727 2.340224-3.738979 2.905106-3.738979C3.434122-3.738979 3.550685-3.299626 3.550685-2.761644V-.690411C3.550685-.277958 3.452055-.277958 2.860274-.277958V0C3.281694-.017933 3.452055-.026899 3.882441-.026899S4.42939-.017933 4.904608 0V-.277958C4.447323-.277958 4.223163-.277958 4.214197-.555915V-2.27746C4.214197-3.021669 4.214197-3.281694 3.963138-3.595517C3.756912-3.846575 3.416189-3.963138 2.96787-3.963138C2.367123-3.963138 1.927771-3.649315 1.649813-3.147198H1.640847V-6.222665Z"/>
<path id="g4-105" d="M1.649813-3.963138L.358655-3.864508V-3.58655C.932503-3.58655 1.0132-3.532752 1.0132-3.0934V-.690411C1.0132-.277958 .91457-.277958 .32279-.277958V0C.726276-.017933 .91457-.026899 1.309091-.026899C1.452553-.026899 1.829141-.026899 2.268493 0V-.277958C1.685679-.277958 1.649813-.32279 1.649813-.672478V-3.963138ZM1.676712-5.523288C1.676712-5.792279 1.461519-6.007472 1.192528-6.007472C.91457-6.007472 .708344-5.783313 .708344-5.523288S.91457-5.039103 1.192528-5.039103C1.461519-5.039103 1.676712-5.254296 1.676712-5.523288Z"/>
<path id="g4-107" d="M1.596015-1.945704V-6.222665L.268991-6.124035V-5.846077C.878705-5.846077 .959402-5.783313 .959402-5.34396V-.690411C.959402-.277958 .860772-.277958 .268991-.277958V0C.663512-.017933 .887671-.026899 1.264259-.026899C1.63188-.026899 1.85604-.017933 2.259527 0V-.277958C1.667746-.277958 1.569116-.277958 1.569116-.690411V-1.596015L2.142964-2.080199L3.012702-.905604C3.156164-.708344 3.227895-.600747 3.227895-.475218C3.227895-.385554 3.200996-.277958 2.923039-.277958V0C3.326526-.017933 3.541719-.026899 3.891407-.026899C4.151432-.026899 4.438356-.026899 4.698381 0V-.277958C4.402491-.277958 4.187298-.286924 3.864508-.71731L2.591283-2.447821C3.469988-3.209963 3.882441-3.559651 4.492154-3.58655V-3.864508C4.178331-3.837609 4.160399-3.837609 3.828643-3.837609C3.559651-3.837609 3.326526-3.846575 2.842341-3.864508V-3.58655C2.976837-3.577584 3.084433-3.514819 3.084433-3.371357C3.084433-3.200996 2.940971-3.084433 2.860274-3.012702L1.596015-1.945704Z"/>
<path id="g4-108" d="M1.649813-6.222665L.32279-6.124035V-5.846077C.932503-5.846077 1.0132-5.783313 1.0132-5.34396V-.690411C1.0132-.277958 .91457-.277958 .32279-.277958V0C.744209-.017933 .91457-.026899 1.327024-.026899C1.748443-.026899 1.900872-.017933 2.340224 0V-.277958C1.748443-.277958 1.649813-.277958 1.649813-.690411V-6.222665Z"/>
<path id="g4-109" d="M1.667746-2.322291C1.667746-3.29066 2.367123-3.738979 2.905106-3.738979C3.398257-3.738979 3.559651-3.38929 3.559651-2.761644V-.690411C3.559651-.277958 3.461021-.277958 2.86924-.277958V0C3.29066-.017933 3.461021-.026899 3.891407-.026899S4.438356-.017933 4.913574 0V-.277958C4.321793-.277958 4.223163-.277958 4.223163-.690411V-2.322291C4.223163-3.29066 4.92254-3.738979 5.460523-3.738979C5.953674-3.738979 6.115068-3.38929 6.115068-2.761644V-.690411C6.115068-.277958 6.016438-.277958 5.424658-.277958V0C5.846077-.017933 6.016438-.026899 6.446824-.026899S6.993773-.017933 7.468991 0V-.277958C7.011706-.277958 6.787547-.277958 6.77858-.555915V-2.27746C6.77858-3.057534 6.77858-3.308593 6.48269-3.640349C6.294396-3.855542 5.935741-3.963138 5.523288-3.963138C4.877709-3.963138 4.438356-3.58655 4.187298-3.111333C4.079701-3.640349 3.721046-3.963138 2.96787-3.963138C2.25056-3.963138 1.811208-3.496887 1.622914-3.084433H1.613948V-3.963138L.313823-3.864508V-3.58655C.923537-3.58655 1.004234-3.523786 1.004234-3.084433V-.690411C1.004234-.277958 .905604-.277958 .313823-.277958V0C.735243-.017933 .905604-.026899 1.33599-.026899S1.882939-.017933 2.358157 0V-.277958C1.766376-.277958 1.667746-.277958 1.667746-.690411V-2.322291Z"/>
<path id="g4-110" d="M1.667746-2.322291C1.667746-3.272727 2.340224-3.738979 2.905106-3.738979C3.434122-3.738979 3.550685-3.299626 3.550685-2.761644V-.690411C3.550685-.277958 3.452055-.277958 2.860274-.277958V0C3.281694-.017933 3.452055-.026899 3.882441-.026899S4.42939-.017933 4.904608 0V-.277958C4.447323-.277958 4.223163-.277958 4.214197-.555915V-2.27746C4.214197-3.021669 4.214197-3.281694 3.963138-3.595517C3.756912-3.846575 3.416189-3.963138 2.96787-3.963138C2.133998-3.963138 1.748443-3.344458 1.622914-3.0934H1.613948V-3.963138L.313823-3.864508V-3.58655C.923537-3.58655 1.004234-3.523786 1.004234-3.084433V-.690411C1.004234-.277958 .905604-.277958 .313823-.277958V0C.735243-.017933 .905604-.026899 1.33599-.026899S1.882939-.017933 2.358157 0V-.277958C1.766376-.277958 1.667746-.277958 1.667746-.690411V-2.322291Z"/>
<path id="g4-111" d="M4.339726-1.909838C4.339726-3.084433 3.407223-4.016936 2.304359-4.016936C1.165629-4.016936 .260025-3.057534 .260025-1.909838C.260025-.789041 1.192528 .09863 2.295392 .09863C3.434122 .09863 4.339726-.806974 4.339726-1.909838ZM2.304359-.152428C1.85604-.152428 1.479452-.376588 1.273225-.726276C1.0401-1.102864 1.031133-1.578082 1.031133-1.990535C1.031133-2.322291 1.031133-2.833375 1.255293-3.200996C1.524284-3.658281 1.972603-3.792777 2.295392-3.792777C2.806476-3.792777 3.174097-3.505853 3.353425-3.200996C3.559651-2.824408 3.568618-2.367123 3.568618-1.990535C3.568618-1.65878 3.568618-1.13873 3.344458-.744209C3.0934-.331756 2.680946-.152428 2.304359-.152428Z"/>
<path id="g4-114" d="M1.596015-2.0533C1.596015-2.420922 1.694645-3.738979 2.716812-3.738979V-3.730012C2.698879-3.721046 2.555417-3.61345 2.555417-3.398257C2.555417-3.156164 2.743711-3.003736 2.949938-3.003736C3.138232-3.003736 3.344458-3.138232 3.344458-3.407223C3.344458-3.694147 3.075467-3.963138 2.67198-3.963138C2.133998-3.963138 1.75741-3.58655 1.551183-3.030635H1.542217V-3.963138L.268991-3.864508V-3.58655C.878705-3.58655 .959402-3.523786 .959402-3.084433V-.690411C.959402-.277958 .860772-.277958 .268991-.277958V0C.744209-.017933 .860772-.026899 1.318057-.026899C1.676712-.026899 1.891905-.017933 2.456787 0V-.277958H2.27746C1.622914-.277958 1.596015-.376588 1.596015-.708344V-2.0533Z"/>
<path id="g4-115" d="M3.084433-3.783811C3.084433-3.936239 3.084433-4.016936 2.976837-4.016936C2.932005-4.016936 2.914072-4.016936 2.797509-3.90934C2.779577-3.891407 2.698879-3.81071 2.645081-3.765878C2.367123-3.963138 2.089166-4.016936 1.784309-4.016936C.600747-4.016936 .304857-3.362391 .304857-2.905106C.304857-2.618182 .430386-2.385056 .636613-2.187796C.941469-1.909838 1.282192-1.847073 1.739477-1.766376C2.196762-1.676712 2.349191-1.649813 2.546451-1.497385C2.636115-1.425654 2.860274-1.255293 2.860274-.91457C2.860274-.125529 1.95467-.125529 1.829141-.125529C.91457-.125529 .681445-.887671 .573848-1.371856C.546949-1.461519 .537983-1.515318 .430386-1.515318C.304857-1.515318 .304857-1.443587 .304857-1.282192V-.134496C.304857 .017933 .304857 .09863 .412453 .09863C.466252 .09863 .475218 .089664 .636613-.080697C.672478-.134496 .771108-.251059 .81594-.29589C1.192528 .071731 1.604981 .09863 1.829141 .09863C2.932005 .09863 3.317559-.546949 3.317559-1.147696C3.317559-1.551183 3.138232-1.793275 2.940971-1.999502C2.636115-2.295392 2.313325-2.358157 1.649813-2.483686C1.416687-2.528518 .762142-2.645081 .762142-3.156164C.762142-3.443088 .968369-3.819676 1.784309-3.819676C2.752677-3.819676 2.815442-3.075467 2.833375-2.851308C2.842341-2.743711 2.842341-2.689913 2.958904-2.689913C3.084433-2.689913 3.084433-2.752677 3.084433-2.923039V-3.783811Z"/>
<path id="g4-116" d="M2.914072-3.58655V-3.864508H1.613948V-5.514321H1.362889C1.353923-4.761146 1.0401-3.837609 .170361-3.81071V-3.58655H.950436V-1.111831C.950436-.107597 1.676712 .09863 2.15193 .09863C2.752677 .09863 3.066501-.475218 3.066501-1.111831V-1.622914H2.815442V-1.13873C2.815442-.475218 2.537484-.152428 2.214695-.152428C1.613948-.152428 1.613948-.941469 1.613948-1.102864V-3.58655H2.914072Z"/>
<path id="g4-117" d="M3.550685-1.497385C3.550685-.699377 3.102366-.125529 2.456787-.125529C1.712578-.125529 1.667746-.511083 1.667746-.995268V-3.963138L.313823-3.864508V-3.58655C1.004234-3.58655 1.004234-3.559651 1.004234-2.761644V-1.416687C1.004234-.833873 1.004234-.457285 1.416687-.143462C1.676712 .035866 2.044334 .09863 2.402989 .09863C2.86924 .09863 3.308593-.107597 3.568618-.645579H3.577584V.09863L4.904608 0V-.277958C4.294894-.277958 4.214197-.340722 4.214197-.780075V-3.963138L2.860274-3.864508V-3.58655C3.469988-3.58655 3.550685-3.523786 3.550685-3.084433V-1.497385Z"/>
<path id="g4-122" d="M3.595517-3.577584C3.676214-3.676214 3.676214-3.694147 3.676214-3.730012C3.676214-3.864508 3.58655-3.864508 3.434122-3.864508H.484184L.385554-2.394022H.636613C.690411-3.308593 .851806-3.640349 1.865006-3.640349H2.86924L.340722-.304857C.260025-.206227 .260025-.188294 .260025-.143462C.260025 0 .340722 0 .502117 0H3.550685L3.703113-1.703611H3.452055C3.362391-.708344 3.245828-.251059 2.125031-.251059H1.075965L3.595517-3.577584Z"/>
<path id="g4-127" d="M1.865006-5.550187C1.865006-5.801245 1.65878-6.007472 1.407721-6.007472S.950436-5.801245 .950436-5.550187S1.156663-5.092902 1.407721-5.092902S1.865006-5.299128 1.865006-5.550187ZM3.649315-5.550187C3.649315-5.801245 3.443088-6.007472 3.19203-6.007472S2.734745-5.801245 2.734745-5.550187S2.940971-5.092902 3.19203-5.092902S3.649315-5.299128 3.649315-5.550187Z"/>
</defs>
<g id="page1">
<g stroke-miterlimit="10" transform="translate(108.574687,284.761809)scale(0.996264,-0.996264)">
<g fill="#000" stroke="#000">
<g stroke-width="0.4">
<g stroke="none" transform="scale(-1.00375,1.00375)translate(108.574687,284.761809)scale(-1,-1)"/>
<g transform="translate(-31.98184,-28.53189)">
<g stroke="none" transform="scale(-1.00375,1.00375)translate(108.574687,284.761809)scale(-1,-1)">
<g stroke="#000" stroke-miterlimit="10" transform="translate(140.437045,256.336513)scale(0.996264,-0.996264)">
<g fill="#000" stroke="#000">
<g stroke-width="0.4">
<g stroke-width="0.4">
<g fill="#c0c0c0" stroke="#c0c0c0">
<g fill="#d9d9d9" stroke="#d9d9d9">
<path d="M 0.0 0.0 L 0.0 211.07483 M 76.35803 0.0 L 76.35803 211.07483 M 152.71606 0.0 L 152.71606 211.07483 M 229.0741 0.0 L 229.0741 211.07483 M 305.43213 0.0 L 305.43213 211.07483 M 381.79016 0.0 L 381.79016 211.07483" fill="none"/>
</g>
</g>
</g>
<g stroke-width="0.4">
<g fill="#c0c0c0" stroke="#c0c0c0">
<g fill="#d9d9d9" stroke="#d9d9d9">
<path d="M 0.0 0.0 L 381.79016 0.0 M 0.0 33.77197 L 381.79016 33.77197 M 0.0 67.54395 L 381.79016 67.54395 M 0.0 101.31592 L 381.79016 101.31592 M 0.0 135.08789 L 381.79016 135.08789 M 0.0 168.85986 L 381.79016 168.85986 M 0.0 202.63184 L 381.79016 202.63184" fill="none"/>
</g>
</g>
</g>
<g stroke-width="0.2">
<g fill="#808080" stroke="#808080">
<path d="M 0.0 0.0 L 0.0 4.26779 M 76.35803 0.0 L 76.35803 4.26779 M 152.71606 0.0 L 152.71606 4.26779 M 229.0741 0.0 L 229.0741 4.26779 M 305.43213 0.0 L 305.43213 4.26779 M 381.79016 0.0 L 381.79016 4.26779 M 0.0 211.07483 L 0.0 206.80702 M 76.35803 211.07483 L 76.35803 206.80702 M 152.71606 211.07483 L 152.71606 206.80702 M 229.0741 211.07483 L 229.0741 206.80702 M 305.43213 211.07483 L 305.43213 206.80702 M 381.79016 211.07483 L 381.79016 206.80702" fill="none"/>
</g>
</g>
<g stroke-width="0.2">
<g fill="#808080" stroke="#808080">
<path d="M 0.0 0.0 L 4.26785 0.0 M 0.0 33.77197 L 4.26785 33.77197 M 0.0 67.54395 L 4.26785 67.54395 M 0.0 101.31592 L 4.26785 101.31592 M 0.0 135.08789 L 4.26785 135.08789 M 0.0 168.85986 L 4.26785 168.85986 M 0.0 202.63184 L 4.26785 202.63184 M 381.79016 0.0 L 377.5223 0.0 M 381.79016 33.77197 L 377.5223 33.77197 M 381.79016 67.54395 L 377.5223 67.54395 M 381.79016 101.31592 L 377.5223 101.31592 M 381.79016 135.08789 L 377.5223 135.08789 M 381.79016 168.85986 L 377.5223 168.85986 M 381.79016 202.63184 L 377.5223 202.63184" fill="none"/>
</g>
</g>
<path d="M 0.0 0.0 L 0.0 211.07483 L 381.79016 211.07483 L 381.79016 0.0 L 0.0 0.0 Z" fill="none"/>
<g transform="translate(-2.31248,-9.33296)">
<g stroke="none" transform="scale(-1.00375,1.00375)translate(140.437045,256.336513)scale(-1,-1)">
<g fill="#000">
<g stroke="none">
<use x="140.437045" y="256.336513" xlink:href="#g4-48"/>
</g>
</g>
</g>
</g>
<g transform="translate(74.04555,-9.33296)">
<g stroke="none" transform="scale(-1.00375,1.00375)translate(140.437045,256.336513)scale(-1,-1)">
<g fill="#000">
<g stroke="none">
<use x="140.437045" y="256.336513" xlink:href="#g4-49"/>
</g>
</g>
</g>
</g>
<g transform="translate(150.40358,-9.33296)">
<g stroke="none" transform="scale(-1.00375,1.00375)translate(140.437045,256.336513)scale(-1,-1)">
<g fill="#000">
<g stroke="none">
<use x="140.437045" y="256.336513" xlink:href="#g4-50"/>
</g>
</g>
</g>
</g>
<g transform="translate(226.76161,-9.33296)">
<g stroke="none" transform="scale(-1.00375,1.00375)translate(140.437045,256.336513)scale(-1,-1)">
<g fill="#000">
<g stroke="none">
<use x="140.437045" y="256.336513" xlink:href="#g4-51"/>
</g>
</g>
</g>
</g>
<g transform="translate(303.11964,-9.33296)">
<g stroke="none" transform="scale(-1.00375,1.00375)translate(140.437045,256.336513)scale(-1,-1)">
<g fill="#000">
<g stroke="none">
<use x="140.437045" y="256.336513" xlink:href="#g4-52"/>
</g>
</g>
</g>
</g>
<g transform="translate(379.47768,-9.33296)">
<g stroke="none" transform="scale(-1.00375,1.00375)translate(140.437045,256.336513)scale(-1,-1)">
<g fill="#000">
<g stroke="none">
<use x="140.437045" y="256.336513" xlink:href="#g4-53"/>
</g>
</g>
</g>
</g>
<g transform="translate(335.61583,-25.55588)">
<g stroke="none" transform="scale(-1.00375,1.00375)translate(140.437045,256.336513)scale(-1,-1)">
<g fill="#000">
<g stroke="none">
<use x="140.437045" y="256.336513" xlink:href="#g1-1"/>
<use x="142.996873" y="256.336513" xlink:href="#g4-49"/>
<use x="147.604564" y="256.336513" xlink:href="#g4-48"/>
<use x="152.212255" y="252.527509" xlink:href="#g3-52"/>
</g>
</g>
</g>
</g>
<g transform="translate(-8.15794,-2.9)">
<g stroke="none" transform="scale(-1.00375,1.00375)translate(140.437045,256.336513)scale(-1,-1)">
<g fill="#000">
<g stroke="none">
<use x="140.437045" y="256.336513" xlink:href="#g4-48"/>
</g>
</g>
</g>
</g>
<g transform="translate(-8.15794,30.87198)">
<g stroke="none" transform="scale(-1.00375,1.00375)translate(140.437045,256.336513)scale(-1,-1)">
<g fill="#000">
<g stroke="none">
<use x="140.437045" y="256.336513" xlink:href="#g4-52"/>
</g>
</g>
</g>
</g>
<g transform="translate(-8.15794,64.64395)">
<g stroke="none" transform="scale(-1.00375,1.00375)translate(140.437045,256.336513)scale(-1,-1)">
<g fill="#000">
<g stroke="none">
<use x="140.437045" y="256.336513" xlink:href="#g4-56"/>
</g>
</g>
</g>
</g>
<g transform="translate(-12.78291,98.41592)">
<g stroke="none" transform="scale(-1.00375,1.00375)translate(140.437045,256.336513)scale(-1,-1)">
<g fill="#000">
<g stroke="none">
<use x="140.437045" y="256.336513" xlink:href="#g4-49"/>
<use x="145.044736" y="256.336513" xlink:href="#g4-50"/>
</g>
</g>
</g>
</g>
<g transform="translate(-12.78291,132.1879)">
<g stroke="none" transform="scale(-1.00375,1.00375)translate(140.437045,256.336513)scale(-1,-1)">
<g fill="#000">
<g stroke="none">
<use x="140.437045" y="256.336513" xlink:href="#g4-49"/>
<use x="145.044736" y="256.336513" xlink:href="#g4-54"/>
</g>
</g>
</g>
</g>
<g transform="translate(-12.78291,165.95987)">
<g stroke="none" transform="scale(-1.00375,1.00375)translate(140.437045,256.336513)scale(-1,-1)">
<g fill="#000">
<g stroke="none">
<use x="140.437045" y="256.336513" xlink:href="#g4-50"/>
<use x="145.044736" y="256.336513" xlink:href="#g4-48"/>
</g>
</g>
</g>
</g>
<g transform="translate(-12.78291,199.73184)">
<g stroke="none" transform="scale(-1.00375,1.00375)translate(140.437045,256.336513)scale(-1,-1)">
<g fill="#000">
<g stroke="none">
<use x="140.437045" y="256.336513" xlink:href="#g4-50"/>
<use x="145.044736" y="256.336513" xlink:href="#g4-52"/>
</g>
</g>
</g>
</g>
<clipPath id="pgfcp9">
<path d="M 0.0 0.0 L 381.79016 0.0 L 381.79016 211.07483 L 0.0 211.07483 Z"/> </clipPath>
<g clip-path="url(#pgfcp9)">
<g stroke-width="0.8">
<g fill="#00f" stroke="#00f">
<path d="M 0.0 11.86899 L 1.27689 12.33934 L 2.55377 12.81587 L 3.83066 13.29803 L 5.10756 13.7863 L 6.38443 14.28047 L 7.66133 14.78038 L 8.93822 15.28603 L 10.2151 15.79726 L 11.49199 16.31413 L 12.76889 16.83641 L 14.04578 17.3642 L 15.32266 17.89728 L 16.59956 18.43594 L 17.87645 18.97977 L 19.15332 19.52881 L 20.43022 20.08301 L 21.7071 20.64252 L 22.984 21.20709 L 24.2609 21.77658 L 25.53778 22.35114 L 26.81467 22.93065 L 28.09155 23.51373 L 29.36845 24.1039 L 30.64534 24.69829 L 31.92223 25.29689 L 33.19911 25.9014 L 34.476 26.5093 L 35.75288 27.12225 L 37.02979 27.73944 L 38.30667 28.36337 L 39.58356 28.9907 L 40.86046 29.62224 L 42.13734 30.25716 L 43.41423 30.89882 L 44.69113 31.54385 L 45.968 32.19313 L 47.24489 32.84662 L 48.52179 33.50517 L 49.79868 34.1671 L 51.07556 34.83409 L 52.35246 35.50531 L 53.62935 36.1816 L 54.90623 36.86041 L 56.18312 37.54514 L 57.46002 38.23325 L 58.7369 38.92473 L 60.0138 39.62126 L 61.29068 40.3212 L 62.56757 41.02618 L 63.84445 41.73456 L 65.12135 42.44713 L 66.39824 43.1648 L 67.67513 43.88498 L 68.95203 44.61024 L 70.22891 45.33803 L 71.50578 46.07088 L 72.78268 46.80626 L 74.05957 47.54755 L 75.33646 48.29054 L 76.61336 49.03943 L 77.89024 49.79001 L 79.16713 50.5465 L 80.44402 51.30553 L 81.72092 52.06879 L 82.9978 52.83624 L 84.27469 53.60625 L 85.55157 54.38046 L 86.82846 55.15807 L 88.10535 55.94073 L 89.38225 56.7251 L 90.65913 57.51451 L 91.93602 58.3073 L 93.21292 59.10349 L 94.4898 59.90303 L 95.76668 60.70596 L 97.04358 61.51395 L 98.32047 62.32364 L 99.59735 63.13838 L 100.87425 63.95482 L 102.15114 64.77547 L 103.42802 65.60036 L 104.70493 66.42862 L 105.98181 67.2611 L 107.2587 68.09442 L 108.53558 68.93282 L 109.81247 69.77458 L 111.08936 70.61972 L 112.36626 71.46823 L 113.64314 72.32013 L 114.92003 73.17542 L 116.19691 74.03238 L 117.47382 74.89525 L 118.7507 75.76065 L 120.02759 76.62944 L 121.30447 77.49992 L 122.58136 78.3763 L 123.85825 79.25606 L 125.13515 80.13751 L 126.41203 81.01979 L 127.68892 81.90968 L 128.96588 82.80043 L 130.24266 83.69539 L 131.51964 84.59372 L 132.79639 85.49374 L 134.07336 86.39883 L 135.35034 87.30562 L 136.6271 88.21492 L 137.90407 89.12845 L 139.18085 90.04536 L 140.45782 90.9648 L 141.73477 91.88762 L 143.01155 92.8155 L 144.28853 93.74423 L 145.56529 94.67549 L 146.84225 95.61098 L 148.11923 96.549 L 149.396 97.48955 L 150.67296 98.43517 L 151.94974 99.38248 L 153.22672 100.3323 L 154.50368 101.28467 L 155.78044 102.24211 L 157.05742 103.20293 L 158.33418 104.16373 L 159.61115 105.13046 L 160.88812 106.09886 L 162.16489 107.06895 L 163.44186 108.04498 L 164.71863 109.021 L 165.9956 110.00122 L 167.27257 110.98398 L 168.54933 111.97012 L 169.82631 112.95879 L 171.10307 113.95001 L 172.38005 114.94543 L 173.65701 115.94339 L 174.93378 116.94305 L 176.21075 117.94608 L 177.48752 118.95248 L 178.7645 119.96141 L 180.04146 120.97374 L 181.31824 121.98773 L 182.5952 123.00597 L 183.87196 124.02586 L 185.14894 125.04916 L 186.4259 126.07414 L 187.70267 127.10251 L 188.97964 128.13425 L 190.25642 129.1685 L 191.53339 130.20445 L 192.81035 131.24548 L 194.08713 132.28734 L 195.36409 133.3326 L 196.64085 134.3812 L 197.91783 135.43068 L 199.19481 136.4852 L 200.47156 137.53973 L 201.74854 138.60017 L 203.02531 139.66061 L 204.30228 140.7261 L 205.57924 141.79247 L 206.85602 142.86218 L 208.133 143.93361 L 209.40976 145.0084 L 210.68672 146.08656 L 211.9637 147.16728 L 213.24046 148.24966 L 214.51743 149.33458 L 215.7942 150.42458 L 217.07118 151.51457 L 218.34813 152.60794 L 219.62491 153.70468 L 220.90189 154.80228 L 222.17865 155.90494 L 223.45561 157.00758 L 224.73259 158.11531 L 226.00935 159.22302 L 227.28632 160.33496 L 228.5631 161.44945 L 229.84007 162.56645 L 231.11703 163.68599 L 232.3938 164.80722 L 233.67078 165.93182 L 234.94754 167.05898 L 236.22452 168.18695 L 237.50148 169.32085 L 238.77824 170.45474 L 240.05522 171.592 L 241.33199 172.73097 L 242.60896 173.87415 L 243.88593 175.01901 L 245.1627 176.16557 L 246.43967 177.31636 L 247.71643 178.46799 L 248.99341 179.62213 L 250.27037 180.78052 L 251.54713 181.93805 L 252.82411 183.10066 L 254.10089 184.26494 L 255.37785 185.4326 L 256.65482 186.60197 L 257.9316 187.77469 L 259.20856 188.94827 L 260.48532 190.12439 L 261.7623 191.3047 L 263.03928 192.48589 L 264.31602 193.66959 L 265.593 194.85582 L 266.86978 196.0446 L 268.14674 197.2359 L 269.4237 198.42975 L 270.70049 199.62697 L 271.97746 200.82503 L 273.25421 202.02562 L 274.53119 203.22874 L 275.80817 204.43526 L 277.08493 205.64345 L 278.3619 206.85164 L 279.63867 208.06575 L 280.91565 209.27983 L 282.1926 210.49731 L 283.46938 211.71902 L 284.74635 212.94073 L 286.02312 214.16496 L 287.30008 215.39172 L 288.57706 216.62102 L 289.85382 217.85286 L 291.13078 219.08722 L 292.40756 220.32243 L 293.68454 221.56102 L 294.9615 222.80214 L 296.23827 224.0441 L 297.51524 225.2903 L 298.792 226.53731 L 300.06897 227.78772 L 301.34595 229.03983 L 302.62271 230.29529 L 303.89969 231.55077 L 305.17645 232.81131 L 306.45343 234.071 L 307.7304 235.33154 L 309.00716 236.59799 L 310.28413 237.856 L 311.5609 239.13089 L 312.83788 240.40578 L 314.11484 241.68068 L 315.3916 242.964 L 316.66858 244.23889 L 317.94534 245.52223 L 319.22232 246.79712 L 320.49928 248.0889 L 321.77606 249.37224 L 323.05302 250.66402 L 324.32979 251.9558 L 325.60677 253.26447 L 326.88373 254.55624 L 328.16049 255.85645 L 329.43747 257.15668 L 330.71425 258.4569 L 331.99121 259.75713 L 333.26817 261.07423 L 334.54495 262.39133 L 335.82191 263.7 L 337.09868 265.00021 L 338.37566 266.32578 L 339.65263 267.64288 L 340.9294 268.96843 L 342.20636 270.29398 L 343.48314 271.61108 L 344.7601 272.9535 L 346.03706 274.27907 L 347.31384 275.60461 L 348.59082 276.94705 L 349.86758 278.2726 L 351.14455 279.61504 L 352.42152 280.94904 L 353.69829 282.30835 L 354.97525 283.64235 L 356.25203 284.98477 L 357.529 286.33566 L 358.80597 287.68654 L 360.08273 289.04587 L 361.35971 290.4052 L 362.63647 291.76451 L 363.91344 293.11539 L 365.19041 294.48314 L 366.46718 295.84247 L 367.74416 297.21024 L 369.02092 298.578 L 370.2979 299.95421 L 371.57486 301.32198 L 372.85162 302.69818 L 374.1286 304.07439 L 375.40536 305.45903 L 376.68234 306.83525 L 377.9593 308.21146 L 379.23607 309.60455 L 380.51305 310.98076 L 381.78981 312.37386" fill="none"/>
</g>
</g>
<g transform="translate(14.98668,12.94739)">
<g stroke="none" transform="scale(-1.00375,1.00375)translate(140.437045,256.336513)scale(-1,-1)">
<g fill="#000">
<g stroke="none">
<use x="140.437045" y="256.336513" xlink:href="#g4-76"/>
<use x="146.195966" y="256.336513" xlink:href="#g4-69"/>
<use x="152.466852" y="256.336513" xlink:href="#g4-79"/>
<use x="159.634371" y="256.336513" xlink:href="#g4-58"/>
<use x="165.265993" y="256.336513" xlink:href="#g2-104"/>
<use x="173.135746" y="256.336513" xlink:href="#g4-61"/>
<use x="182.863092" y="256.336513" xlink:href="#g4-52"/>
<use x="187.470783" y="256.336513" xlink:href="#g4-48"/>
<use x="192.078474" y="256.336513" xlink:href="#g4-48"/>
<use x="199.757958" y="256.336513" xlink:href="#g4-107"/>
<use x="204.621632" y="256.336513" xlink:href="#g4-109"/>
<use x="212.301116" y="256.336513" xlink:href="#g4-44"/>
<use x="224.076325" y="256.336513" xlink:href="#g2-84"/>
<use x="233.292057" y="256.336513" xlink:href="#g1-25"/>
<use x="243.019404" y="256.336513" xlink:href="#g4-49"/>
<use x="247.627095" y="256.336513" xlink:href="#g2-59"/>
<use x="250.186923" y="256.336513" xlink:href="#g4-53"/>
<use x="254.794614" y="256.336513" xlink:href="#g4-52"/>
<use x="262.474098" y="256.336513" xlink:href="#g4-104"/>
</g>
</g>
</g>
</g>
<g transform="translate(167.70274,103.28741)">
<g stroke="none" transform="scale(-1.00375,1.00375)translate(140.437045,256.336513)scale(-1,-1)">
<g fill="#000">
<g stroke="none">
<use x="140.437045" y="256.336513" xlink:href="#g4-77"/>
<use x="148.883093" y="256.336513" xlink:href="#g4-69"/>
<use x="155.153979" y="256.336513" xlink:href="#g4-79"/>
<use x="162.321498" y="256.336513" xlink:href="#g4-58"/>
<use x="167.95312" y="256.336513" xlink:href="#g2-104"/>
<use x="175.822872" y="256.336513" xlink:href="#g4-61"/>
<use x="185.550219" y="256.336513" xlink:href="#g4-50"/>
<use x="190.15791" y="256.336513" xlink:href="#g4-48"/>
<use x="196.301498" y="256.336513" xlink:href="#g4-50"/>
<use x="200.909188" y="256.336513" xlink:href="#g4-48"/>
<use x="205.516879" y="256.336513" xlink:href="#g4-48"/>
<use x="213.196363" y="256.336513" xlink:href="#g4-107"/>
<use x="218.060037" y="256.336513" xlink:href="#g4-109"/>
<use x="225.739521" y="256.336513" xlink:href="#g4-44"/>
<use x="237.514731" y="256.336513" xlink:href="#g2-84"/>
<use x="246.730462" y="256.336513" xlink:href="#g1-25"/>
<use x="256.457809" y="256.336513" xlink:href="#g4-49"/>
<use x="261.0655" y="256.336513" xlink:href="#g4-49"/>
<use x="265.673191" y="256.336513" xlink:href="#g2-59"/>
<use x="268.233019" y="256.336513" xlink:href="#g4-57"/>
<use x="272.840709" y="256.336513" xlink:href="#g4-55"/>
<use x="280.520194" y="256.336513" xlink:href="#g4-104"/>
</g>
</g>
</g>
</g>
<g transform="translate(282.23979,175.05286)">
<g stroke="none" transform="scale(-1.00375,1.00375)translate(140.437045,256.336513)scale(-1,-1)">
<g fill="#000">
<g stroke="none">
<use x="140.437045" y="256.336513" xlink:href="#g4-103"/>
<use x="145.044736" y="256.336513" xlink:href="#g4-101"/>
<use x="149.143924" y="256.336513" xlink:href="#g4-111"/>
<use x="153.751615" y="256.336513" xlink:href="#g4-115"/>
<use x="157.386577" y="256.336513" xlink:href="#g4-116"/>
<use x="160.970337" y="256.336513" xlink:href="#g4-97"/>
<use x="165.578027" y="256.336513" xlink:href="#g4-116"/>
<use x="169.161787" y="256.336513" xlink:href="#g4-105"/>
<use x="171.721615" y="256.336513" xlink:href="#g4-111"/>
<use x="176.329306" y="256.336513" xlink:href="#g4-110"/>
<use x="181.448962" y="256.336513" xlink:href="#g4-127"/>
<use x="181.448962" y="256.336513" xlink:href="#g4-97"/>
<use x="186.056653" y="256.336513" xlink:href="#g4-114"/>
<use x="189.661174" y="256.336513" xlink:href="#g4-58"/>
<use x="196.316727" y="256.336513" xlink:href="#g2-104"/>
<use x="204.18648" y="256.336513" xlink:href="#g4-61"/>
<use x="213.913827" y="256.336513" xlink:href="#g4-51"/>
<use x="218.521517" y="256.336513" xlink:href="#g4-53"/>
<use x="224.665105" y="256.336513" xlink:href="#g4-55"/>
<use x="229.272795" y="256.336513" xlink:href="#g4-56"/>
<use x="233.880486" y="256.336513" xlink:href="#g4-54"/>
<use x="241.55997" y="256.336513" xlink:href="#g4-107"/>
<use x="246.423644" y="256.336513" xlink:href="#g4-109"/>
<use x="254.103128" y="256.336513" xlink:href="#g4-44"/>
<use x="265.878338" y="256.336513" xlink:href="#g2-84"/>
<use x="275.09407" y="256.336513" xlink:href="#g1-25"/>
<use x="284.821416" y="256.336513" xlink:href="#g4-50"/>
<use x="289.429107" y="256.336513" xlink:href="#g4-51"/>
<use x="294.036798" y="256.336513" xlink:href="#g2-59"/>
<use x="296.596626" y="256.336513" xlink:href="#g4-57"/>
<use x="301.204317" y="256.336513" xlink:href="#g4-51"/>
<use x="308.883801" y="256.336513" xlink:href="#g4-104"/>
</g>
</g>
</g>
</g>
</g>
<path d="M 5.05432 13.00423 C 5.05432 14.10881 4.1589 15.00423 3.05432 15.00423 C 1.94974 15.00423 1.05432 14.10881 1.05432 13.00423 C 1.05432 11.89964 1.94974 11.00423 3.05432 11.00423 C 4.1589 11.00423 5.05432 11.89964 5.05432 13.00423 Z M 3.05432 13.00423"/>
<path d="" fill="none"/>
<path d="M 156.24323 101.09132 C 156.24323 102.1959 155.34781 103.09132 154.24323 103.09132 C 153.13864 103.09132 152.24323 102.1959 152.24323 101.09132 C 152.24323 99.98674 153.13864 99.09132 154.24323 99.09132 C 155.34781 99.09132 156.24323 99.98674 156.24323 101.09132 Z M 154.24323 101.09132"/>
<path d="" fill="none"/>
<path d="M 275.25485 202.02562 C 275.25485 203.1302 274.35944 204.02562 273.25485 204.02562 C 272.15027 204.02562 271.25485 203.1302 271.25485 202.02562 C 271.25485 200.92104 272.15027 200.02562 273.25485 200.02562 C 274.35944 200.02562 275.25485 200.92104 275.25485 202.02562 Z M 273.25485 202.02562"/>
<path d="" fill="none"/>
<g transform="translate(101.65614,-22.94891)">
<g stroke="none" transform="scale(-1.00375,1.00375)translate(140.437045,256.336513)scale(-1,-1)">
<g fill="#000">
<g stroke="none">
<use x="140.437045" y="256.336513" xlink:href="#g4-72"/>
<use x="147.347196" y="256.336513" xlink:href="#g4-127"/>
<use x="147.347196" y="256.336513" xlink:href="#g4-111"/>
<use x="151.954887" y="256.336513" xlink:href="#g4-104"/>
<use x="157.074543" y="256.336513" xlink:href="#g4-101"/>
<use x="164.245525" y="256.336513" xlink:href="#g4-100"/>
<use x="169.365181" y="256.336513" xlink:href="#g4-101"/>
<use x="173.464369" y="256.336513" xlink:href="#g4-114"/>
<use x="180.140684" y="256.336513" xlink:href="#g4-85"/>
<use x="187.050835" y="256.336513" xlink:href="#g4-109"/>
<use x="194.730319" y="256.336513" xlink:href="#g4-108"/>
<use x="197.290147" y="256.336513" xlink:href="#g4-97"/>
<use x="201.897838" y="256.336513" xlink:href="#g4-117"/>
<use x="207.017494" y="256.336513" xlink:href="#g4-102"/>
<use x="209.833305" y="256.336513" xlink:href="#g4-98"/>
<use x="214.952962" y="256.336513" xlink:href="#g4-97"/>
<use x="219.560652" y="256.336513" xlink:href="#g4-104"/>
<use x="224.680308" y="256.336513" xlink:href="#g4-110"/>
<use x="233.127741" y="256.336513" xlink:href="#g4-127"/>
<use x="232.871758" y="256.336513" xlink:href="#g4-117"/>
<use x="237.991415" y="256.336513" xlink:href="#g4-98"/>
<use x="243.367054" y="256.336513" xlink:href="#g4-101"/>
<use x="247.466242" y="256.336513" xlink:href="#g4-114"/>
<use x="254.142557" y="256.336513" xlink:href="#g4-100"/>
<use x="259.262213" y="256.336513" xlink:href="#g4-101"/>
<use x="263.361401" y="256.336513" xlink:href="#g4-114"/>
<use x="270.037716" y="256.336513" xlink:href="#g4-69"/>
<use x="276.308603" y="256.336513" xlink:href="#g4-114"/>
<use x="279.913124" y="256.336513" xlink:href="#g4-100"/>
<use x="285.03278" y="256.336513" xlink:href="#g4-101"/>
<use x="292.203762" y="256.336513" xlink:href="#g2-104"/>
<use x="300.58548" y="256.336513" xlink:href="#g4-91"/>
<use x="303.145309" y="256.336513" xlink:href="#g4-107"/>
<use x="308.008982" y="256.336513" xlink:href="#g4-109"/>
<use x="315.688466" y="256.336513" xlink:href="#g4-93"/>
</g>
</g>
</g>
</g>
<g transform="matrix(0.0,1.0,-1.0,0.0,-21.89886,71.87671)">
<g stroke="none" transform="scale(-1.00375,1.00375)translate(140.437045,256.336513)scale(-1,-1)">
<g fill="#000">
<g stroke="none">
<use x="140.437045" y="256.336513" xlink:href="#g4-85"/>
<use x="147.347196" y="256.336513" xlink:href="#g4-109"/>
<use x="155.02668" y="256.336513" xlink:href="#g4-108"/>
<use x="157.586508" y="256.336513" xlink:href="#g4-97"/>
<use x="162.194199" y="256.336513" xlink:href="#g4-117"/>
<use x="167.313855" y="256.336513" xlink:href="#g4-102"/>
<use x="170.129666" y="256.336513" xlink:href="#g4-122"/>
<use x="174.225391" y="256.336513" xlink:href="#g4-101"/>
<use x="178.324579" y="256.336513" xlink:href="#g4-105"/>
<use x="180.884408" y="256.336513" xlink:href="#g4-116"/>
<use x="187.539961" y="256.336513" xlink:href="#g2-84"/>
<use x="197.267658" y="256.336513" xlink:href="#g4-91"/>
<use x="199.827486" y="256.336513" xlink:href="#g4-104"/>
<use x="204.947143" y="256.336513" xlink:href="#g4-93"/>
</g>
</g>
</g>
</g>
<g transform="translate(44.18338,222.55225)">
<g stroke="none" transform="scale(-1.00375,1.00375)translate(140.437045,256.336513)scale(-1,-1)">
<g fill="#000">
<g stroke="none">
<use x="140.437045" y="256.336513" xlink:href="#g0-85"/>
<use x="149.251172" y="256.336513" xlink:href="#g0-109"/>
<use x="158.798651" y="256.336513" xlink:href="#g0-108"/>
<use x="161.981144" y="256.336513" xlink:href="#g0-97"/>
<use x="167.550498" y="256.336513" xlink:href="#g0-117"/>
<use x="173.915484" y="256.336513" xlink:href="#g0-102"/>
<use x="177.416226" y="256.336513" xlink:href="#g0-122"/>
<use x="182.508215" y="256.336513" xlink:href="#g0-101"/>
<use x="187.759339" y="256.336513" xlink:href="#g0-105"/>
<use x="190.941832" y="256.336513" xlink:href="#g0-116"/>
<use x="199.216314" y="256.336513" xlink:href="#g0-101"/>
<use x="204.467437" y="256.336513" xlink:href="#g0-105"/>
<use x="207.64993" y="256.336513" xlink:href="#g0-110"/>
<use x="214.014917" y="256.336513" xlink:href="#g0-101"/>
<use x="219.26604" y="256.336513" xlink:href="#g0-115"/>
<use x="227.60417" y="256.336513" xlink:href="#g0-83"/>
<use x="233.969156" y="256.336513" xlink:href="#g0-97"/>
<use x="239.53851" y="256.336513" xlink:href="#g0-116"/>
<use x="243.994" y="256.336513" xlink:href="#g0-101"/>
<use x="249.245123" y="256.336513" xlink:href="#g0-108"/>
<use x="252.427616" y="256.336513" xlink:href="#g0-108"/>
<use x="255.610109" y="256.336513" xlink:href="#g0-105"/>
<use x="258.792603" y="256.336513" xlink:href="#g0-116"/>
<use x="263.248093" y="256.336513" xlink:href="#g0-101"/>
<use x="268.499216" y="256.336513" xlink:href="#g0-110"/>
<use x="278.683194" y="256.336513" xlink:href="#g0-105"/>
<use x="281.865687" y="256.336513" xlink:href="#g0-110"/>
<use x="292.049665" y="256.336513" xlink:href="#g0-65"/>
<use x="300.711584" y="256.336513" xlink:href="#g0-98"/>
<use x="307.07657" y="256.336513" xlink:href="#g0-104"/>
<use x="313.361975" y="256.336513" xlink:href="#g0-127"/>
<use x="313.441557" y="256.336513" xlink:href="#g0-97"/>
<use x="319.01091" y="256.336513" xlink:href="#g0-110"/>
<use x="325.375896" y="256.336513" xlink:href="#g0-103"/>
<use x="331.104384" y="256.336513" xlink:href="#g0-105"/>
<use x="334.286877" y="256.336513" xlink:href="#g0-103"/>
<use x="340.015365" y="256.336513" xlink:href="#g0-107"/>
<use x="345.743852" y="256.336513" xlink:href="#g0-101"/>
<use x="350.994976" y="256.336513" xlink:href="#g0-105"/>
<use x="354.177469" y="256.336513" xlink:href="#g0-116"/>
<use x="362.451951" y="256.336513" xlink:href="#g0-100"/>
<use x="368.816937" y="256.336513" xlink:href="#g0-101"/>
<use x="374.06806" y="256.336513" xlink:href="#g0-114"/>
<use x="382.605457" y="256.336513" xlink:href="#g0-66"/>
<use x="390.755408" y="256.336513" xlink:href="#g0-97"/>
<use x="396.324762" y="256.336513" xlink:href="#g0-104"/>
<use x="402.689748" y="256.336513" xlink:href="#g0-110"/>
<use x="409.054735" y="256.336513" xlink:href="#g0-104"/>
<use x="415.419721" y="256.336513" xlink:href="#g0-127"/>
<use x="415.419721" y="256.336513" xlink:href="#g0-111"/>
<use x="421.148208" y="256.336513" xlink:href="#g0-104"/>
<use x="427.513195" y="256.336513" xlink:href="#g0-101"/>
</g>
</g>
</g>
</g>
</g>
</g>
</g>
</g>
</g>
</g>
</g>
</g>
</g>
</svg>