<?xml version="1.0" encoding="UTF-8"?>
<svg xmlns="http://www.w3.org/2000/svg" xmlns:xlink="http://www.w3.org/1999/xlink" width="255.345" height="183.479" viewBox="0 0 255.345 183.479">
<defs>
<g>
<g id="glyph-0-0">
<path d="M 4.484375 -1.953125 C 4.484375 -2.078125 4.453125 -2.203125 4.296875 -2.203125 C 4.1875 -2.203125 4.09375 -2.125 4.078125 -2.015625 C 4.0625 -1.671875 3.859375 -1.125 3.4375 -1.125 C 2.8125 -1.125 2.40625 -2.21875 1.578125 -2.21875 C 0.734375 -2.21875 0.515625 -1.203125 0.515625 -0.984375 C 0.515625 -0.859375 0.5625 -0.734375 0.71875 -0.734375 C 0.828125 -0.734375 0.90625 -0.8125 0.921875 -0.921875 C 0.953125 -1.265625 1.15625 -1.8125 1.578125 -1.8125 C 2.1875 -1.8125 2.59375 -0.71875 3.4375 -0.71875 C 4.25 -0.71875 4.484375 -1.75 4.484375 -1.953125 Z M 4.484375 -3.546875 C 4.484375 -3.671875 4.453125 -3.796875 4.296875 -3.796875 C 4.1875 -3.796875 4.09375 -3.703125 4.078125 -3.609375 C 4.0625 -3.265625 3.859375 -2.71875 3.4375 -2.71875 C 2.8125 -2.71875 2.40625 -3.8125 1.578125 -3.8125 C 0.734375 -3.8125 0.515625 -2.78125 0.515625 -2.578125 C 0.515625 -2.453125 0.5625 -2.328125 0.71875 -2.328125 C 0.828125 -2.328125 0.90625 -2.40625 0.921875 -2.515625 C 0.953125 -2.84375 1.15625 -3.390625 1.578125 -3.390625 C 2.1875 -3.390625 2.59375 -2.3125 3.4375 -2.3125 C 4.25 -2.3125 4.484375 -3.328125 4.484375 -3.546875 Z M 4.484375 -3.546875 "/>
</g>
<g id="glyph-0-1">
<path d="M 4.296875 0.046875 L 0.71875 0.046875 C 0.609375 0.046875 0.515625 0.140625 0.515625 0.25 C 0.515625 0.359375 0.609375 0.453125 0.71875 0.453125 L 4.296875 0.453125 C 4.40625 0.453125 4.5 0.359375 4.5 0.25 C 4.5 0.140625 4.40625 0.046875 4.296875 0.046875 Z M 0.71875 -0.609375 C 0.75 -0.609375 0.78125 -0.609375 0.828125 -0.640625 L 4.390625 -2.609375 C 4.453125 -2.640625 4.5 -2.703125 4.5 -2.78125 C 4.5 -2.875 4.453125 -2.9375 4.390625 -2.96875 L 0.828125 -4.953125 C 0.78125 -4.953125 0.75 -4.96875 0.71875 -4.96875 C 0.609375 -4.96875 0.515625 -4.890625 0.515625 -4.765625 C 0.515625 -4.6875 0.546875 -4.625 0.609375 -4.578125 L 3.859375 -2.78125 L 0.609375 -0.984375 C 0.546875 -0.953125 0.515625 -0.890625 0.515625 -0.8125 C 0.515625 -0.6875 0.609375 -0.609375 0.71875 -0.609375 Z M 0.71875 -0.609375 "/>
</g>
<g id="glyph-1-0">
<path d="M 2.890625 -2.046875 C 3.25 -1.234375 3.65625 -0.1875 3.734375 -0.09375 C 3.875 0.078125 4 0.078125 4.109375 0.078125 L 4.265625 0.078125 C 4.390625 0.078125 4.46875 0.078125 4.46875 -0.015625 C 4.46875 -0.046875 4.4375 -0.078125 4.421875 -0.078125 C 4.34375 -0.171875 4.265625 -0.328125 4.25 -0.390625 L 2.5 -4.515625 C 2.453125 -4.640625 2.296875 -4.96875 1.546875 -4.96875 C 1.453125 -4.96875 1.359375 -4.96875 1.359375 -4.859375 C 1.359375 -4.78125 1.4375 -4.765625 1.46875 -4.765625 C 1.625 -4.75 1.75 -4.71875 1.9375 -4.3125 L 2.78125 -2.3125 L 0.671875 -0.40625 C 0.59375 -0.34375 0.53125 -0.28125 0.53125 -0.15625 C 0.53125 0.015625 0.671875 0.078125 0.765625 0.078125 C 0.90625 0.078125 1 0 1.015625 -0.03125 Z M 2.890625 -2.046875 "/>
</g>
<g id="glyph-2-0">
<path d="M 3.59375 -2.609375 C 3.265625 -2.609375 2.90625 -2.453125 2.625 -2.109375 C 2.546875 -2.46875 2.328125 -2.609375 2 -2.609375 C 1.671875 -2.609375 1.3125 -2.421875 1.0625 -2.140625 L 1.015625 -2.5625 L 0.9375 -2.609375 L 0.1875 -2.28125 L 0.1875 -2.09375 L 0.609375 -2.046875 C 0.609375 -1.84375 0.625 -1.671875 0.625 -1.375 L 0.625 -1.125 C 0.625 -0.890625 0.609375 -0.53125 0.609375 -0.265625 L 0.21875 -0.1875 L 0.21875 0 L 1.453125 0 L 1.453125 -0.1875 L 1.09375 -0.265625 C 1.078125 -0.53125 1.078125 -0.890625 1.078125 -1.125 L 1.078125 -1.90625 C 1.34375 -2.140625 1.546875 -2.234375 1.796875 -2.234375 C 2.109375 -2.234375 2.234375 -2.0625 2.234375 -1.578125 L 2.234375 -1.125 C 2.234375 -0.875 2.21875 -0.53125 2.21875 -0.265625 L 1.828125 -0.1875 L 1.828125 0 L 3.0625 0 L 3.0625 -0.1875 L 2.6875 -0.265625 C 2.6875 -0.53125 2.6875 -0.875 2.6875 -1.125 L 2.6875 -1.625 C 2.6875 -1.71875 2.671875 -1.8125 2.671875 -1.890625 C 2.9375 -2.140625 3.15625 -2.234375 3.390625 -2.234375 C 3.703125 -2.234375 3.84375 -2.09375 3.84375 -1.59375 L 3.84375 -1.125 C 3.84375 -0.875 3.828125 -0.53125 3.828125 -0.265625 L 3.4375 -0.1875 L 3.4375 0 L 4.671875 0 L 4.671875 -0.1875 L 4.296875 -0.265625 C 4.296875 -0.53125 4.28125 -0.875 4.28125 -1.125 L 4.28125 -1.671875 C 4.28125 -2.34375 4.03125 -2.609375 3.59375 -2.609375 Z M 3.59375 -2.609375 "/>
</g>
<g id="glyph-2-1">
<path d="M 2.234375 0.046875 C 2.421875 0.046875 2.5625 -0.015625 2.703125 -0.21875 L 2.59375 -0.34375 C 2.53125 -0.265625 2.46875 -0.21875 2.375 -0.21875 C 2.265625 -0.21875 2.1875 -0.3125 2.1875 -0.546875 L 2.1875 -1.6875 C 2.1875 -2.359375 1.921875 -2.609375 1.359375 -2.609375 C 0.8125 -2.609375 0.40625 -2.359375 0.3125 -1.953125 C 0.328125 -1.8125 0.40625 -1.734375 0.5625 -1.734375 C 0.703125 -1.734375 0.796875 -1.828125 0.84375 -1.984375 L 0.9375 -2.34375 C 1.0625 -2.359375 1.15625 -2.375 1.234375 -2.375 C 1.59375 -2.375 1.734375 -2.234375 1.734375 -1.71875 L 1.734375 -1.59375 C 1.515625 -1.53125 1.296875 -1.46875 1.125 -1.40625 C 0.40625 -1.140625 0.234375 -0.90625 0.234375 -0.59375 C 0.234375 -0.15625 0.5625 0.0625 0.953125 0.0625 C 1.28125 0.0625 1.453125 -0.0625 1.75 -0.359375 C 1.796875 -0.109375 1.96875 0.046875 2.234375 0.046875 Z M 0.71875 -0.6875 C 0.71875 -0.84375 0.78125 -1.046875 1.25 -1.234375 C 1.359375 -1.265625 1.546875 -1.328125 1.734375 -1.390625 L 1.734375 -0.5625 C 1.4375 -0.34375 1.328125 -0.28125 1.140625 -0.28125 C 0.90625 -0.28125 0.71875 -0.390625 0.71875 -0.6875 Z M 0.71875 -0.6875 "/>
</g>
<g id="glyph-2-2">
<path d="M 1.6875 -2.34375 L 2.046875 -2.265625 L 1.46875 -1.53125 L 0.953125 -2.28125 L 1.28125 -2.34375 L 1.28125 -2.546875 L 0.09375 -2.546875 L 0.09375 -2.34375 L 0.453125 -2.28125 L 1.171875 -1.234375 L 0.390625 -0.25 L 0.046875 -0.1875 L 0.046875 0 L 1.125 0 L 1.125 -0.1875 L 0.71875 -0.265625 L 1.3125 -1.03125 L 1.84375 -0.265625 L 1.453125 -0.1875 L 1.453125 0 L 2.765625 0 L 2.765625 -0.1875 L 2.359375 -0.265625 L 1.609375 -1.328125 L 2.375 -2.28125 L 2.703125 -2.34375 L 2.703125 -2.546875 L 1.6875 -2.546875 Z M 1.6875 -2.34375 "/>
</g>
<g id="glyph-3-0">
<path d="M 0.4375 -3.34375 C 0.4375 -3.203125 0.578125 -3.0625 0.71875 -3.0625 C 0.84375 -3.0625 1.0625 -3.203125 1.0625 -3.359375 C 1.0625 -3.40625 1.046875 -3.453125 1.03125 -3.5 C 1.015625 -3.5625 0.96875 -3.625 0.96875 -3.671875 C 0.96875 -3.859375 1.15625 -4.109375 1.6875 -4.109375 C 1.9375 -4.109375 2.296875 -3.9375 2.296875 -3.25 C 2.296875 -2.796875 2.140625 -2.421875 1.71875 -1.984375 L 1.1875 -1.46875 C 0.484375 -0.75 0.375 -0.40625 0.375 0.015625 C 0.375 0.015625 0.734375 0 0.96875 0 L 2.21875 0 C 2.453125 0 2.78125 0.015625 2.78125 0.015625 C 2.875 -0.359375 2.9375 -0.90625 2.953125 -1.109375 C 2.90625 -1.15625 2.8125 -1.171875 2.734375 -1.15625 C 2.625 -0.640625 2.5 -0.46875 2.234375 -0.46875 L 0.96875 -0.46875 C 0.96875 -0.8125 1.453125 -1.296875 1.5 -1.328125 L 2.21875 -2.03125 C 2.625 -2.421875 2.9375 -2.734375 2.9375 -3.28125 C 2.9375 -4.046875 2.296875 -4.359375 1.71875 -4.359375 C 0.9375 -4.359375 0.4375 -3.78125 0.4375 -3.34375 Z M 0.4375 -3.34375 "/>
</g>
<g id="glyph-4-0">
<path d="M 2.03125 0.09375 C 2.71875 0.09375 3.765625 -0.609375 3.765625 -2.703125 C 3.765625 -3.59375 3.5625 -4.359375 3.15625 -4.875 C 2.9375 -5.1875 2.5625 -5.453125 2.078125 -5.453125 C 1.1875 -5.453125 0.34375 -4.390625 0.34375 -2.625 C 0.34375 -1.671875 0.640625 -0.78125 1.140625 -0.28125 C 1.390625 -0.03125 1.6875 0.09375 2.03125 0.09375 Z M 2.078125 -5.140625 C 2.21875 -5.140625 2.375 -5.078125 2.46875 -4.984375 C 2.75 -4.75 3 -4.078125 3 -2.875 C 3 -2.0625 2.96875 -1.5 2.84375 -1.03125 C 2.640625 -0.296875 2.203125 -0.21875 2.046875 -0.21875 C 1.21875 -0.21875 1.125 -1.75 1.125 -2.53125 C 1.125 -4.734375 1.671875 -5.140625 2.078125 -5.140625 Z M 2.078125 -5.140625 "/>
</g>
<g id="glyph-4-1">
<path d="M 0.921875 -0.84375 C 0.65625 -0.84375 0.453125 -0.65625 0.453125 -0.40625 C 0.453125 -0.140625 0.6875 -0.046875 0.84375 -0.015625 C 1.015625 0 1.171875 0.046875 1.171875 0.265625 C 1.171875 0.453125 0.84375 0.859375 0.390625 0.96875 C 0.390625 1.0625 0.40625 1.125 0.46875 1.1875 C 1 1.09375 1.515625 0.65625 1.515625 0.03125 C 1.515625 -0.5 1.28125 -0.84375 0.921875 -0.84375 Z M 0.921875 -0.84375 "/>
</g>
<g id="glyph-4-2">
<path d="M 2.84375 -1.6875 C 2.84375 -0.84375 2.40625 -0.21875 1.875 -0.21875 C 1.53125 -0.21875 1.40625 -0.4375 1.28125 -0.609375 C 1.15625 -0.765625 1.015625 -0.90625 0.828125 -0.90625 C 0.65625 -0.90625 0.484375 -0.75 0.484375 -0.578125 C 0.484375 -0.203125 1.25 0.09375 1.75 0.09375 C 2.859375 0.09375 3.640625 -0.71875 3.640625 -1.84375 C 3.640625 -2.71875 3.046875 -3.5 2.046875 -3.5 C 1.65625 -3.5 1.328125 -3.421875 1.171875 -3.359375 L 1.34375 -4.84375 C 1.6875 -4.8125 1.96875 -4.765625 2.390625 -4.765625 C 2.65625 -4.765625 2.96875 -4.78125 3.328125 -4.8125 L 3.484375 -5.421875 L 3.421875 -5.453125 C 2.90625 -5.40625 2.421875 -5.359375 1.953125 -5.359375 C 1.625 -5.359375 1.296875 -5.375 0.984375 -5.40625 L 0.671875 -2.828125 C 1.15625 -3.015625 1.5 -3.046875 1.8125 -3.046875 C 2.390625 -3.046875 2.84375 -2.65625 2.84375 -1.6875 Z M 2.84375 -1.6875 "/>
</g>
<g id="glyph-4-3">
<path d="M 2.578125 -1.09375 L 2.578125 -4.1875 C 2.578125 -4.734375 2.578125 -5.265625 2.59375 -5.390625 C 2.59375 -5.4375 2.578125 -5.4375 2.546875 -5.4375 C 2.0625 -5.125 1.578125 -4.90625 0.796875 -4.546875 C 0.8125 -4.4375 0.84375 -4.359375 0.921875 -4.296875 C 1.34375 -4.46875 1.53125 -4.515625 1.703125 -4.515625 C 1.859375 -4.515625 1.890625 -4.3125 1.890625 -4 L 1.890625 -1.09375 C 1.890625 -0.34375 1.640625 -0.296875 1.015625 -0.28125 C 0.96875 -0.21875 0.96875 -0.03125 1.015625 0.015625 C 1.453125 0.015625 1.78125 0 2.265625 0 C 2.6875 0 2.90625 0.015625 3.359375 0.015625 C 3.40625 -0.03125 3.40625 -0.21875 3.359375 -0.28125 C 2.71875 -0.296875 2.578125 -0.34375 2.578125 -1.09375 Z M 2.578125 -1.09375 "/>
</g>
<g id="glyph-4-4">
<path d="M 1.9375 -0.953125 C 1.9375 -0.703125 2.140625 -0.484375 2.40625 -0.484375 C 2.65625 -0.484375 2.875 -0.703125 2.875 -0.953125 C 2.875 -1.21875 2.65625 -1.4375 2.40625 -1.4375 C 2.140625 -1.4375 1.9375 -1.21875 1.9375 -0.953125 Z M 1.9375 -3.484375 C 1.9375 -3.21875 2.140625 -3.015625 2.40625 -3.015625 C 2.65625 -3.015625 2.875 -3.21875 2.875 -3.484375 C 2.875 -3.75 2.65625 -3.953125 2.40625 -3.953125 C 2.140625 -3.953125 1.9375 -3.75 1.9375 -3.484375 Z M 1.9375 -3.484375 "/>
</g>
<g id="glyph-4-5">
<path d="M 1.515625 -4.78125 L 3.125 -4.78125 C 2.421875 -3.046875 1.71875 -1.3125 1.109375 0.046875 L 1.1875 0.109375 L 1.78125 0.09375 C 2.296875 -1.4375 2.78125 -2.90625 3.796875 -5.359375 L 3.640625 -5.453125 C 3.5 -5.421875 3.296875 -5.359375 2.953125 -5.359375 L 1.125 -5.359375 C 0.8125 -5.359375 0.828125 -5.453125 0.671875 -5.484375 C 0.640625 -5.484375 0.640625 -5.484375 0.640625 -5.453125 C 0.625 -5.03125 0.53125 -4.5 0.453125 -4.03125 C 0.546875 -4 0.640625 -4 0.734375 -4 C 0.9375 -4.71875 1.234375 -4.78125 1.515625 -4.78125 Z M 1.515625 -4.78125 "/>
</g>
<g id="glyph-5-0">
<path d="M 1.015625 -2.765625 C 0.71875 -2.765625 0.515625 -2.53125 0.515625 -2.265625 C 0.515625 -1.96875 0.75 -1.765625 1.015625 -1.765625 C 1.3125 -1.765625 1.515625 -2 1.515625 -2.265625 C 1.515625 -2.546875 1.28125 -2.765625 1.015625 -2.765625 Z M 1.015625 -2.765625 "/>
</g>
<g id="glyph-6-0">
<path d="M 3.265625 -2.578125 C 3.796875 -1.25 4.125 -0.25 4.203125 -0.140625 C 4.390625 0.09375 4.453125 0.09375 4.734375 0.09375 L 4.9375 0.09375 C 5 0.09375 5.046875 0.0625 5.046875 0 C 5.046875 -0.046875 5.015625 -0.0625 4.984375 -0.09375 C 4.875 -0.21875 4.828125 -0.328125 4.78125 -0.484375 L 2.875 -5.59375 C 2.671875 -6.140625 2.078125 -6.203125 1.765625 -6.203125 C 1.6875 -6.203125 1.5625 -6.203125 1.5625 -6.09375 C 1.5625 -6 1.640625 -5.984375 1.734375 -5.984375 C 2 -5.9375 2.109375 -5.6875 2.25 -5.359375 L 3.15625 -2.875 L 0.640625 -0.453125 C 0.546875 -0.359375 0.484375 -0.296875 0.484375 -0.15625 C 0.484375 0.03125 0.640625 0.109375 0.765625 0.109375 C 0.921875 0.109375 1.03125 -0.015625 1.0625 -0.046875 Z M 3.265625 -2.578125 "/>
</g>
<g id="glyph-7-0">
<path d="M 4.8125 -3.5 C 4.34375 -3.5 3.875 -3.265625 3.5 -2.8125 C 3.390625 -3.296875 3.109375 -3.5 2.65625 -3.5 C 2.21875 -3.5 1.75 -3.234375 1.40625 -2.84375 L 1.359375 -3.421875 L 1.25 -3.5 L 0.25 -3.0625 L 0.25 -2.8125 L 0.8125 -2.734375 C 0.828125 -2.453125 0.828125 -2.234375 0.828125 -1.84375 L 0.828125 -1.5 C 0.828125 -1.1875 0.828125 -0.71875 0.8125 -0.359375 L 0.28125 -0.25 L 0.28125 0 L 1.953125 0 L 1.953125 -0.25 L 1.453125 -0.359375 C 1.453125 -0.71875 1.4375 -1.1875 1.4375 -1.5 L 1.4375 -2.546875 C 1.78125 -2.84375 2.0625 -2.984375 2.390625 -2.984375 C 2.8125 -2.984375 2.984375 -2.765625 2.984375 -2.109375 L 2.984375 -1.5 C 2.984375 -1.171875 2.96875 -0.703125 2.96875 -0.359375 L 2.4375 -0.25 L 2.4375 0 L 4.09375 0 L 4.09375 -0.25 L 3.59375 -0.359375 C 3.578125 -0.71875 3.578125 -1.171875 3.578125 -1.5 L 3.578125 -2.171875 C 3.578125 -2.296875 3.578125 -2.421875 3.5625 -2.53125 C 3.921875 -2.859375 4.21875 -2.984375 4.515625 -2.984375 C 4.9375 -2.984375 5.125 -2.796875 5.125 -2.125 L 5.125 -1.5 C 5.125 -1.171875 5.109375 -0.703125 5.109375 -0.359375 L 4.578125 -0.25 L 4.578125 0 L 6.234375 0 L 6.234375 -0.25 L 5.734375 -0.359375 C 5.734375 -0.71875 5.71875 -1.171875 5.71875 -1.5 L 5.71875 -2.234375 C 5.71875 -3.125 5.390625 -3.5 4.8125 -3.5 Z M 4.8125 -3.5 "/>
</g>
<g id="glyph-7-1">
<path d="M 2.984375 0.078125 C 3.234375 0.078125 3.421875 -0.015625 3.59375 -0.296875 L 3.453125 -0.453125 C 3.375 -0.359375 3.296875 -0.296875 3.171875 -0.296875 C 3.015625 -0.296875 2.921875 -0.421875 2.921875 -0.71875 L 2.921875 -2.25 C 2.921875 -3.15625 2.5625 -3.5 1.8125 -3.5 C 1.078125 -3.5 0.546875 -3.15625 0.421875 -2.609375 C 0.4375 -2.421875 0.546875 -2.3125 0.75 -2.3125 C 0.9375 -2.3125 1.0625 -2.4375 1.125 -2.65625 L 1.265625 -3.125 C 1.40625 -3.15625 1.53125 -3.15625 1.640625 -3.15625 C 2.125 -3.15625 2.3125 -2.984375 2.3125 -2.296875 L 2.3125 -2.125 C 2.03125 -2.046875 1.734375 -1.953125 1.515625 -1.875 C 0.546875 -1.53125 0.328125 -1.203125 0.328125 -0.796875 C 0.328125 -0.203125 0.765625 0.09375 1.28125 0.09375 C 1.703125 0.09375 1.9375 -0.09375 2.328125 -0.484375 C 2.390625 -0.140625 2.640625 0.078125 2.984375 0.078125 Z M 0.953125 -0.90625 C 0.953125 -1.125 1.03125 -1.390625 1.65625 -1.640625 C 1.8125 -1.703125 2.0625 -1.78125 2.3125 -1.859375 L 2.3125 -0.75 C 1.90625 -0.46875 1.78125 -0.375 1.53125 -0.375 C 1.203125 -0.375 0.953125 -0.53125 0.953125 -0.90625 Z M 0.953125 -0.90625 "/>
</g>
<g id="glyph-7-2">
<path d="M 2.265625 -3.125 L 2.734375 -3.03125 L 1.96875 -2.046875 L 1.28125 -3.046875 L 1.71875 -3.125 L 1.71875 -3.40625 L 0.125 -3.40625 L 0.125 -3.125 L 0.609375 -3.046875 L 1.578125 -1.640625 L 0.53125 -0.34375 L 0.078125 -0.25 L 0.078125 0 L 1.5 0 L 1.5 -0.25 L 0.96875 -0.34375 L 1.75 -1.375 L 2.453125 -0.34375 L 1.953125 -0.25 L 1.953125 0 L 3.6875 0 L 3.6875 -0.25 L 3.15625 -0.359375 L 2.15625 -1.78125 L 3.171875 -3.046875 L 3.59375 -3.125 L 3.59375 -3.40625 L 2.265625 -3.40625 Z M 2.265625 -3.125 "/>
</g>
<g id="glyph-8-0">
<path d="M 0.34375 0 L 2.34375 0 L 2.34375 -0.359375 L 1.625 -0.484375 L 1.625 -3.296875 L 1.5625 -4.984375 L 3.609375 0 L 4.0625 0 L 6 -4.984375 L 6 -2.765625 C 6 -2 6 -1.21875 5.984375 -0.46875 L 5.234375 -0.359375 L 5.234375 0 L 7.65625 0 L 7.65625 -0.359375 L 6.84375 -0.46875 C 6.8125 -1.234375 6.8125 -2 6.8125 -2.765625 L 6.8125 -3.203125 C 6.8125 -3.984375 6.8125 -4.765625 6.84375 -5.515625 L 7.65625 -5.609375 L 7.65625 -5.984375 L 5.90625 -5.984375 L 4 -1.0625 L 2 -5.984375 L 0.34375 -5.984375 L 0.34375 -5.609375 L 1.15625 -5.515625 L 1.15625 -0.484375 L 0.34375 -0.359375 Z M 0.34375 0 "/>
</g>
<g id="glyph-8-1">
<path d="M 5.875 0.0625 L 6.25 0.0625 L 7.765625 -5.5 L 8.515625 -5.609375 L 8.515625 -5.984375 L 6.484375 -5.984375 L 6.484375 -5.609375 L 7.296875 -5.5 L 6.171875 -1.375 L 4.828125 -5.5 L 5.734375 -5.609375 L 5.734375 -5.984375 L 3.3125 -5.984375 L 3.3125 -5.609375 L 4.203125 -5.5 L 2.84375 -1.40625 L 1.75 -5.515625 L 2.5625 -5.609375 L 2.5625 -5.984375 L 0.140625 -5.984375 L 0.140625 -5.609375 L 0.875 -5.515625 L 2.484375 0.0625 L 2.875 0.0625 L 4.328125 -4.578125 Z M 5.875 0.0625 "/>
</g>
<g id="glyph-8-2">
<path d="M 2.078125 -0.3125 C 1.6875 -0.3125 1.421875 -0.390625 1.140625 -0.53125 L 0.96875 -1.59375 L 0.40625 -1.59375 L 0.359375 -0.34375 C 0.765625 -0.078125 1.4375 0.140625 2.09375 0.140625 C 3.34375 0.140625 4.21875 -0.515625 4.21875 -1.5625 C 4.21875 -2.40625 3.765625 -2.9375 2.59375 -3.390625 L 2.234375 -3.515625 C 1.59375 -3.765625 1.21875 -4.109375 1.21875 -4.65625 C 1.21875 -5.3125 1.75 -5.671875 2.4375 -5.671875 C 2.703125 -5.671875 2.9375 -5.609375 3.15625 -5.484375 L 3.359375 -4.484375 L 3.890625 -4.484375 L 3.953125 -5.65625 C 3.5625 -5.9375 3.078125 -6.109375 2.484375 -6.109375 C 1.34375 -6.109375 0.46875 -5.484375 0.46875 -4.453125 C 0.46875 -3.546875 1.09375 -3.015625 2.015625 -2.65625 L 2.359375 -2.515625 C 3.125 -2.21875 3.453125 -1.96875 3.453125 -1.390625 C 3.453125 -0.703125 2.90625 -0.3125 2.078125 -0.3125 Z M 2.078125 -0.3125 "/>
</g>
<g id="glyph-8-3">
<path d="M 0.375 0 L 2.546875 0 L 2.546875 -0.328125 L 1.8125 -0.453125 C 1.8125 -0.90625 1.796875 -1.484375 1.796875 -1.875 L 1.796875 -2.546875 C 1.953125 -3.0625 2.1875 -3.4375 2.53125 -3.703125 L 2.640625 -3.609375 C 2.8125 -3.453125 2.984375 -3.375 3.1875 -3.375 C 3.546875 -3.375 3.71875 -3.609375 3.71875 -4.03125 C 3.609375 -4.234375 3.34375 -4.359375 3.078125 -4.359375 C 2.59375 -4.359375 2.078125 -3.9375 1.78125 -3.21875 L 1.6875 -4.265625 L 1.5625 -4.359375 L 0.296875 -3.8125 L 0.296875 -3.5 L 1.015625 -3.421875 C 1.03125 -3.0625 1.03125 -2.796875 1.03125 -2.3125 L 1.03125 -1.875 C 1.03125 -1.46875 1.03125 -0.890625 1.015625 -0.4375 L 0.375 -0.328125 Z M 0.375 0 "/>
</g>
<g id="glyph-8-4">
<path d="M 4.484375 -1.796875 L 4.484375 -2.3125 L 0.265625 -2.3125 L 0.265625 -1.796875 Z M 4.484375 -3.578125 L 4.484375 -4.09375 L 0.265625 -4.09375 L 0.265625 -3.578125 Z M 4.484375 -3.578125 "/>
</g>
<g id="glyph-9-0">
<path d="M 4.078125 -1.046875 C 5.078125 -1.375 5.828125 -2.296875 5.828125 -3.375 C 5.828125 -4.6875 4.921875 -5.875 3.140625 -5.875 C 1.375 -5.875 0.453125 -4.546875 0.453125 -3.375 C 0.453125 -2.21875 1.21875 -1.375 2.1875 -1.046875 L 2.21875 -0.609375 L 1.3125 -0.609375 C 1.28125 -0.609375 1.265625 -0.609375 1.234375 -0.609375 C 0.8125 -0.609375 0.65625 -0.609375 0.609375 -1.0625 C 0.546875 -1.09375 0.46875 -1.09375 0.390625 -1.0625 C 0.390625 -0.703125 0.40625 -0.34375 0.453125 0 L 2.359375 0 C 2.453125 0 2.515625 -0.046875 2.515625 -0.140625 L 2.4375 -1.28125 C 1.625 -1.828125 1.265625 -2.375 1.265625 -3.375 C 1.265625 -4.515625 1.890625 -5.578125 3.140625 -5.578125 C 4.296875 -5.578125 5.015625 -4.625 5.015625 -3.375 C 5.015625 -2.40625 4.65625 -1.75 3.828125 -1.28125 L 3.765625 -0.125 C 3.765625 -0.046875 3.8125 0 3.921875 0 L 5.78125 0 C 5.8125 -0.296875 5.84375 -0.703125 5.84375 -1.0625 C 5.78125 -1.09375 5.6875 -1.09375 5.609375 -1.0625 C 5.5625 -0.609375 5.390625 -0.609375 5.046875 -0.609375 C 5.015625 -0.609375 4.96875 -0.609375 4.921875 -0.609375 L 4.0625 -0.609375 Z M 4.078125 -1.046875 "/>
</g>
</g>
<clipPath id="clip-0">
<path clip-rule="nonzero" d="M 0.0351562 95 L 39 95 L 39 127 L 0.0351562 127 Z M 0.0351562 95 "/>
</clipPath>
<clipPath id="clip-1">
<path clip-rule="nonzero" d="M 0.0351562 110 L 11 110 L 11 112 L 0.0351562 112 Z M 0.0351562 110 "/>
</clipPath>
<clipPath id="clip-2">
<path clip-rule="nonzero" d="M 92 29 L 254.65625 29 L 254.65625 31 L 92 31 Z M 92 29 "/>
</clipPath>
<clipPath id="clip-3">
<path clip-rule="nonzero" d="M 75 114 L 111 114 L 111 182.960938 L 75 182.960938 Z M 75 114 "/>
</clipPath>
<clipPath id="clip-4">
<path clip-rule="nonzero" d="M 244 2 L 254.65625 2 L 254.65625 18 L 244 18 Z M 244 2 "/>
</clipPath>
<clipPath id="clip-5">
<path clip-rule="nonzero" d="M 253 7 L 254.65625 7 L 254.65625 13 L 253 13 Z M 253 7 "/>
</clipPath>
<clipPath id="clip-6">
<path clip-rule="nonzero" d="M 125 171 L 141 171 L 141 182.960938 L 125 182.960938 Z M 125 171 "/>
</clipPath>
</defs>
<path fill="none" stroke-width="0.3985" stroke-linecap="butt" stroke-linejoin="miter" stroke="rgb(0%, 0%, 0%)" stroke-opacity="1" stroke-miterlimit="10" d="M 30.328344 40.438676 L 42.052949 40.438676 M 59.038544 40.438676 L 75.820437 40.438676 M 75.820437 40.438676 L 80.873808 40.438676 L 80.873808 36.697614 M 80.873808 23.958418 L 80.873808 20.217356 " transform="matrix(0.997168, 0, 0, -0.997168, -2.992469, 151.12886)"/>
<g clip-path="url(#clip-0)">
<path fill="none" stroke-width="0.797" stroke-linecap="butt" stroke-linejoin="miter" stroke="rgb(0%, 0%, 0%)" stroke-opacity="1" stroke-miterlimit="10" d="M 28.628218 44.681157 L 15.042875 44.681157 C 14.102713 44.681157 13.342749 42.781246 13.342749 40.438676 C 13.342749 38.092188 14.102713 36.192277 15.042875 36.192277 L 28.628218 36.192277 C 29.56838 36.192277 30.328344 38.092188 30.328344 40.438676 C 30.328344 42.781246 29.56838 44.681157 28.628218 44.681157 " transform="matrix(0.997168, 0, 0, -0.997168, -2.992469, 151.12886)"/>
</g>
<path fill="none" stroke-width="0.797" stroke-linecap="butt" stroke-linejoin="miter" stroke="rgb(0%, 0%, 0%)" stroke-opacity="1" stroke-miterlimit="10" d="M 28.628218 44.681157 C 27.691973 44.681157 26.932009 42.781246 26.932009 40.438676 C 26.932009 38.092188 27.691973 36.192277 28.628218 36.192277 " transform="matrix(0.997168, 0, 0, -0.997168, -2.992469, 151.12886)"/>
<path fill="none" stroke-width="0.3985" stroke-linecap="butt" stroke-linejoin="miter" stroke="rgb(0%, 0%, 0%)" stroke-opacity="1" stroke-miterlimit="10" d="M 28.628218 40.438676 L 30.328344 40.438676 " transform="matrix(0.997168, 0, 0, -0.997168, -2.992469, 151.12886)"/>
<path fill="none" stroke-width="0.797" stroke-linecap="butt" stroke-linejoin="bevel" stroke="rgb(0%, 0%, 0%)" stroke-opacity="1" stroke-miterlimit="10" d="M 41.657297 40.595369 C 41.657297 38.252799 42.981359 36.348971 44.618808 36.348971 C 46.256257 36.348971 47.584236 38.252799 47.584236 40.595369 C 47.584236 38.252799 48.908297 36.348971 50.545746 36.348971 C 52.183195 36.348971 53.511174 38.252799 53.511174 40.595369 C 53.511174 38.252799 54.835236 36.348971 56.472685 36.348971 C 58.110134 36.348971 59.438113 38.252799 59.438113 40.595369 " transform="matrix(0.997168, 0, 0, -0.997168, -2.992469, 151.12886)"/>
<path fill-rule="nonzero" fill="rgb(0%, 0%, 0%)" fill-opacity="1" stroke-width="0.3985" stroke-linecap="butt" stroke-linejoin="miter" stroke="rgb(0%, 0%, 0%)" stroke-opacity="1" stroke-miterlimit="10" d="M 72.353589 40.438676 C 72.353589 41.312243 71.640633 42.025199 70.763149 42.025199 C 69.889581 42.025199 69.176625 41.312243 69.176625 40.438676 C 69.176625 39.561191 69.889581 38.848235 70.763149 38.848235 C 71.640633 38.848235 72.353589 39.561191 72.353589 40.438676 Z M 72.353589 40.438676 " transform="matrix(0.997168, 0, 0, -0.997168, -2.992469, 151.12886)"/>
<path fill="none" stroke-width="0.797" stroke-linecap="butt" stroke-linejoin="bevel" stroke="rgb(0%, 0%, 0%)" stroke-opacity="1" stroke-miterlimit="10" d="M 80.713197 37.093266 C 83.059685 37.093266 84.959596 35.581172 84.959596 33.712599 C 84.959596 31.844027 83.059685 30.328016 80.713197 30.328016 C 83.059685 30.328016 84.959596 28.812005 84.959596 26.943432 C 84.959596 25.07486 83.059685 23.558849 80.713197 23.558849 " transform="matrix(0.997168, 0, 0, -0.997168, -2.992469, 151.12886)"/>
<g clip-path="url(#clip-1)">
<path fill="none" stroke-width="0.3985" stroke-linecap="butt" stroke-linejoin="miter" stroke="rgb(0%, 0%, 0%)" stroke-opacity="1" stroke-dasharray="2.98883 2.98883" stroke-miterlimit="10" d="M 13.342749 40.438676 L 3.236007 40.438676 " transform="matrix(0.997168, 0, 0, -0.997168, -2.992469, 151.12886)"/>
</g>
<path fill="none" stroke-width="0.3985" stroke-linecap="butt" stroke-linejoin="miter" stroke="rgb(0%, 0%, 0%)" stroke-opacity="1" stroke-miterlimit="10" d="M 70.763149 40.438676 L 70.763149 32.310191 M 70.763149 28.341924 L 70.763149 20.217356 " transform="matrix(0.997168, 0, 0, -0.997168, -2.992469, 151.12886)"/>
<path fill="none" stroke-width="0.797" stroke-linecap="butt" stroke-linejoin="miter" stroke="rgb(0%, 0%, 0%)" stroke-opacity="1" stroke-miterlimit="10" d="M 76.717509 32.310191 L 64.812706 32.310191 M 76.717509 28.341924 L 64.812706 28.341924 " transform="matrix(0.997168, 0, 0, -0.997168, -2.992469, 151.12886)"/>
<path fill-rule="nonzero" fill="rgb(0%, 0%, 0%)" fill-opacity="1" stroke-width="0.3985" stroke-linecap="butt" stroke-linejoin="miter" stroke="rgb(0%, 0%, 0%)" stroke-opacity="1" stroke-miterlimit="10" d="M 72.353589 20.217356 C 72.353589 21.094841 71.640633 21.80388 70.763149 21.80388 C 69.889581 21.80388 69.176625 21.094841 69.176625 20.217356 C 69.176625 19.343789 69.889581 18.630833 70.763149 18.630833 C 71.640633 18.630833 72.353589 19.343789 72.353589 20.217356 Z M 72.353589 20.217356 " transform="matrix(0.997168, 0, 0, -0.997168, -2.992469, 151.12886)"/>
<path fill="none" stroke-width="0.3985" stroke-linecap="butt" stroke-linejoin="miter" stroke="rgb(0%, 0%, 0%)" stroke-opacity="1" stroke-miterlimit="10" d="M 28.628218 36.192277 L 28.628218 28.204817 M 28.628218 28.204817 L 28.628218 20.217356 L 29.478281 20.217356 M 29.478281 20.217356 L 42.052949 20.217356 M 59.038544 20.217356 L 75.820437 20.217356 M 75.820437 20.217356 L 88.457783 20.217356 M 88.457783 20.217356 L 96.037839 20.217356 L 96.037839 24.769308 M 96.037839 116.760251 L 96.037839 121.312202 " transform="matrix(0.997168, 0, 0, -0.997168, -2.992469, 151.12886)"/>
<path fill-rule="nonzero" fill="rgb(0%, 0%, 0%)" fill-opacity="1" stroke-width="0.3985" stroke-linecap="butt" stroke-linejoin="miter" stroke="rgb(0%, 0%, 0%)" stroke-opacity="1" stroke-miterlimit="10" d="M 30.214741 36.192277 C 30.214741 37.065844 29.505702 37.7788 28.628218 37.7788 C 27.75465 37.7788 27.041694 37.065844 27.041694 36.192277 C 27.041694 35.314792 27.75465 34.605753 28.628218 34.605753 C 29.505702 34.605753 30.214741 35.314792 30.214741 36.192277 Z M 30.214741 36.192277 " transform="matrix(0.997168, 0, 0, -0.997168, -2.992469, 151.12886)"/>
<path fill="none" stroke-width="0.797" stroke-linecap="butt" stroke-linejoin="bevel" stroke="rgb(0%, 0%, 0%)" stroke-opacity="1" stroke-miterlimit="10" d="M 41.657297 20.060662 C 41.657297 22.403233 42.981359 24.303144 44.618808 24.303144 C 46.256257 24.303144 47.584236 22.403233 47.584236 20.060662 C 47.584236 22.403233 48.908297 24.303144 50.545746 24.303144 C 52.183195 24.303144 53.511174 22.403233 53.511174 20.060662 C 53.511174 22.403233 54.835236 24.303144 56.472685 24.303144 C 58.110134 24.303144 59.438113 22.403233 59.438113 20.060662 " transform="matrix(0.997168, 0, 0, -0.997168, -2.992469, 151.12886)"/>
<path fill="none" stroke-width="0.797" stroke-linecap="butt" stroke-linejoin="bevel" stroke="rgb(0%, 0%, 0%)" stroke-opacity="1" stroke-miterlimit="10" d="M 96.19845 24.369739 C 93.851963 24.369739 91.952052 25.854411 91.952052 27.68381 C 91.952052 29.513209 93.851963 30.997881 96.19845 30.997881 C 93.851963 30.997881 91.952052 32.482554 91.952052 34.311953 C 91.952052 36.141352 93.851963 37.626024 96.19845 37.626024 C 93.851963 37.626024 91.952052 39.110697 91.952052 40.940095 C 91.952052 42.769494 93.851963 44.254167 96.19845 44.254167 C 93.851963 44.254167 91.952052 45.734922 91.952052 47.568238 C 91.952052 49.397637 93.851963 50.88231 96.19845 50.88231 C 93.851963 50.88231 91.952052 52.363065 91.952052 54.196381 C 91.952052 56.02578 93.851963 57.510452 96.19845 57.510452 C 93.851963 57.510452 91.952052 58.991208 91.952052 60.824524 C 91.952052 62.653922 93.851963 64.138595 96.19845 64.138595 C 93.851963 64.138595 91.952052 65.61935 91.952052 67.452666 C 91.952052 69.282065 93.851963 70.766738 96.19845 70.766738 C 93.851963 70.766738 91.952052 72.247493 91.952052 74.076892 C 91.952052 75.910208 93.851963 77.390963 96.19845 77.390963 C 93.851963 77.390963 91.952052 78.875636 91.952052 80.705035 C 91.952052 82.538351 93.851963 84.019106 96.19845 84.019106 C 93.851963 84.019106 91.952052 85.503779 91.952052 87.333177 C 91.952052 89.166493 93.851963 90.647249 96.19845 90.647249 C 93.851963 90.647249 91.952052 92.131921 91.952052 93.96132 C 91.952052 95.794636 93.851963 97.275391 96.19845 97.275391 C 93.851963 97.275391 91.952052 98.760064 91.952052 100.589463 C 91.952052 102.418861 93.851963 103.903534 96.19845 103.903534 C 93.851963 103.903534 91.952052 105.388207 91.952052 107.217605 C 91.952052 109.047004 93.851963 110.531677 96.19845 110.531677 C 93.851963 110.531677 91.952052 112.016349 91.952052 113.845748 C 91.952052 115.675147 93.851963 117.15982 96.19845 117.15982 " transform="matrix(0.997168, 0, 0, -0.997168, -2.992469, 151.12886)"/>
<path fill-rule="nonzero" fill="rgb(0%, 0%, 0%)" fill-opacity="1" stroke-width="0.3985" stroke-linecap="butt" stroke-linejoin="miter" stroke="rgb(0%, 0%, 0%)" stroke-opacity="1" stroke-miterlimit="10" d="M 97.624363 20.217356 C 97.624363 21.094841 96.915324 21.80388 96.037839 21.80388 C 95.160355 21.80388 94.451316 21.094841 94.451316 20.217356 C 94.451316 19.343789 95.160355 18.630833 96.037839 18.630833 C 96.915324 18.630833 97.624363 19.343789 97.624363 20.217356 Z M 97.624363 20.217356 " transform="matrix(0.997168, 0, 0, -0.997168, -2.992469, 151.12886)"/>
<g clip-path="url(#clip-2)">
<path fill="none" stroke-width="1.19553" stroke-linecap="butt" stroke-linejoin="miter" stroke="rgb(0%, 0%, 0%)" stroke-opacity="1" stroke-miterlimit="10" d="M 96.037839 121.312202 L 257.784892 121.312202 " transform="matrix(0.997168, 0, 0, -0.997168, -2.992469, 151.12886)"/>
</g>
<path fill="none" stroke-width="0.3985" stroke-linecap="butt" stroke-linejoin="miter" stroke="rgb(0%, 0%, 0%)" stroke-opacity="1" stroke-dasharray="2.98883 2.98883" stroke-miterlimit="10" d="M 88.457783 24.769308 L 88.457783 70.766738 M 88.457783 70.766738 L 88.457783 116.760251 " transform="matrix(0.997168, 0, 0, -0.997168, -2.992469, 151.12886)"/>
<path fill="none" stroke-width="0.3985" stroke-linecap="butt" stroke-linejoin="miter" stroke="rgb(0%, 0%, 0%)" stroke-opacity="1" stroke-dasharray="2.98883 2.98883" stroke-miterlimit="10" d="M 42.052949 30.328016 L 50.545746 30.328016 M 50.545746 30.328016 L 59.038544 30.328016 " transform="matrix(0.997168, 0, 0, -0.997168, -2.992469, 151.12886)"/>
<g clip-path="url(#clip-3)">
<path fill="none" stroke-width="1.19553" stroke-linecap="butt" stroke-linejoin="miter" stroke="rgb(0%, 0%, 0%)" stroke-opacity="1" stroke-miterlimit="10" d="M 96.037839 20.217356 C 98.529269 -30.328108 93.562079 -5.053417 97.032844 -31.323113 " transform="matrix(0.997168, 0, 0, -0.997168, -2.992469, 151.12886)"/>
</g>
<g fill="rgb(0%, 0%, 0%)" fill-opacity="1">
<use xlink:href="#glyph-0-0" x="160.707695" y="12.715892"/>
</g>
<g fill="rgb(0%, 0%, 0%)" fill-opacity="1">
<use xlink:href="#glyph-1-0" x="169.394029" y="7.947433"/>
</g>
<g fill="rgb(0%, 0%, 0%)" fill-opacity="1">
<use xlink:href="#glyph-2-0" x="174.240268" y="9.449168"/>
<use xlink:href="#glyph-2-1" x="179.073761" y="9.449168"/>
<use xlink:href="#glyph-2-2" x="181.804335" y="9.449168"/>
</g>
<path fill="none" stroke-width="0.583" stroke-linecap="butt" stroke-linejoin="miter" stroke="rgb(0%, 0%, 0%)" stroke-opacity="1" stroke-miterlimit="10" d="M 0.000503545 0.000870176 L 15.58369 0.000870176 " transform="matrix(0.997168, 0, 0, -0.997168, 169.394029, 10.391493)"/>
<g fill="rgb(0%, 0%, 0%)" fill-opacity="1">
<use xlink:href="#glyph-3-0" x="175.500689" y="17.007706"/>
</g>
<path fill="none" stroke-width="0.3985" stroke-linecap="butt" stroke-linejoin="miter" stroke="rgb(0%, 0%, 0%)" stroke-opacity="1" stroke-miterlimit="10" d="M 96.335557 141.529604 L 160.979536 141.529604 " transform="matrix(0.997168, 0, 0, -0.997168, -2.992469, 151.12886)"/>
<path fill-rule="nonzero" fill="rgb(0%, 0%, 0%)" fill-opacity="1" stroke-width="0.3985" stroke-linecap="butt" stroke-linejoin="miter" stroke="rgb(0%, 0%, 0%)" stroke-opacity="1" stroke-miterlimit="10" d="M 3.171613 0.00027562 L 0.19835 1.76308 L 0.19835 -1.762528 Z M 3.171613 0.00027562 " transform="matrix(-0.997168, 0, 0, 0.997168, 96.732945, 9.999725)"/>
<path fill="none" stroke-width="0.3985" stroke-linecap="butt" stroke-linejoin="miter" stroke="rgb(0%, 0%, 0%)" stroke-opacity="1" stroke-miterlimit="10" d="M -0.000253892 2.291921 L -0.000253892 -2.291369 " transform="matrix(-0.997168, 0, 0, 0.997168, 92.972403, 9.999725)"/>
<path fill="none" stroke-width="0.3985" stroke-linecap="butt" stroke-linejoin="miter" stroke="rgb(0%, 0%, 0%)" stroke-opacity="1" stroke-miterlimit="10" d="M 257.487174 141.529604 L 192.847113 141.529604 " transform="matrix(0.997168, 0, 0, -0.997168, -2.992469, 151.12886)"/>
<path fill-rule="nonzero" fill="rgb(0%, 0%, 0%)" fill-opacity="1" d="M 253.269531 10 L 250.304688 8.242188 L 250.304688 11.757812 Z M 253.269531 10 "/>
<g clip-path="url(#clip-4)">
<path fill="none" stroke-width="0.3985" stroke-linecap="butt" stroke-linejoin="miter" stroke="rgb(0%, 0%, 0%)" stroke-opacity="1" stroke-miterlimit="10" d="M 3.173602 -0.00027562 L 0.200339 1.762528 L 0.200339 -1.76308 Z M 3.173602 -0.00027562 " transform="matrix(0.997168, 0, 0, -0.997168, 250.104916, 9.999725)"/>
</g>
<g clip-path="url(#clip-5)">
<path fill="none" stroke-width="0.3985" stroke-linecap="butt" stroke-linejoin="miter" stroke="rgb(0%, 0%, 0%)" stroke-opacity="1" stroke-miterlimit="10" d="M 0.00172514 2.291369 L 0.00172514 -2.291921 " transform="matrix(0.997168, 0, 0, -0.997168, 253.865467, 9.999725)"/>
</g>
<g fill="rgb(0%, 0%, 0%)" fill-opacity="1">
<use xlink:href="#glyph-0-1" x="110.573055" y="158.28853"/>
</g>
<g fill="rgb(0%, 0%, 0%)" fill-opacity="1">
<use xlink:href="#glyph-4-0" x="118.066776" y="158.28853"/>
<use xlink:href="#glyph-4-1" x="122.224337" y="158.28853"/>
<use xlink:href="#glyph-4-0" x="124.191355" y="158.28853"/>
<use xlink:href="#glyph-4-2" x="128.348916" y="158.28853"/>
</g>
<g fill="rgb(0%, 0%, 0%)" fill-opacity="1">
<use xlink:href="#glyph-5-0" x="133.996542" y="158.28853"/>
</g>
<g fill="rgb(0%, 0%, 0%)" fill-opacity="1">
<use xlink:href="#glyph-6-0" x="136.023786" y="158.28853"/>
</g>
<g fill="rgb(0%, 0%, 0%)" fill-opacity="1">
<use xlink:href="#glyph-7-0" x="141.384564" y="160.166198"/>
<use xlink:href="#glyph-7-1" x="147.829227" y="160.166198"/>
<use xlink:href="#glyph-7-2" x="151.469997" y="160.166198"/>
</g>
<path fill="none" stroke-width="0.3985" stroke-linecap="butt" stroke-linejoin="miter" stroke="rgb(0%, 0%, 0%)" stroke-opacity="1" stroke-miterlimit="10" d="M 136.476561 19.919638 L 136.476561 2.232839 " transform="matrix(0.997168, 0, 0, -0.997168, -2.992469, 151.12886)"/>
<path fill-rule="nonzero" fill="rgb(0%, 0%, 0%)" fill-opacity="1" stroke-width="0.3985" stroke-linecap="butt" stroke-linejoin="miter" stroke="rgb(0%, 0%, 0%)" stroke-opacity="1" stroke-miterlimit="10" d="M 3.174076 -0.00134132 L 0.200813 1.761463 L 0.200813 -1.764145 Z M 3.174076 -0.00134132 " transform="matrix(0, -0.997168, -0.997168, 0, 133.096319, 134.926807)"/>
<path fill="none" stroke-width="0.3985" stroke-linecap="butt" stroke-linejoin="miter" stroke="rgb(0%, 0%, 0%)" stroke-opacity="1" stroke-miterlimit="10" d="M -0.00172833 2.290304 L -0.00172833 -2.292986 " transform="matrix(0, -0.997168, -0.997168, 0, 133.096319, 131.166245)"/>
<path fill="none" stroke-width="0.3985" stroke-linecap="butt" stroke-linejoin="miter" stroke="rgb(0%, 0%, 0%)" stroke-opacity="1" stroke-miterlimit="10" d="M 136.476561 -30.03039 L 136.476561 -12.343591 " transform="matrix(0.997168, 0, 0, -0.997168, -2.992469, 151.12886)"/>
<path fill-rule="nonzero" fill="rgb(0%, 0%, 0%)" fill-opacity="1" d="M 133.097656 180.574219 L 134.855469 177.609375 L 131.339844 177.609375 Z M 133.097656 180.574219 "/>
<g clip-path="url(#clip-6)">
<path fill="none" stroke-width="0.3985" stroke-linecap="butt" stroke-linejoin="miter" stroke="rgb(0%, 0%, 0%)" stroke-opacity="1" stroke-miterlimit="10" d="M 3.17164 0.00134132 L 0.198378 1.764145 L 0.198378 -1.761463 Z M 3.17164 0.00134132 " transform="matrix(0, 0.997168, 0.997168, 0, 133.096319, 177.411559)"/>
</g>
<path fill="none" stroke-width="0.3985" stroke-linecap="butt" stroke-linejoin="miter" stroke="rgb(0%, 0%, 0%)" stroke-opacity="1" stroke-miterlimit="10" d="M -0.000246225 2.292986 L -0.000246225 -2.290304 " transform="matrix(0, 0.997168, 0.997168, 0, 133.096319, 181.172121)"/>
<g fill="rgb(0%, 0%, 0%)" fill-opacity="1">
<use xlink:href="#glyph-8-0" x="36.878316" y="141.672712"/>
<use xlink:href="#glyph-8-1" x="44.94309" y="141.672712"/>
</g>
<g fill="rgb(0%, 0%, 0%)" fill-opacity="1">
<use xlink:href="#glyph-8-2" x="53.365504" y="141.672712"/>
</g>
<g fill="rgb(0%, 0%, 0%)" fill-opacity="1">
<use xlink:href="#glyph-4-2" x="10.76347" y="103.295685"/>
<use xlink:href="#glyph-4-0" x="14.921031" y="103.295685"/>
</g>
<g fill="rgb(0%, 0%, 0%)" fill-opacity="1">
<use xlink:href="#glyph-9-0" x="20.568628" y="103.295685"/>
</g>
<g fill="rgb(0%, 0%, 0%)" fill-opacity="1">
<use xlink:href="#glyph-8-3" x="97.362567" y="83.251602"/>
</g>
<g fill="rgb(0%, 0%, 0%)" fill-opacity="1">
<use xlink:href="#glyph-8-4" x="103.227857" y="83.251602"/>
</g>
<g fill="rgb(0%, 0%, 0%)" fill-opacity="1">
<use xlink:href="#glyph-4-3" x="110.059513" y="83.251602"/>
</g>
<g fill="rgb(0%, 0%, 0%)" fill-opacity="1">
<use xlink:href="#glyph-4-4" x="116.693729" y="83.251602"/>
</g>
<g fill="rgb(0%, 0%, 0%)" fill-opacity="1">
<use xlink:href="#glyph-4-5" x="123.891227" y="83.251602"/>
</g>
</svg>
